M48
;DRILL file {Pcbnew (2013-07-07 BZR 4022)-stable} date 15/10/2017 18:41:42
;FORMAT={-:-/ absolute / inch / decimal}
FMAT,2
INCH,TZ
T1C0.031
T2C0.039
T3C0.040
T4C0.120
%
G90
G05
M72
T1
X4.05Y-1.5
X4.05Y-1.8
X4.1Y-2.05
X4.15Y-2.35
X4.15Y-2.45
X4.25Y-2.35
X4.25Y-2.45
X4.3Y-1.5
X4.4Y-2.05
X4.45Y-1.5
X4.45Y-1.8
X4.45Y-2.25
X4.55Y-1.5
X4.6Y-1.7
X4.6Y-1.95
X4.7Y-2.4
X4.8Y-1.5
X4.8Y-1.8
X4.8Y-2.7
X4.85Y-2.2
X4.95Y-1.85
X4.95Y-1.95
X5.Y-2.4
X5.Y-2.55
X5.05Y-1.85
X5.05Y-1.95
X5.1Y-2.65
X5.15Y-1.5
X5.4Y-1.85
X5.4Y-1.95
X5.4Y-2.1
X5.4Y-2.25
X5.4Y-2.7
X5.45Y-1.45
X5.5Y-1.75
X5.5Y-1.85
X5.5Y-1.95
X5.65Y-2.15
X5.65Y-2.35
X5.65Y-2.8
X5.85Y-1.7
X5.85Y-1.85
X5.85Y-1.95
X5.85Y-2.1
X5.85Y-2.25
X5.85Y-2.75
X5.95Y-1.85
X5.95Y-1.95
X5.95Y-2.35
X6.Y-1.45
X6.Y-2.1
X6.Y-2.75
X6.1Y-1.45
X6.1Y-1.75
X6.15Y-2.3
X6.25Y-1.9
X6.4Y-1.45
X6.4Y-1.6
X6.4Y-1.75
X6.4Y-2.1
X6.4Y-2.2
X6.5Y-1.9
X6.5Y-2.05
X6.5Y-2.35
X6.5Y-2.45
X6.6Y-1.9
X6.6Y-2.35
X6.6Y-2.45
X6.8Y-1.45
X6.8Y-1.75
X6.8Y-2.05
X6.85Y-1.9
T2
X5.3Y-1.55
X5.4Y-1.55
X5.5Y-1.55
X5.6Y-1.55
T3
X5.25Y-2.5
X5.25Y-2.6
X5.35Y-2.5
X5.35Y-2.6
X5.45Y-2.5
X5.45Y-2.6
X5.55Y-2.5
X5.55Y-2.6
X5.65Y-2.5
X5.65Y-2.6
T4
X4.2Y-1.65
X4.2Y-2.8
X6.6Y-1.65
X6.65Y-2.8
T0
M30
