G04 (created by PCBNEW (2013-07-07 BZR 4022)-stable) date 15/10/2017 18:41:22*
%MOIN*%
G04 Gerber Fmt 3.4, Leading zero omitted, Abs format*
%FSLAX34Y34*%
G01*
G70*
G90*
G04 APERTURE LIST*
%ADD10C,0.00590551*%
%ADD11R,0.0787402X0.0787402*%
%ADD12R,0.06X0.06*%
%ADD13C,0.06*%
%ADD14C,0.0590551*%
%ADD15C,0.16*%
%ADD16C,0.0787402*%
%ADD17C,0.0314961*%
%ADD18C,0.01*%
G04 APERTURE END LIST*
G54D10*
G54D11*
X47000Y-24000D03*
X50000Y-24000D03*
X48000Y-18000D03*
X48000Y-15000D03*
X64000Y-17500D03*
X64000Y-14500D03*
X68000Y-17500D03*
X68000Y-14500D03*
X41000Y-20500D03*
X44000Y-20500D03*
X44500Y-18000D03*
X44500Y-15000D03*
X61000Y-17500D03*
X61000Y-14500D03*
X56500Y-23500D03*
X59500Y-23500D03*
X65000Y-20500D03*
X68000Y-20500D03*
X40500Y-15000D03*
X40500Y-18000D03*
G54D12*
X52500Y-26000D03*
G54D13*
X52500Y-25000D03*
X53500Y-26000D03*
X53500Y-25000D03*
X54500Y-26000D03*
X54500Y-25000D03*
X55500Y-26000D03*
X55500Y-25000D03*
X56500Y-26000D03*
X56500Y-25000D03*
G54D14*
X53000Y-15500D03*
X54000Y-15500D03*
X55000Y-15500D03*
X56000Y-15500D03*
G54D11*
X49500Y-19500D03*
X49500Y-18500D03*
X50500Y-18500D03*
X50500Y-19500D03*
X41500Y-24500D03*
X41500Y-23500D03*
X42500Y-23500D03*
X42500Y-24500D03*
X58500Y-19500D03*
X58500Y-18500D03*
X59500Y-18500D03*
X59500Y-19500D03*
X65000Y-24500D03*
X65000Y-23500D03*
X66000Y-23500D03*
X66000Y-24500D03*
X54000Y-19500D03*
X54000Y-18500D03*
X55000Y-18500D03*
X55000Y-19500D03*
G54D15*
X42000Y-28000D03*
X66500Y-28000D03*
X66000Y-16500D03*
X42000Y-16500D03*
G54D16*
X60000Y-21000D03*
X64000Y-16000D03*
X65000Y-19000D03*
X64000Y-21000D03*
X62500Y-19000D03*
X54500Y-14500D03*
X66000Y-19000D03*
X68500Y-19000D03*
X50000Y-25500D03*
X51500Y-15000D03*
X54000Y-27000D03*
X64000Y-22000D03*
X58500Y-22500D03*
X51000Y-26500D03*
X44500Y-22500D03*
X48500Y-22000D03*
X58500Y-27500D03*
X56500Y-28000D03*
X61500Y-23000D03*
X58500Y-21000D03*
X55000Y-17500D03*
X43000Y-15000D03*
X48000Y-27000D03*
X60000Y-27500D03*
X56500Y-21500D03*
X54000Y-22500D03*
X58500Y-17000D03*
X60000Y-14500D03*
X45500Y-15000D03*
X46000Y-17000D03*
X46000Y-19500D03*
X54000Y-21000D03*
G54D17*
X59500Y-23500D02*
X60500Y-23500D01*
X60500Y-23500D02*
X60000Y-21000D01*
X64500Y-20000D02*
X65000Y-19500D01*
X64000Y-16000D02*
X64000Y-14500D01*
X65000Y-19500D02*
X65000Y-19000D01*
X64000Y-21000D02*
X64000Y-20500D01*
X64000Y-20500D02*
X64500Y-20000D01*
X44500Y-18000D02*
X44500Y-17000D01*
X47000Y-16000D02*
X48000Y-15000D01*
X45500Y-16000D02*
X47000Y-16000D01*
X44500Y-17000D02*
X45500Y-16000D01*
X61000Y-17500D02*
X62000Y-18500D01*
X62000Y-18500D02*
X62500Y-19000D01*
X61000Y-17500D02*
X62016Y-17035D01*
X63000Y-14000D02*
X62500Y-14500D01*
X63000Y-14000D02*
X64000Y-14500D01*
X62016Y-17035D02*
X62500Y-14500D01*
X65000Y-20500D02*
X64500Y-20000D01*
X64500Y-20000D02*
X64500Y-20000D01*
X64000Y-14500D02*
X64000Y-14500D01*
X61000Y-16000D02*
X61000Y-17500D01*
X58500Y-14500D02*
X61000Y-16000D01*
X57000Y-14500D02*
X58500Y-14500D01*
X54500Y-14500D02*
X57000Y-14500D01*
X68000Y-17500D02*
X68500Y-19000D01*
X66000Y-20000D02*
X65000Y-20500D01*
X66000Y-19000D02*
X66000Y-20000D01*
X48000Y-24500D02*
X47000Y-24000D01*
X50000Y-25500D02*
X48000Y-24500D01*
X47000Y-24000D02*
X45000Y-21500D01*
X45000Y-21500D02*
X44000Y-20500D01*
X44000Y-20500D02*
X44000Y-20000D01*
X44000Y-20000D02*
X44500Y-18000D01*
X44500Y-18000D02*
X42500Y-19000D01*
X42500Y-19000D02*
X40500Y-18000D01*
X48000Y-15000D02*
X51000Y-15000D01*
X51000Y-15000D02*
X51500Y-15000D01*
X56500Y-23500D02*
X56500Y-24000D01*
X54000Y-27000D02*
X54000Y-27000D01*
X57000Y-27000D02*
X54000Y-27000D01*
X58500Y-26000D02*
X57000Y-27000D01*
X58500Y-25000D02*
X58500Y-26000D01*
X58000Y-24500D02*
X58500Y-25000D01*
X56500Y-24000D02*
X58000Y-24500D01*
X56500Y-23500D02*
X56500Y-23500D01*
X56500Y-23500D02*
X57500Y-23500D01*
X58000Y-23500D02*
X57500Y-23500D01*
X65500Y-22000D02*
X64000Y-22000D01*
X64000Y-22000D02*
X64000Y-22000D01*
X58500Y-22500D02*
X58000Y-23500D01*
X58000Y-23500D02*
X58000Y-23500D01*
X58000Y-23500D02*
X58000Y-23500D01*
X57500Y-23500D02*
X57500Y-23500D01*
X56500Y-23500D02*
X56500Y-23500D01*
X66000Y-23500D02*
X66000Y-22500D01*
X66000Y-22500D02*
X65500Y-22000D01*
X65500Y-22000D02*
X65500Y-22000D01*
X51500Y-18000D02*
X51500Y-18000D01*
X51500Y-18000D02*
X52000Y-18000D01*
X52000Y-18000D02*
X53000Y-18500D01*
X53000Y-18500D02*
X53000Y-20500D01*
X53000Y-20500D02*
X52000Y-23500D01*
X52000Y-23500D02*
X51500Y-24000D01*
X51500Y-24000D02*
X51500Y-25500D01*
X51500Y-25500D02*
X51000Y-26500D01*
X50500Y-18500D02*
X51500Y-18000D01*
X41000Y-20500D02*
X42000Y-21500D01*
X42000Y-21500D02*
X44500Y-22500D01*
X48500Y-22000D02*
X50500Y-21000D01*
X50500Y-21000D02*
X51500Y-21000D01*
X51500Y-21000D02*
X52000Y-20500D01*
X52000Y-20500D02*
X52000Y-20500D01*
X52000Y-20500D02*
X52000Y-20000D01*
X52000Y-20000D02*
X51500Y-18500D01*
X51500Y-18500D02*
X50500Y-18500D01*
X64000Y-17500D02*
X63500Y-18000D01*
X60500Y-25000D02*
X58500Y-27500D01*
X61500Y-25000D02*
X60500Y-25000D01*
X61500Y-25000D02*
X61500Y-25000D01*
X63000Y-23000D02*
X61500Y-25000D01*
X63000Y-22500D02*
X63000Y-23000D01*
X63000Y-20500D02*
X63000Y-22500D01*
X63500Y-20000D02*
X63000Y-20500D01*
X63500Y-19500D02*
X63500Y-20000D01*
X63500Y-18000D02*
X63500Y-19500D01*
X42500Y-23500D02*
X44000Y-24000D01*
X56000Y-28500D02*
X56500Y-28000D01*
X55500Y-28500D02*
X56000Y-28500D01*
X54500Y-28500D02*
X55500Y-28500D01*
X53500Y-28500D02*
X54500Y-28500D01*
X52000Y-28500D02*
X53500Y-28500D01*
X50500Y-28500D02*
X52000Y-28500D01*
X49500Y-28000D02*
X50500Y-28500D01*
X44000Y-24000D02*
X45000Y-26000D01*
X45000Y-26000D02*
X47000Y-26000D01*
X47000Y-26000D02*
X48000Y-26000D01*
X48000Y-26000D02*
X49000Y-26000D01*
X49000Y-26000D02*
X49500Y-28000D01*
X64000Y-17500D02*
X64000Y-17500D01*
X55500Y-16500D02*
X55500Y-16500D01*
X60000Y-16500D02*
X58500Y-16000D01*
X58500Y-16000D02*
X58500Y-16000D01*
X58500Y-16000D02*
X58500Y-16000D01*
X58500Y-16000D02*
X58000Y-16000D01*
X58000Y-16000D02*
X58000Y-16000D01*
X58000Y-16000D02*
X57000Y-16000D01*
X57000Y-16000D02*
X56500Y-16500D01*
X56500Y-16500D02*
X55500Y-16500D01*
X59500Y-18500D02*
X60000Y-16500D01*
X48500Y-18000D02*
X48000Y-18000D01*
X49000Y-17500D02*
X48500Y-18000D01*
X51000Y-16000D02*
X49000Y-17500D01*
X51000Y-16000D02*
X51000Y-16000D01*
X54500Y-16500D02*
X51000Y-16000D01*
X55500Y-16500D02*
X54500Y-16500D01*
X59500Y-18500D02*
X61500Y-19000D01*
X61500Y-19000D02*
X61500Y-23000D01*
X56000Y-18500D02*
X56000Y-20500D01*
X56000Y-20500D02*
X58500Y-21000D01*
X55000Y-18500D02*
X56000Y-18500D01*
X40500Y-15000D02*
X43000Y-15000D01*
X55000Y-17500D02*
X55000Y-18500D01*
X41500Y-25500D02*
X41500Y-24500D01*
X42000Y-26000D02*
X41500Y-25500D01*
X42500Y-26000D02*
X42000Y-26000D01*
X43500Y-27000D02*
X42500Y-26000D01*
X44000Y-27000D02*
X43500Y-27000D01*
X44500Y-27000D02*
X44000Y-27000D01*
X48000Y-27000D02*
X44500Y-27000D01*
X64500Y-27000D02*
X63500Y-27500D01*
X69000Y-21000D02*
X69000Y-22000D01*
X69000Y-22000D02*
X69000Y-24500D01*
X69000Y-24500D02*
X69000Y-26000D01*
X69000Y-26000D02*
X64500Y-27000D01*
X68000Y-20500D02*
X69000Y-21000D01*
X63500Y-27500D02*
X60000Y-27500D01*
X56500Y-21500D02*
X54000Y-22500D01*
X65000Y-24500D02*
X65500Y-25500D01*
X67500Y-15500D02*
X68000Y-14500D01*
X66500Y-21000D02*
X67500Y-15500D01*
X68000Y-24500D02*
X66500Y-21000D01*
X68000Y-24500D02*
X68000Y-24500D01*
X68000Y-25500D02*
X68000Y-24500D01*
X66000Y-26000D02*
X68000Y-25500D01*
X65500Y-25500D02*
X66000Y-26000D01*
X61000Y-14500D02*
X60500Y-14500D01*
X57000Y-19500D02*
X58500Y-19500D01*
X57000Y-17500D02*
X57000Y-19500D01*
X58500Y-17000D02*
X57000Y-17500D01*
X60500Y-14500D02*
X60000Y-14500D01*
X54000Y-19500D02*
X54000Y-21000D01*
X45500Y-15000D02*
X44500Y-15000D01*
X46000Y-19500D02*
X46000Y-17000D01*
X50000Y-24000D02*
X49000Y-23500D01*
X48000Y-19500D02*
X49500Y-19500D01*
X48000Y-19500D02*
X48000Y-19500D01*
X47000Y-19500D02*
X48000Y-19500D01*
X48000Y-23000D02*
X47000Y-19500D01*
X49000Y-23500D02*
X48000Y-23000D01*
X49000Y-23500D02*
X49000Y-23500D01*
G54D10*
G36*
X47748Y-26407D02*
X47635Y-26453D01*
X47497Y-26592D01*
X44500Y-26592D01*
X44000Y-26592D01*
X43668Y-26592D01*
X43143Y-26067D01*
X43143Y-24844D01*
X43143Y-24612D01*
X43081Y-24550D01*
X42550Y-24550D01*
X42550Y-25081D01*
X42612Y-25143D01*
X42943Y-25143D01*
X43035Y-25105D01*
X43105Y-25035D01*
X43143Y-24943D01*
X43143Y-24844D01*
X43143Y-26067D01*
X42788Y-25711D01*
X42655Y-25623D01*
X42500Y-25592D01*
X42499Y-25592D01*
X42168Y-25592D01*
X41907Y-25331D01*
X41907Y-25143D01*
X41943Y-25143D01*
X42000Y-25120D01*
X42056Y-25143D01*
X42387Y-25143D01*
X42450Y-25081D01*
X42450Y-24550D01*
X42442Y-24550D01*
X42442Y-24450D01*
X42450Y-24450D01*
X42450Y-24442D01*
X42550Y-24442D01*
X42550Y-24450D01*
X43081Y-24450D01*
X43143Y-24387D01*
X43143Y-24155D01*
X43143Y-24143D01*
X43710Y-24332D01*
X44623Y-26154D01*
X44623Y-26155D01*
X44624Y-26158D01*
X44636Y-26181D01*
X44665Y-26218D01*
X44711Y-26288D01*
X44727Y-26298D01*
X44734Y-26307D01*
X44776Y-26331D01*
X44844Y-26376D01*
X44862Y-26380D01*
X44872Y-26386D01*
X44925Y-26392D01*
X45000Y-26407D01*
X47000Y-26407D01*
X47748Y-26407D01*
X47748Y-26407D01*
G37*
G54D18*
X47748Y-26407D02*
X47635Y-26453D01*
X47497Y-26592D01*
X44500Y-26592D01*
X44000Y-26592D01*
X43668Y-26592D01*
X43143Y-26067D01*
X43143Y-24844D01*
X43143Y-24612D01*
X43081Y-24550D01*
X42550Y-24550D01*
X42550Y-25081D01*
X42612Y-25143D01*
X42943Y-25143D01*
X43035Y-25105D01*
X43105Y-25035D01*
X43143Y-24943D01*
X43143Y-24844D01*
X43143Y-26067D01*
X42788Y-25711D01*
X42655Y-25623D01*
X42500Y-25592D01*
X42499Y-25592D01*
X42168Y-25592D01*
X41907Y-25331D01*
X41907Y-25143D01*
X41943Y-25143D01*
X42000Y-25120D01*
X42056Y-25143D01*
X42387Y-25143D01*
X42450Y-25081D01*
X42450Y-24550D01*
X42442Y-24550D01*
X42442Y-24450D01*
X42450Y-24450D01*
X42450Y-24442D01*
X42550Y-24442D01*
X42550Y-24450D01*
X43081Y-24450D01*
X43143Y-24387D01*
X43143Y-24155D01*
X43143Y-24143D01*
X43710Y-24332D01*
X44623Y-26154D01*
X44623Y-26155D01*
X44624Y-26158D01*
X44636Y-26181D01*
X44665Y-26218D01*
X44711Y-26288D01*
X44727Y-26298D01*
X44734Y-26307D01*
X44776Y-26331D01*
X44844Y-26376D01*
X44862Y-26380D01*
X44872Y-26386D01*
X44925Y-26392D01*
X45000Y-26407D01*
X47000Y-26407D01*
X47748Y-26407D01*
G54D10*
G36*
X51592Y-20331D02*
X51331Y-20592D01*
X51143Y-20592D01*
X51143Y-19844D01*
X51143Y-19612D01*
X51081Y-19550D01*
X50550Y-19550D01*
X50550Y-20081D01*
X50612Y-20143D01*
X50943Y-20143D01*
X51035Y-20105D01*
X51105Y-20035D01*
X51143Y-19943D01*
X51143Y-19844D01*
X51143Y-20592D01*
X50500Y-20592D01*
X50489Y-20594D01*
X50470Y-20592D01*
X50389Y-20614D01*
X50344Y-20623D01*
X50335Y-20629D01*
X50316Y-20634D01*
X48763Y-21412D01*
X48628Y-21356D01*
X48372Y-21356D01*
X48135Y-21453D01*
X48014Y-21574D01*
X47539Y-19907D01*
X48000Y-19907D01*
X48856Y-19907D01*
X48856Y-19943D01*
X48894Y-20035D01*
X48964Y-20105D01*
X49056Y-20143D01*
X49155Y-20143D01*
X49943Y-20143D01*
X50000Y-20120D01*
X50056Y-20143D01*
X50387Y-20143D01*
X50450Y-20081D01*
X50450Y-19550D01*
X50442Y-19550D01*
X50442Y-19450D01*
X50450Y-19450D01*
X50450Y-19442D01*
X50550Y-19442D01*
X50550Y-19450D01*
X51081Y-19450D01*
X51143Y-19387D01*
X51143Y-19155D01*
X51143Y-19056D01*
X51120Y-19000D01*
X51143Y-18943D01*
X51143Y-18907D01*
X51206Y-18907D01*
X51592Y-20069D01*
X51592Y-20331D01*
X51592Y-20331D01*
G37*
G54D18*
X51592Y-20331D02*
X51331Y-20592D01*
X51143Y-20592D01*
X51143Y-19844D01*
X51143Y-19612D01*
X51081Y-19550D01*
X50550Y-19550D01*
X50550Y-20081D01*
X50612Y-20143D01*
X50943Y-20143D01*
X51035Y-20105D01*
X51105Y-20035D01*
X51143Y-19943D01*
X51143Y-19844D01*
X51143Y-20592D01*
X50500Y-20592D01*
X50489Y-20594D01*
X50470Y-20592D01*
X50389Y-20614D01*
X50344Y-20623D01*
X50335Y-20629D01*
X50316Y-20634D01*
X48763Y-21412D01*
X48628Y-21356D01*
X48372Y-21356D01*
X48135Y-21453D01*
X48014Y-21574D01*
X47539Y-19907D01*
X48000Y-19907D01*
X48856Y-19907D01*
X48856Y-19943D01*
X48894Y-20035D01*
X48964Y-20105D01*
X49056Y-20143D01*
X49155Y-20143D01*
X49943Y-20143D01*
X50000Y-20120D01*
X50056Y-20143D01*
X50387Y-20143D01*
X50450Y-20081D01*
X50450Y-19550D01*
X50442Y-19550D01*
X50442Y-19450D01*
X50450Y-19450D01*
X50450Y-19442D01*
X50550Y-19442D01*
X50550Y-19450D01*
X51081Y-19450D01*
X51143Y-19387D01*
X51143Y-19155D01*
X51143Y-19056D01*
X51120Y-19000D01*
X51143Y-18943D01*
X51143Y-18907D01*
X51206Y-18907D01*
X51592Y-20069D01*
X51592Y-20331D01*
G54D10*
G36*
X54748Y-16907D02*
X54635Y-16953D01*
X54454Y-17134D01*
X54356Y-17371D01*
X54356Y-17627D01*
X54452Y-17859D01*
X54443Y-17856D01*
X54112Y-17856D01*
X54050Y-17918D01*
X54050Y-18450D01*
X54057Y-18450D01*
X54057Y-18550D01*
X54050Y-18550D01*
X54050Y-18557D01*
X53950Y-18557D01*
X53950Y-18550D01*
X53942Y-18550D01*
X53942Y-18450D01*
X53950Y-18450D01*
X53950Y-17918D01*
X53887Y-17856D01*
X53556Y-17856D01*
X53464Y-17894D01*
X53394Y-17964D01*
X53356Y-18056D01*
X53356Y-18155D01*
X53356Y-18313D01*
X53335Y-18283D01*
X53307Y-18233D01*
X53297Y-18225D01*
X53288Y-18211D01*
X53226Y-18170D01*
X53182Y-18136D01*
X52182Y-17635D01*
X52168Y-17631D01*
X52155Y-17623D01*
X52092Y-17610D01*
X52029Y-17593D01*
X52014Y-17595D01*
X52000Y-17592D01*
X51500Y-17592D01*
X51487Y-17595D01*
X51470Y-17592D01*
X51398Y-17612D01*
X51344Y-17623D01*
X51333Y-17630D01*
X51317Y-17635D01*
X50875Y-17856D01*
X50844Y-17856D01*
X50056Y-17856D01*
X50000Y-17879D01*
X49943Y-17856D01*
X49612Y-17856D01*
X49550Y-17918D01*
X49550Y-18450D01*
X49557Y-18450D01*
X49557Y-18550D01*
X49550Y-18550D01*
X49550Y-18557D01*
X49450Y-18557D01*
X49450Y-18550D01*
X48918Y-18550D01*
X48856Y-18612D01*
X48856Y-18844D01*
X48856Y-18943D01*
X48879Y-19000D01*
X48856Y-19056D01*
X48856Y-19092D01*
X48000Y-19092D01*
X47000Y-19092D01*
X46944Y-19103D01*
X46888Y-19108D01*
X46867Y-19118D01*
X46844Y-19123D01*
X46797Y-19154D01*
X46746Y-19180D01*
X46731Y-19198D01*
X46711Y-19211D01*
X46680Y-19258D01*
X46643Y-19301D01*
X46636Y-19324D01*
X46628Y-19336D01*
X46546Y-19135D01*
X46407Y-18997D01*
X46407Y-17502D01*
X46545Y-17365D01*
X46643Y-17128D01*
X46643Y-16872D01*
X46546Y-16635D01*
X46365Y-16454D01*
X46251Y-16407D01*
X46999Y-16407D01*
X47000Y-16407D01*
X47000Y-16407D01*
X47155Y-16376D01*
X47288Y-16288D01*
X47932Y-15643D01*
X48443Y-15643D01*
X48535Y-15605D01*
X48605Y-15535D01*
X48643Y-15443D01*
X48643Y-15407D01*
X50997Y-15407D01*
X51134Y-15545D01*
X51362Y-15640D01*
X51061Y-15597D01*
X51056Y-15595D01*
X51024Y-15597D01*
X51000Y-15592D01*
X50957Y-15600D01*
X50897Y-15604D01*
X50867Y-15618D01*
X50844Y-15623D01*
X50809Y-15646D01*
X50754Y-15673D01*
X48755Y-17174D01*
X48735Y-17195D01*
X48711Y-17211D01*
X48531Y-17392D01*
X48443Y-17356D01*
X48344Y-17356D01*
X47556Y-17356D01*
X47464Y-17394D01*
X47394Y-17464D01*
X47356Y-17556D01*
X47356Y-17655D01*
X47356Y-18443D01*
X47394Y-18535D01*
X47464Y-18605D01*
X47556Y-18643D01*
X47655Y-18643D01*
X48443Y-18643D01*
X48535Y-18605D01*
X48605Y-18535D01*
X48643Y-18443D01*
X48643Y-18378D01*
X48655Y-18376D01*
X48788Y-18288D01*
X48856Y-18219D01*
X48856Y-18387D01*
X48918Y-18450D01*
X49450Y-18450D01*
X49450Y-17918D01*
X49387Y-17856D01*
X49219Y-17856D01*
X49267Y-17808D01*
X51107Y-16426D01*
X54442Y-16901D01*
X54464Y-16900D01*
X54500Y-16907D01*
X54748Y-16907D01*
X54748Y-16907D01*
G37*
G54D18*
X54748Y-16907D02*
X54635Y-16953D01*
X54454Y-17134D01*
X54356Y-17371D01*
X54356Y-17627D01*
X54452Y-17859D01*
X54443Y-17856D01*
X54112Y-17856D01*
X54050Y-17918D01*
X54050Y-18450D01*
X54057Y-18450D01*
X54057Y-18550D01*
X54050Y-18550D01*
X54050Y-18557D01*
X53950Y-18557D01*
X53950Y-18550D01*
X53942Y-18550D01*
X53942Y-18450D01*
X53950Y-18450D01*
X53950Y-17918D01*
X53887Y-17856D01*
X53556Y-17856D01*
X53464Y-17894D01*
X53394Y-17964D01*
X53356Y-18056D01*
X53356Y-18155D01*
X53356Y-18313D01*
X53335Y-18283D01*
X53307Y-18233D01*
X53297Y-18225D01*
X53288Y-18211D01*
X53226Y-18170D01*
X53182Y-18136D01*
X52182Y-17635D01*
X52168Y-17631D01*
X52155Y-17623D01*
X52092Y-17610D01*
X52029Y-17593D01*
X52014Y-17595D01*
X52000Y-17592D01*
X51500Y-17592D01*
X51487Y-17595D01*
X51470Y-17592D01*
X51398Y-17612D01*
X51344Y-17623D01*
X51333Y-17630D01*
X51317Y-17635D01*
X50875Y-17856D01*
X50844Y-17856D01*
X50056Y-17856D01*
X50000Y-17879D01*
X49943Y-17856D01*
X49612Y-17856D01*
X49550Y-17918D01*
X49550Y-18450D01*
X49557Y-18450D01*
X49557Y-18550D01*
X49550Y-18550D01*
X49550Y-18557D01*
X49450Y-18557D01*
X49450Y-18550D01*
X48918Y-18550D01*
X48856Y-18612D01*
X48856Y-18844D01*
X48856Y-18943D01*
X48879Y-19000D01*
X48856Y-19056D01*
X48856Y-19092D01*
X48000Y-19092D01*
X47000Y-19092D01*
X46944Y-19103D01*
X46888Y-19108D01*
X46867Y-19118D01*
X46844Y-19123D01*
X46797Y-19154D01*
X46746Y-19180D01*
X46731Y-19198D01*
X46711Y-19211D01*
X46680Y-19258D01*
X46643Y-19301D01*
X46636Y-19324D01*
X46628Y-19336D01*
X46546Y-19135D01*
X46407Y-18997D01*
X46407Y-17502D01*
X46545Y-17365D01*
X46643Y-17128D01*
X46643Y-16872D01*
X46546Y-16635D01*
X46365Y-16454D01*
X46251Y-16407D01*
X46999Y-16407D01*
X47000Y-16407D01*
X47000Y-16407D01*
X47155Y-16376D01*
X47288Y-16288D01*
X47932Y-15643D01*
X48443Y-15643D01*
X48535Y-15605D01*
X48605Y-15535D01*
X48643Y-15443D01*
X48643Y-15407D01*
X50997Y-15407D01*
X51134Y-15545D01*
X51362Y-15640D01*
X51061Y-15597D01*
X51056Y-15595D01*
X51024Y-15597D01*
X51000Y-15592D01*
X50957Y-15600D01*
X50897Y-15604D01*
X50867Y-15618D01*
X50844Y-15623D01*
X50809Y-15646D01*
X50754Y-15673D01*
X48755Y-17174D01*
X48735Y-17195D01*
X48711Y-17211D01*
X48531Y-17392D01*
X48443Y-17356D01*
X48344Y-17356D01*
X47556Y-17356D01*
X47464Y-17394D01*
X47394Y-17464D01*
X47356Y-17556D01*
X47356Y-17655D01*
X47356Y-18443D01*
X47394Y-18535D01*
X47464Y-18605D01*
X47556Y-18643D01*
X47655Y-18643D01*
X48443Y-18643D01*
X48535Y-18605D01*
X48605Y-18535D01*
X48643Y-18443D01*
X48643Y-18378D01*
X48655Y-18376D01*
X48788Y-18288D01*
X48856Y-18219D01*
X48856Y-18387D01*
X48918Y-18450D01*
X49450Y-18450D01*
X49450Y-17918D01*
X49387Y-17856D01*
X49219Y-17856D01*
X49267Y-17808D01*
X51107Y-16426D01*
X54442Y-16901D01*
X54464Y-16900D01*
X54500Y-16907D01*
X54748Y-16907D01*
G54D10*
G36*
X59512Y-16766D02*
X59240Y-17856D01*
X59056Y-17856D01*
X59000Y-17879D01*
X58943Y-17856D01*
X58612Y-17856D01*
X58550Y-17918D01*
X58550Y-18450D01*
X58557Y-18450D01*
X58557Y-18550D01*
X58550Y-18550D01*
X58550Y-18557D01*
X58450Y-18557D01*
X58450Y-18550D01*
X58450Y-18450D01*
X58450Y-17918D01*
X58387Y-17856D01*
X58056Y-17856D01*
X57964Y-17894D01*
X57894Y-17964D01*
X57856Y-18056D01*
X57856Y-18155D01*
X57856Y-18387D01*
X57918Y-18450D01*
X58450Y-18450D01*
X58450Y-18550D01*
X57918Y-18550D01*
X57856Y-18612D01*
X57856Y-18844D01*
X57856Y-18943D01*
X57879Y-19000D01*
X57856Y-19056D01*
X57856Y-19092D01*
X57407Y-19092D01*
X57407Y-17793D01*
X58143Y-17549D01*
X58371Y-17643D01*
X58627Y-17643D01*
X58864Y-17546D01*
X59045Y-17365D01*
X59143Y-17128D01*
X59143Y-16872D01*
X59046Y-16635D01*
X59008Y-16598D01*
X59512Y-16766D01*
X59512Y-16766D01*
G37*
G54D18*
X59512Y-16766D02*
X59240Y-17856D01*
X59056Y-17856D01*
X59000Y-17879D01*
X58943Y-17856D01*
X58612Y-17856D01*
X58550Y-17918D01*
X58550Y-18450D01*
X58557Y-18450D01*
X58557Y-18550D01*
X58550Y-18550D01*
X58550Y-18557D01*
X58450Y-18557D01*
X58450Y-18550D01*
X58450Y-18450D01*
X58450Y-17918D01*
X58387Y-17856D01*
X58056Y-17856D01*
X57964Y-17894D01*
X57894Y-17964D01*
X57856Y-18056D01*
X57856Y-18155D01*
X57856Y-18387D01*
X57918Y-18450D01*
X58450Y-18450D01*
X58450Y-18550D01*
X57918Y-18550D01*
X57856Y-18612D01*
X57856Y-18844D01*
X57856Y-18943D01*
X57879Y-19000D01*
X57856Y-19056D01*
X57856Y-19092D01*
X57407Y-19092D01*
X57407Y-17793D01*
X58143Y-17549D01*
X58371Y-17643D01*
X58627Y-17643D01*
X58864Y-17546D01*
X59045Y-17365D01*
X59143Y-17128D01*
X59143Y-16872D01*
X59046Y-16635D01*
X59008Y-16598D01*
X59512Y-16766D01*
G54D10*
G36*
X67592Y-25182D02*
X66643Y-25419D01*
X66643Y-24844D01*
X66643Y-24612D01*
X66581Y-24550D01*
X66050Y-24550D01*
X66050Y-25081D01*
X66112Y-25143D01*
X66443Y-25143D01*
X66535Y-25105D01*
X66605Y-25035D01*
X66643Y-24943D01*
X66643Y-24844D01*
X66643Y-25419D01*
X66125Y-25548D01*
X65836Y-25260D01*
X65778Y-25143D01*
X65887Y-25143D01*
X65950Y-25081D01*
X65950Y-24550D01*
X65942Y-24550D01*
X65942Y-24450D01*
X65950Y-24450D01*
X65950Y-24442D01*
X66050Y-24442D01*
X66050Y-24450D01*
X66581Y-24450D01*
X66643Y-24387D01*
X66643Y-24155D01*
X66643Y-24056D01*
X66620Y-24000D01*
X66643Y-23943D01*
X66643Y-23844D01*
X66643Y-23056D01*
X66605Y-22964D01*
X66535Y-22894D01*
X66443Y-22856D01*
X66407Y-22856D01*
X66407Y-22500D01*
X66407Y-22500D01*
X66407Y-22500D01*
X66376Y-22344D01*
X66376Y-22344D01*
X66341Y-22291D01*
X66288Y-22211D01*
X66288Y-22211D01*
X65788Y-21711D01*
X65655Y-21623D01*
X65500Y-21592D01*
X65499Y-21592D01*
X64502Y-21592D01*
X64410Y-21499D01*
X64545Y-21365D01*
X64637Y-21143D01*
X64655Y-21143D01*
X65443Y-21143D01*
X65535Y-21105D01*
X65605Y-21035D01*
X65643Y-20943D01*
X65643Y-20844D01*
X65643Y-20633D01*
X66182Y-20363D01*
X66204Y-20346D01*
X66099Y-20927D01*
X66099Y-20966D01*
X66092Y-21004D01*
X66101Y-21045D01*
X66101Y-21086D01*
X66117Y-21122D01*
X66125Y-21160D01*
X67592Y-24583D01*
X67592Y-25182D01*
X67592Y-25182D01*
G37*
G54D18*
X67592Y-25182D02*
X66643Y-25419D01*
X66643Y-24844D01*
X66643Y-24612D01*
X66581Y-24550D01*
X66050Y-24550D01*
X66050Y-25081D01*
X66112Y-25143D01*
X66443Y-25143D01*
X66535Y-25105D01*
X66605Y-25035D01*
X66643Y-24943D01*
X66643Y-24844D01*
X66643Y-25419D01*
X66125Y-25548D01*
X65836Y-25260D01*
X65778Y-25143D01*
X65887Y-25143D01*
X65950Y-25081D01*
X65950Y-24550D01*
X65942Y-24550D01*
X65942Y-24450D01*
X65950Y-24450D01*
X65950Y-24442D01*
X66050Y-24442D01*
X66050Y-24450D01*
X66581Y-24450D01*
X66643Y-24387D01*
X66643Y-24155D01*
X66643Y-24056D01*
X66620Y-24000D01*
X66643Y-23943D01*
X66643Y-23844D01*
X66643Y-23056D01*
X66605Y-22964D01*
X66535Y-22894D01*
X66443Y-22856D01*
X66407Y-22856D01*
X66407Y-22500D01*
X66407Y-22500D01*
X66407Y-22500D01*
X66376Y-22344D01*
X66376Y-22344D01*
X66341Y-22291D01*
X66288Y-22211D01*
X66288Y-22211D01*
X65788Y-21711D01*
X65655Y-21623D01*
X65500Y-21592D01*
X65499Y-21592D01*
X64502Y-21592D01*
X64410Y-21499D01*
X64545Y-21365D01*
X64637Y-21143D01*
X64655Y-21143D01*
X65443Y-21143D01*
X65535Y-21105D01*
X65605Y-21035D01*
X65643Y-20943D01*
X65643Y-20844D01*
X65643Y-20633D01*
X66182Y-20363D01*
X66204Y-20346D01*
X66099Y-20927D01*
X66099Y-20966D01*
X66092Y-21004D01*
X66101Y-21045D01*
X66101Y-21086D01*
X66117Y-21122D01*
X66125Y-21160D01*
X67592Y-24583D01*
X67592Y-25182D01*
G54D10*
G36*
X69730Y-29230D02*
X43050Y-29230D01*
X43050Y-27792D01*
X42890Y-27406D01*
X42595Y-27110D01*
X42209Y-26950D01*
X41792Y-26949D01*
X41406Y-27109D01*
X41110Y-27404D01*
X40950Y-27790D01*
X40949Y-28207D01*
X41109Y-28594D01*
X41404Y-28889D01*
X41790Y-29049D01*
X42207Y-29050D01*
X42594Y-28890D01*
X42889Y-28595D01*
X43049Y-28209D01*
X43050Y-27792D01*
X43050Y-29230D01*
X38769Y-29230D01*
X38769Y-13769D01*
X62654Y-13769D01*
X62211Y-14211D01*
X62189Y-14245D01*
X62159Y-14276D01*
X62144Y-14313D01*
X62123Y-14344D01*
X62115Y-14383D01*
X62099Y-14423D01*
X61655Y-16751D01*
X61427Y-16856D01*
X61407Y-16856D01*
X61407Y-16000D01*
X61396Y-15944D01*
X61394Y-15903D01*
X61383Y-15880D01*
X61376Y-15844D01*
X61343Y-15794D01*
X61326Y-15759D01*
X61309Y-15743D01*
X61288Y-15711D01*
X61236Y-15677D01*
X61208Y-15652D01*
X60266Y-15086D01*
X60364Y-15046D01*
X60388Y-15021D01*
X60394Y-15035D01*
X60464Y-15105D01*
X60556Y-15143D01*
X60655Y-15143D01*
X61443Y-15143D01*
X61535Y-15105D01*
X61605Y-15035D01*
X61643Y-14943D01*
X61643Y-14844D01*
X61643Y-14056D01*
X61605Y-13964D01*
X61535Y-13894D01*
X61443Y-13856D01*
X61344Y-13856D01*
X60556Y-13856D01*
X60464Y-13894D01*
X60394Y-13964D01*
X60388Y-13978D01*
X60365Y-13954D01*
X60128Y-13856D01*
X59872Y-13856D01*
X59635Y-13953D01*
X59454Y-14134D01*
X59356Y-14371D01*
X59356Y-14539D01*
X58709Y-14150D01*
X58681Y-14140D01*
X58655Y-14123D01*
X58607Y-14113D01*
X58560Y-14096D01*
X58529Y-14098D01*
X58500Y-14092D01*
X57000Y-14092D01*
X55002Y-14092D01*
X54865Y-13954D01*
X54628Y-13856D01*
X54372Y-13856D01*
X54135Y-13953D01*
X53954Y-14134D01*
X53856Y-14371D01*
X53856Y-14627D01*
X53953Y-14864D01*
X54041Y-14951D01*
X53863Y-14960D01*
X53714Y-15022D01*
X53688Y-15117D01*
X54000Y-15429D01*
X54005Y-15423D01*
X54076Y-15494D01*
X54070Y-15500D01*
X54382Y-15811D01*
X54477Y-15785D01*
X54500Y-15719D01*
X54537Y-15808D01*
X54690Y-15961D01*
X54891Y-16045D01*
X55107Y-16045D01*
X55308Y-15962D01*
X55461Y-15809D01*
X55499Y-15717D01*
X55537Y-15808D01*
X55690Y-15961D01*
X55891Y-16045D01*
X56107Y-16045D01*
X56308Y-15962D01*
X56461Y-15809D01*
X56545Y-15608D01*
X56545Y-15392D01*
X56462Y-15191D01*
X56309Y-15038D01*
X56108Y-14954D01*
X55892Y-14954D01*
X55691Y-15037D01*
X55538Y-15190D01*
X55500Y-15282D01*
X55462Y-15191D01*
X55309Y-15038D01*
X55108Y-14954D01*
X54955Y-14954D01*
X55002Y-14907D01*
X57000Y-14907D01*
X58386Y-14907D01*
X60592Y-16232D01*
X60592Y-16856D01*
X60556Y-16856D01*
X60464Y-16894D01*
X60394Y-16964D01*
X60356Y-17056D01*
X60356Y-17155D01*
X60356Y-17943D01*
X60394Y-18035D01*
X60464Y-18105D01*
X60556Y-18143D01*
X60655Y-18143D01*
X61067Y-18143D01*
X61503Y-18579D01*
X60143Y-18240D01*
X60143Y-18056D01*
X60105Y-17964D01*
X60063Y-17922D01*
X60386Y-16628D01*
X60386Y-16627D01*
X60387Y-16626D01*
X60394Y-16598D01*
X60396Y-16553D01*
X60406Y-16469D01*
X60401Y-16449D01*
X60401Y-16439D01*
X60387Y-16399D01*
X60364Y-16316D01*
X60351Y-16299D01*
X60348Y-16289D01*
X60318Y-16257D01*
X60267Y-16191D01*
X60248Y-16180D01*
X60241Y-16172D01*
X60198Y-16151D01*
X60128Y-16112D01*
X58628Y-15613D01*
X58563Y-15605D01*
X58500Y-15592D01*
X58000Y-15592D01*
X57000Y-15592D01*
X57000Y-15592D01*
X56844Y-15623D01*
X56791Y-15658D01*
X56711Y-15711D01*
X56711Y-15711D01*
X56331Y-16092D01*
X55500Y-16092D01*
X54542Y-16092D01*
X54143Y-16035D01*
X54285Y-15977D01*
X54311Y-15882D01*
X54000Y-15570D01*
X53688Y-15882D01*
X53714Y-15974D01*
X53348Y-15922D01*
X53461Y-15809D01*
X53497Y-15724D01*
X53522Y-15785D01*
X53617Y-15811D01*
X53929Y-15500D01*
X53617Y-15188D01*
X53522Y-15214D01*
X53499Y-15280D01*
X53462Y-15191D01*
X53309Y-15038D01*
X53108Y-14954D01*
X52892Y-14954D01*
X52691Y-15037D01*
X52538Y-15190D01*
X52454Y-15391D01*
X52454Y-15607D01*
X52536Y-15807D01*
X51387Y-15643D01*
X51627Y-15643D01*
X51864Y-15546D01*
X52045Y-15365D01*
X52143Y-15128D01*
X52143Y-14872D01*
X52046Y-14635D01*
X51865Y-14454D01*
X51628Y-14356D01*
X51372Y-14356D01*
X51135Y-14453D01*
X50997Y-14592D01*
X48643Y-14592D01*
X48643Y-14556D01*
X48605Y-14464D01*
X48535Y-14394D01*
X48443Y-14356D01*
X48344Y-14356D01*
X47556Y-14356D01*
X47464Y-14394D01*
X47394Y-14464D01*
X47356Y-14556D01*
X47356Y-14655D01*
X47356Y-15067D01*
X46831Y-15592D01*
X45751Y-15592D01*
X45864Y-15546D01*
X46045Y-15365D01*
X46143Y-15128D01*
X46143Y-14872D01*
X46046Y-14635D01*
X45865Y-14454D01*
X45628Y-14356D01*
X45372Y-14356D01*
X45135Y-14453D01*
X45111Y-14478D01*
X45105Y-14464D01*
X45035Y-14394D01*
X44943Y-14356D01*
X44844Y-14356D01*
X44056Y-14356D01*
X43964Y-14394D01*
X43894Y-14464D01*
X43856Y-14556D01*
X43856Y-14655D01*
X43856Y-15443D01*
X43894Y-15535D01*
X43964Y-15605D01*
X44056Y-15643D01*
X44155Y-15643D01*
X44943Y-15643D01*
X45035Y-15605D01*
X45105Y-15535D01*
X45111Y-15521D01*
X45134Y-15545D01*
X45336Y-15628D01*
X45291Y-15658D01*
X45211Y-15711D01*
X45211Y-15711D01*
X44211Y-16711D01*
X44123Y-16844D01*
X44092Y-17000D01*
X44092Y-17000D01*
X44092Y-17356D01*
X44056Y-17356D01*
X43964Y-17394D01*
X43894Y-17464D01*
X43856Y-17556D01*
X43856Y-17655D01*
X43856Y-17865D01*
X43643Y-17971D01*
X43643Y-14872D01*
X43546Y-14635D01*
X43365Y-14454D01*
X43128Y-14356D01*
X42872Y-14356D01*
X42635Y-14453D01*
X42497Y-14592D01*
X41143Y-14592D01*
X41143Y-14556D01*
X41105Y-14464D01*
X41035Y-14394D01*
X40943Y-14356D01*
X40844Y-14356D01*
X40056Y-14356D01*
X39964Y-14394D01*
X39894Y-14464D01*
X39856Y-14556D01*
X39856Y-14655D01*
X39856Y-15443D01*
X39894Y-15535D01*
X39964Y-15605D01*
X40056Y-15643D01*
X40155Y-15643D01*
X40943Y-15643D01*
X41035Y-15605D01*
X41105Y-15535D01*
X41143Y-15443D01*
X41143Y-15407D01*
X42497Y-15407D01*
X42634Y-15545D01*
X42871Y-15643D01*
X43127Y-15643D01*
X43364Y-15546D01*
X43545Y-15365D01*
X43643Y-15128D01*
X43643Y-14872D01*
X43643Y-17971D01*
X43050Y-18268D01*
X43050Y-16292D01*
X42890Y-15906D01*
X42595Y-15610D01*
X42209Y-15450D01*
X41792Y-15449D01*
X41406Y-15609D01*
X41110Y-15904D01*
X40950Y-16290D01*
X40949Y-16707D01*
X41109Y-17094D01*
X41404Y-17389D01*
X41790Y-17549D01*
X42207Y-17550D01*
X42594Y-17390D01*
X42889Y-17095D01*
X43049Y-16709D01*
X43050Y-16292D01*
X43050Y-18268D01*
X42498Y-18545D01*
X41143Y-17866D01*
X41143Y-17556D01*
X41105Y-17464D01*
X41035Y-17394D01*
X40943Y-17356D01*
X40844Y-17356D01*
X40056Y-17356D01*
X39964Y-17394D01*
X39894Y-17464D01*
X39856Y-17556D01*
X39856Y-17655D01*
X39856Y-18443D01*
X39894Y-18535D01*
X39964Y-18605D01*
X40056Y-18643D01*
X40155Y-18643D01*
X40875Y-18643D01*
X42316Y-19365D01*
X42350Y-19374D01*
X42371Y-19386D01*
X42412Y-19391D01*
X42470Y-19407D01*
X42504Y-19403D01*
X42529Y-19406D01*
X42570Y-19395D01*
X42628Y-19387D01*
X42657Y-19371D01*
X42682Y-19364D01*
X43889Y-18760D01*
X43615Y-19856D01*
X43556Y-19856D01*
X43464Y-19894D01*
X43394Y-19964D01*
X43356Y-20056D01*
X43356Y-20155D01*
X43356Y-20943D01*
X43394Y-21035D01*
X43464Y-21105D01*
X43556Y-21143D01*
X43655Y-21143D01*
X44067Y-21143D01*
X44696Y-21772D01*
X44830Y-21940D01*
X44628Y-21856D01*
X44372Y-21856D01*
X44183Y-21934D01*
X42228Y-21152D01*
X41643Y-20567D01*
X41643Y-20056D01*
X41605Y-19964D01*
X41535Y-19894D01*
X41443Y-19856D01*
X41344Y-19856D01*
X40556Y-19856D01*
X40464Y-19894D01*
X40394Y-19964D01*
X40356Y-20056D01*
X40356Y-20155D01*
X40356Y-20943D01*
X40394Y-21035D01*
X40464Y-21105D01*
X40556Y-21143D01*
X40655Y-21143D01*
X41067Y-21143D01*
X41711Y-21788D01*
X41713Y-21789D01*
X41715Y-21791D01*
X41779Y-21833D01*
X41844Y-21876D01*
X41846Y-21876D01*
X41848Y-21878D01*
X43882Y-22691D01*
X43953Y-22864D01*
X44134Y-23045D01*
X44371Y-23143D01*
X44627Y-23143D01*
X44864Y-23046D01*
X45045Y-22865D01*
X45143Y-22628D01*
X45143Y-22372D01*
X45108Y-22287D01*
X46356Y-23844D01*
X46356Y-24443D01*
X46394Y-24535D01*
X46464Y-24605D01*
X46556Y-24643D01*
X46655Y-24643D01*
X47375Y-24643D01*
X47817Y-24864D01*
X47820Y-24865D01*
X49360Y-25636D01*
X49453Y-25864D01*
X49634Y-26045D01*
X49871Y-26143D01*
X50127Y-26143D01*
X50364Y-26046D01*
X50545Y-25865D01*
X50643Y-25628D01*
X50643Y-25372D01*
X50546Y-25135D01*
X50365Y-24954D01*
X50128Y-24856D01*
X49872Y-24856D01*
X49734Y-24913D01*
X48182Y-24135D01*
X48179Y-24134D01*
X47643Y-23866D01*
X47643Y-23556D01*
X47605Y-23464D01*
X47535Y-23394D01*
X47443Y-23356D01*
X47344Y-23356D01*
X47009Y-23356D01*
X45318Y-21245D01*
X45300Y-21230D01*
X45288Y-21211D01*
X44643Y-20567D01*
X44643Y-20056D01*
X44605Y-19964D01*
X44535Y-19894D01*
X44454Y-19860D01*
X44758Y-18643D01*
X44943Y-18643D01*
X45035Y-18605D01*
X45105Y-18535D01*
X45143Y-18443D01*
X45143Y-18344D01*
X45143Y-17556D01*
X45105Y-17464D01*
X45035Y-17394D01*
X44943Y-17356D01*
X44907Y-17356D01*
X44907Y-17168D01*
X45668Y-16407D01*
X45748Y-16407D01*
X45635Y-16453D01*
X45454Y-16634D01*
X45356Y-16871D01*
X45356Y-17127D01*
X45453Y-17364D01*
X45592Y-17502D01*
X45592Y-18997D01*
X45454Y-19134D01*
X45356Y-19371D01*
X45356Y-19627D01*
X45453Y-19864D01*
X45634Y-20045D01*
X45871Y-20143D01*
X46127Y-20143D01*
X46364Y-20046D01*
X46545Y-19865D01*
X46625Y-19672D01*
X47605Y-23112D01*
X47613Y-23127D01*
X47613Y-23128D01*
X47616Y-23133D01*
X47677Y-23253D01*
X47691Y-23265D01*
X47692Y-23266D01*
X47704Y-23276D01*
X47799Y-23356D01*
X47814Y-23361D01*
X47817Y-23364D01*
X48817Y-23864D01*
X48820Y-23865D01*
X49356Y-24134D01*
X49356Y-24443D01*
X49394Y-24535D01*
X49464Y-24605D01*
X49556Y-24643D01*
X49655Y-24643D01*
X50443Y-24643D01*
X50535Y-24605D01*
X50605Y-24535D01*
X50643Y-24443D01*
X50643Y-24344D01*
X50643Y-23556D01*
X50605Y-23464D01*
X50535Y-23394D01*
X50443Y-23356D01*
X50344Y-23356D01*
X49622Y-23356D01*
X49182Y-23135D01*
X49179Y-23134D01*
X48339Y-22714D01*
X48312Y-22618D01*
X48371Y-22643D01*
X48627Y-22643D01*
X48864Y-22546D01*
X49045Y-22365D01*
X49141Y-22134D01*
X50593Y-21407D01*
X51499Y-21407D01*
X51500Y-21407D01*
X51500Y-21407D01*
X51655Y-21376D01*
X51788Y-21288D01*
X52288Y-20788D01*
X52288Y-20788D01*
X52288Y-20788D01*
X52341Y-20708D01*
X52376Y-20655D01*
X52376Y-20655D01*
X52407Y-20500D01*
X52407Y-20500D01*
X52407Y-20499D01*
X52407Y-20000D01*
X52392Y-19923D01*
X52385Y-19871D01*
X51898Y-18407D01*
X51903Y-18407D01*
X52592Y-18752D01*
X52592Y-20427D01*
X51643Y-23279D01*
X51211Y-23711D01*
X51123Y-23844D01*
X51092Y-24000D01*
X51092Y-24000D01*
X51092Y-25405D01*
X50865Y-25859D01*
X50635Y-25953D01*
X50454Y-26134D01*
X50356Y-26371D01*
X50356Y-26627D01*
X50453Y-26864D01*
X50634Y-27045D01*
X50871Y-27143D01*
X51127Y-27143D01*
X51364Y-27046D01*
X51545Y-26865D01*
X51643Y-26628D01*
X51643Y-26372D01*
X51587Y-26236D01*
X51864Y-25682D01*
X51869Y-25666D01*
X51876Y-25655D01*
X51887Y-25601D01*
X51907Y-25529D01*
X51904Y-25512D01*
X51907Y-25500D01*
X51907Y-24168D01*
X52288Y-23788D01*
X52296Y-23775D01*
X52307Y-23766D01*
X52340Y-23710D01*
X52376Y-23655D01*
X52379Y-23641D01*
X52386Y-23628D01*
X53374Y-20658D01*
X53376Y-20655D01*
X53377Y-20648D01*
X53384Y-20628D01*
X53389Y-20589D01*
X53407Y-20500D01*
X53407Y-20048D01*
X53464Y-20105D01*
X53556Y-20143D01*
X53592Y-20143D01*
X53592Y-20497D01*
X53454Y-20634D01*
X53356Y-20871D01*
X53356Y-21127D01*
X53453Y-21364D01*
X53634Y-21545D01*
X53871Y-21643D01*
X54127Y-21643D01*
X54364Y-21546D01*
X54545Y-21365D01*
X54643Y-21128D01*
X54643Y-20872D01*
X54546Y-20635D01*
X54407Y-20497D01*
X54407Y-20143D01*
X54443Y-20143D01*
X54500Y-20120D01*
X54556Y-20143D01*
X54887Y-20143D01*
X54950Y-20081D01*
X54950Y-19550D01*
X54942Y-19550D01*
X54942Y-19450D01*
X54950Y-19450D01*
X54950Y-19442D01*
X55050Y-19442D01*
X55050Y-19450D01*
X55057Y-19450D01*
X55057Y-19550D01*
X55050Y-19550D01*
X55050Y-20081D01*
X55112Y-20143D01*
X55443Y-20143D01*
X55535Y-20105D01*
X55592Y-20048D01*
X55592Y-20500D01*
X55600Y-20539D01*
X55600Y-20579D01*
X55615Y-20616D01*
X55623Y-20655D01*
X55645Y-20689D01*
X55660Y-20726D01*
X55689Y-20754D01*
X55711Y-20788D01*
X55745Y-20810D01*
X55773Y-20838D01*
X55810Y-20854D01*
X55844Y-20876D01*
X55883Y-20884D01*
X55920Y-20899D01*
X56154Y-20946D01*
X56135Y-20953D01*
X55954Y-21134D01*
X55882Y-21308D01*
X54316Y-21934D01*
X54128Y-21856D01*
X53872Y-21856D01*
X53635Y-21953D01*
X53454Y-22134D01*
X53356Y-22371D01*
X53356Y-22627D01*
X53453Y-22864D01*
X53634Y-23045D01*
X53871Y-23143D01*
X54127Y-23143D01*
X54364Y-23046D01*
X54545Y-22865D01*
X54617Y-22691D01*
X56183Y-22065D01*
X56371Y-22143D01*
X56627Y-22143D01*
X56864Y-22046D01*
X57045Y-21865D01*
X57143Y-21628D01*
X57143Y-21372D01*
X57046Y-21135D01*
X57031Y-21121D01*
X57927Y-21300D01*
X57953Y-21364D01*
X58134Y-21545D01*
X58371Y-21643D01*
X58627Y-21643D01*
X58864Y-21546D01*
X59045Y-21365D01*
X59143Y-21128D01*
X59143Y-20872D01*
X59046Y-20635D01*
X58865Y-20454D01*
X58628Y-20356D01*
X58372Y-20356D01*
X58135Y-20453D01*
X58088Y-20501D01*
X56407Y-20165D01*
X56407Y-18500D01*
X56376Y-18344D01*
X56288Y-18211D01*
X56155Y-18123D01*
X56000Y-18092D01*
X55643Y-18092D01*
X55643Y-18056D01*
X55605Y-17964D01*
X55535Y-17894D01*
X55521Y-17888D01*
X55545Y-17865D01*
X55643Y-17628D01*
X55643Y-17372D01*
X55546Y-17135D01*
X55365Y-16954D01*
X55251Y-16907D01*
X55500Y-16907D01*
X56499Y-16907D01*
X56500Y-16907D01*
X56500Y-16907D01*
X56655Y-16876D01*
X56788Y-16788D01*
X57168Y-16407D01*
X58000Y-16407D01*
X58248Y-16407D01*
X58135Y-16453D01*
X57954Y-16634D01*
X57897Y-16771D01*
X56871Y-17113D01*
X56858Y-17120D01*
X56844Y-17123D01*
X56789Y-17159D01*
X56733Y-17192D01*
X56724Y-17203D01*
X56711Y-17211D01*
X56675Y-17266D01*
X56635Y-17317D01*
X56631Y-17331D01*
X56623Y-17344D01*
X56610Y-17407D01*
X56593Y-17470D01*
X56595Y-17485D01*
X56592Y-17500D01*
X56592Y-19500D01*
X56623Y-19655D01*
X56711Y-19788D01*
X56844Y-19876D01*
X57000Y-19907D01*
X57856Y-19907D01*
X57856Y-19943D01*
X57894Y-20035D01*
X57964Y-20105D01*
X58056Y-20143D01*
X58155Y-20143D01*
X58943Y-20143D01*
X59000Y-20120D01*
X59056Y-20143D01*
X59387Y-20143D01*
X59450Y-20081D01*
X59450Y-19550D01*
X59442Y-19550D01*
X59442Y-19450D01*
X59450Y-19450D01*
X59450Y-19442D01*
X59550Y-19442D01*
X59550Y-19450D01*
X60081Y-19450D01*
X60143Y-19387D01*
X60143Y-19155D01*
X60143Y-19080D01*
X61092Y-19317D01*
X61092Y-22497D01*
X60954Y-22634D01*
X60856Y-22871D01*
X60856Y-23127D01*
X60953Y-23364D01*
X61134Y-23545D01*
X61371Y-23643D01*
X61627Y-23643D01*
X61864Y-23546D01*
X62045Y-23365D01*
X62143Y-23128D01*
X62143Y-22872D01*
X62046Y-22635D01*
X61907Y-22497D01*
X61907Y-19251D01*
X61953Y-19364D01*
X62134Y-19545D01*
X62371Y-19643D01*
X62627Y-19643D01*
X62864Y-19546D01*
X63045Y-19365D01*
X63092Y-19251D01*
X63092Y-19500D01*
X63092Y-19831D01*
X62711Y-20211D01*
X62623Y-20344D01*
X62592Y-20500D01*
X62592Y-20500D01*
X62592Y-22500D01*
X62592Y-22866D01*
X61296Y-24592D01*
X60907Y-24592D01*
X60907Y-23500D01*
X60899Y-23458D01*
X60899Y-23420D01*
X60497Y-21412D01*
X60545Y-21365D01*
X60643Y-21128D01*
X60643Y-20872D01*
X60546Y-20635D01*
X60365Y-20454D01*
X60143Y-20362D01*
X60143Y-19844D01*
X60143Y-19612D01*
X60081Y-19550D01*
X59550Y-19550D01*
X59550Y-20081D01*
X59612Y-20143D01*
X59943Y-20143D01*
X60035Y-20105D01*
X60105Y-20035D01*
X60143Y-19943D01*
X60143Y-19844D01*
X60143Y-20362D01*
X60128Y-20356D01*
X59872Y-20356D01*
X59635Y-20453D01*
X59454Y-20634D01*
X59356Y-20871D01*
X59356Y-21127D01*
X59453Y-21364D01*
X59634Y-21545D01*
X59698Y-21571D01*
X59956Y-22861D01*
X59943Y-22856D01*
X59844Y-22856D01*
X59056Y-22856D01*
X59047Y-22860D01*
X59143Y-22628D01*
X59143Y-22372D01*
X59046Y-22135D01*
X58865Y-21954D01*
X58628Y-21856D01*
X58372Y-21856D01*
X58135Y-21953D01*
X57954Y-22134D01*
X57856Y-22371D01*
X57856Y-22627D01*
X57912Y-22764D01*
X57748Y-23092D01*
X57500Y-23092D01*
X57143Y-23092D01*
X57143Y-23056D01*
X57105Y-22964D01*
X57035Y-22894D01*
X56943Y-22856D01*
X56844Y-22856D01*
X56056Y-22856D01*
X55964Y-22894D01*
X55894Y-22964D01*
X55856Y-23056D01*
X55856Y-23155D01*
X55856Y-23943D01*
X55894Y-24035D01*
X55964Y-24105D01*
X56056Y-24143D01*
X56121Y-24143D01*
X56123Y-24155D01*
X56131Y-24168D01*
X56135Y-24182D01*
X56175Y-24233D01*
X56211Y-24288D01*
X56224Y-24296D01*
X56233Y-24307D01*
X56289Y-24340D01*
X56344Y-24376D01*
X56358Y-24379D01*
X56371Y-24386D01*
X56551Y-24446D01*
X56363Y-24456D01*
X56212Y-24518D01*
X56184Y-24614D01*
X56500Y-24929D01*
X56815Y-24614D01*
X56789Y-24525D01*
X57778Y-24854D01*
X58092Y-25168D01*
X58092Y-25781D01*
X57054Y-26473D01*
X57054Y-25081D01*
X57043Y-24863D01*
X56981Y-24712D01*
X56885Y-24684D01*
X56570Y-25000D01*
X56885Y-25315D01*
X56981Y-25287D01*
X57054Y-25081D01*
X57054Y-26473D01*
X56876Y-26592D01*
X54502Y-26592D01*
X54460Y-26549D01*
X54608Y-26550D01*
X54811Y-26466D01*
X54965Y-26311D01*
X54999Y-26230D01*
X55033Y-26311D01*
X55188Y-26465D01*
X55390Y-26549D01*
X55608Y-26550D01*
X55811Y-26466D01*
X55965Y-26311D01*
X55999Y-26230D01*
X56033Y-26311D01*
X56188Y-26465D01*
X56390Y-26549D01*
X56608Y-26550D01*
X56811Y-26466D01*
X56965Y-26311D01*
X57049Y-26109D01*
X57050Y-25891D01*
X56966Y-25688D01*
X56811Y-25534D01*
X56736Y-25502D01*
X56787Y-25481D01*
X56815Y-25385D01*
X56500Y-25070D01*
X56184Y-25385D01*
X56212Y-25481D01*
X56267Y-25500D01*
X56188Y-25533D01*
X56034Y-25688D01*
X56000Y-25769D01*
X55966Y-25688D01*
X55811Y-25534D01*
X55730Y-25500D01*
X55811Y-25466D01*
X55965Y-25311D01*
X55997Y-25236D01*
X56018Y-25287D01*
X56114Y-25315D01*
X56429Y-25000D01*
X56114Y-24684D01*
X56018Y-24712D01*
X55999Y-24767D01*
X55966Y-24688D01*
X55811Y-24534D01*
X55609Y-24450D01*
X55391Y-24449D01*
X55188Y-24533D01*
X55034Y-24688D01*
X55000Y-24769D01*
X54966Y-24688D01*
X54811Y-24534D01*
X54609Y-24450D01*
X54391Y-24449D01*
X54188Y-24533D01*
X54034Y-24688D01*
X54000Y-24769D01*
X53966Y-24688D01*
X53811Y-24534D01*
X53609Y-24450D01*
X53391Y-24449D01*
X53188Y-24533D01*
X53034Y-24688D01*
X53000Y-24769D01*
X52966Y-24688D01*
X52811Y-24534D01*
X52609Y-24450D01*
X52391Y-24449D01*
X52188Y-24533D01*
X52034Y-24688D01*
X51950Y-24890D01*
X51949Y-25108D01*
X52033Y-25311D01*
X52172Y-25449D01*
X52150Y-25449D01*
X52058Y-25487D01*
X51988Y-25558D01*
X51950Y-25650D01*
X51949Y-25749D01*
X51949Y-26349D01*
X51987Y-26441D01*
X52058Y-26511D01*
X52150Y-26549D01*
X52249Y-26550D01*
X52849Y-26550D01*
X52941Y-26512D01*
X53011Y-26441D01*
X53049Y-26349D01*
X53049Y-26327D01*
X53188Y-26465D01*
X53390Y-26549D01*
X53539Y-26550D01*
X53454Y-26634D01*
X53356Y-26871D01*
X53356Y-27127D01*
X53453Y-27364D01*
X53634Y-27545D01*
X53871Y-27643D01*
X54127Y-27643D01*
X54364Y-27546D01*
X54502Y-27407D01*
X56248Y-27407D01*
X56135Y-27453D01*
X55954Y-27634D01*
X55856Y-27871D01*
X55856Y-28067D01*
X55831Y-28092D01*
X55500Y-28092D01*
X54500Y-28092D01*
X53500Y-28092D01*
X52000Y-28092D01*
X50594Y-28092D01*
X49848Y-27718D01*
X49395Y-25901D01*
X49382Y-25873D01*
X49376Y-25844D01*
X49348Y-25802D01*
X49327Y-25757D01*
X49305Y-25737D01*
X49288Y-25711D01*
X49246Y-25684D01*
X49209Y-25650D01*
X49181Y-25640D01*
X49155Y-25623D01*
X49107Y-25613D01*
X49060Y-25596D01*
X49029Y-25598D01*
X49000Y-25592D01*
X48000Y-25592D01*
X47000Y-25592D01*
X45253Y-25592D01*
X44365Y-23820D01*
X44364Y-23816D01*
X44267Y-23691D01*
X44128Y-23612D01*
X43143Y-23284D01*
X43143Y-23056D01*
X43105Y-22964D01*
X43035Y-22894D01*
X42943Y-22856D01*
X42844Y-22856D01*
X42056Y-22856D01*
X42000Y-22879D01*
X41943Y-22856D01*
X41612Y-22856D01*
X41550Y-22918D01*
X41550Y-23450D01*
X41557Y-23450D01*
X41557Y-23550D01*
X41550Y-23550D01*
X41550Y-23557D01*
X41450Y-23557D01*
X41450Y-23550D01*
X41450Y-23450D01*
X41450Y-22918D01*
X41387Y-22856D01*
X41056Y-22856D01*
X40964Y-22894D01*
X40894Y-22964D01*
X40856Y-23056D01*
X40856Y-23155D01*
X40856Y-23387D01*
X40918Y-23450D01*
X41450Y-23450D01*
X41450Y-23550D01*
X40918Y-23550D01*
X40856Y-23612D01*
X40856Y-23844D01*
X40856Y-23943D01*
X40879Y-24000D01*
X40856Y-24056D01*
X40856Y-24155D01*
X40856Y-24943D01*
X40894Y-25035D01*
X40964Y-25105D01*
X41056Y-25143D01*
X41092Y-25143D01*
X41092Y-25499D01*
X41092Y-25500D01*
X41123Y-25655D01*
X41211Y-25788D01*
X41711Y-26288D01*
X41711Y-26288D01*
X41791Y-26341D01*
X41844Y-26376D01*
X41844Y-26376D01*
X42000Y-26407D01*
X42000Y-26407D01*
X42000Y-26407D01*
X42331Y-26407D01*
X43211Y-27288D01*
X43211Y-27288D01*
X43291Y-27341D01*
X43344Y-27376D01*
X43344Y-27376D01*
X43500Y-27407D01*
X44000Y-27407D01*
X44500Y-27407D01*
X47497Y-27407D01*
X47634Y-27545D01*
X47871Y-27643D01*
X48127Y-27643D01*
X48364Y-27546D01*
X48545Y-27365D01*
X48643Y-27128D01*
X48643Y-26872D01*
X48546Y-26635D01*
X48365Y-26454D01*
X48251Y-26407D01*
X48681Y-26407D01*
X49103Y-28098D01*
X49111Y-28116D01*
X49113Y-28128D01*
X49136Y-28169D01*
X49171Y-28242D01*
X49185Y-28256D01*
X49192Y-28266D01*
X49231Y-28297D01*
X49288Y-28349D01*
X49306Y-28356D01*
X49317Y-28364D01*
X50317Y-28864D01*
X50333Y-28869D01*
X50344Y-28876D01*
X50398Y-28887D01*
X50470Y-28907D01*
X50487Y-28904D01*
X50500Y-28907D01*
X52000Y-28907D01*
X53500Y-28907D01*
X54500Y-28907D01*
X55500Y-28907D01*
X55999Y-28907D01*
X56000Y-28907D01*
X56000Y-28907D01*
X56155Y-28876D01*
X56288Y-28788D01*
X56432Y-28643D01*
X56627Y-28643D01*
X56864Y-28546D01*
X57045Y-28365D01*
X57143Y-28128D01*
X57143Y-27872D01*
X57046Y-27635D01*
X56865Y-27454D01*
X56751Y-27407D01*
X57000Y-27407D01*
X57039Y-27399D01*
X57079Y-27399D01*
X57116Y-27384D01*
X57155Y-27376D01*
X57189Y-27354D01*
X57226Y-27339D01*
X58725Y-26338D01*
X58753Y-26311D01*
X58788Y-26288D01*
X58811Y-26253D01*
X58838Y-26226D01*
X58853Y-26190D01*
X58876Y-26155D01*
X58884Y-26115D01*
X58899Y-26079D01*
X58899Y-26040D01*
X58907Y-26000D01*
X58907Y-25000D01*
X58907Y-25000D01*
X58907Y-25000D01*
X58876Y-24844D01*
X58876Y-24844D01*
X58841Y-24791D01*
X58788Y-24711D01*
X58788Y-24711D01*
X58288Y-24211D01*
X58277Y-24205D01*
X58267Y-24191D01*
X58199Y-24152D01*
X58155Y-24123D01*
X58144Y-24121D01*
X58128Y-24112D01*
X57512Y-23907D01*
X58000Y-23907D01*
X58063Y-23894D01*
X58128Y-23886D01*
X58141Y-23879D01*
X58155Y-23876D01*
X58210Y-23840D01*
X58266Y-23807D01*
X58275Y-23796D01*
X58288Y-23788D01*
X58324Y-23733D01*
X58364Y-23682D01*
X58635Y-23140D01*
X58859Y-23047D01*
X58856Y-23056D01*
X58856Y-23155D01*
X58856Y-23943D01*
X58894Y-24035D01*
X58964Y-24105D01*
X59056Y-24143D01*
X59155Y-24143D01*
X59943Y-24143D01*
X60035Y-24105D01*
X60105Y-24035D01*
X60143Y-23943D01*
X60143Y-23907D01*
X60500Y-23907D01*
X60539Y-23899D01*
X60579Y-23899D01*
X60616Y-23884D01*
X60655Y-23876D01*
X60689Y-23853D01*
X60726Y-23838D01*
X60753Y-23811D01*
X60788Y-23788D01*
X60811Y-23753D01*
X60838Y-23726D01*
X60853Y-23690D01*
X60876Y-23655D01*
X60884Y-23614D01*
X60899Y-23579D01*
X60899Y-23541D01*
X60907Y-23500D01*
X60907Y-24592D01*
X60500Y-24592D01*
X60473Y-24597D01*
X60457Y-24596D01*
X60417Y-24609D01*
X60344Y-24623D01*
X60319Y-24639D01*
X60305Y-24644D01*
X60276Y-24668D01*
X60211Y-24711D01*
X60194Y-24737D01*
X60183Y-24746D01*
X58493Y-26856D01*
X58372Y-26856D01*
X58135Y-26953D01*
X57954Y-27134D01*
X57856Y-27371D01*
X57856Y-27627D01*
X57953Y-27864D01*
X58134Y-28045D01*
X58371Y-28143D01*
X58627Y-28143D01*
X58864Y-28046D01*
X59045Y-27865D01*
X59143Y-27628D01*
X59143Y-27372D01*
X59137Y-27356D01*
X60698Y-25407D01*
X61500Y-25407D01*
X61528Y-25401D01*
X61557Y-25403D01*
X61605Y-25386D01*
X61655Y-25376D01*
X61680Y-25360D01*
X61707Y-25350D01*
X61745Y-25316D01*
X61788Y-25288D01*
X61804Y-25264D01*
X61825Y-25244D01*
X63326Y-23245D01*
X63353Y-23190D01*
X63376Y-23155D01*
X63381Y-23132D01*
X63395Y-23102D01*
X63399Y-23042D01*
X63407Y-23000D01*
X63407Y-22500D01*
X63407Y-22251D01*
X63453Y-22364D01*
X63634Y-22545D01*
X63871Y-22643D01*
X64127Y-22643D01*
X64364Y-22546D01*
X64502Y-22407D01*
X65331Y-22407D01*
X65592Y-22668D01*
X65592Y-22856D01*
X65556Y-22856D01*
X65500Y-22879D01*
X65443Y-22856D01*
X65112Y-22856D01*
X65050Y-22918D01*
X65050Y-23450D01*
X65057Y-23450D01*
X65057Y-23550D01*
X65050Y-23550D01*
X65050Y-23557D01*
X64950Y-23557D01*
X64950Y-23550D01*
X64950Y-23450D01*
X64950Y-22918D01*
X64887Y-22856D01*
X64556Y-22856D01*
X64464Y-22894D01*
X64394Y-22964D01*
X64356Y-23056D01*
X64356Y-23155D01*
X64356Y-23387D01*
X64418Y-23450D01*
X64950Y-23450D01*
X64950Y-23550D01*
X64418Y-23550D01*
X64356Y-23612D01*
X64356Y-23844D01*
X64356Y-23943D01*
X64379Y-24000D01*
X64356Y-24056D01*
X64356Y-24155D01*
X64356Y-24943D01*
X64394Y-25035D01*
X64464Y-25105D01*
X64556Y-25143D01*
X64655Y-25143D01*
X64866Y-25143D01*
X65136Y-25682D01*
X65170Y-25726D01*
X65211Y-25788D01*
X65711Y-26288D01*
X65740Y-26307D01*
X64411Y-26602D01*
X64370Y-26620D01*
X64317Y-26635D01*
X63403Y-27092D01*
X60502Y-27092D01*
X60365Y-26954D01*
X60128Y-26856D01*
X59872Y-26856D01*
X59635Y-26953D01*
X59454Y-27134D01*
X59356Y-27371D01*
X59356Y-27627D01*
X59453Y-27864D01*
X59634Y-28045D01*
X59871Y-28143D01*
X60127Y-28143D01*
X60364Y-28046D01*
X60502Y-27907D01*
X63500Y-27907D01*
X63514Y-27904D01*
X63529Y-27906D01*
X63592Y-27889D01*
X63655Y-27876D01*
X63668Y-27868D01*
X63682Y-27864D01*
X64634Y-27387D01*
X65925Y-27101D01*
X65906Y-27109D01*
X65610Y-27404D01*
X65450Y-27790D01*
X65449Y-28207D01*
X65609Y-28594D01*
X65904Y-28889D01*
X66290Y-29049D01*
X66707Y-29050D01*
X67094Y-28890D01*
X67389Y-28595D01*
X67549Y-28209D01*
X67550Y-27792D01*
X67390Y-27406D01*
X67095Y-27110D01*
X66709Y-26950D01*
X66607Y-26950D01*
X69088Y-26400D01*
X69131Y-26381D01*
X69155Y-26376D01*
X69182Y-26358D01*
X69234Y-26336D01*
X69265Y-26303D01*
X69288Y-26288D01*
X69306Y-26260D01*
X69344Y-26221D01*
X69359Y-26180D01*
X69376Y-26155D01*
X69383Y-26119D01*
X69401Y-26073D01*
X69400Y-26032D01*
X69407Y-26000D01*
X69407Y-24500D01*
X69407Y-22000D01*
X69407Y-21000D01*
X69393Y-20930D01*
X69386Y-20871D01*
X69379Y-20860D01*
X69376Y-20844D01*
X69335Y-20783D01*
X69307Y-20733D01*
X69297Y-20725D01*
X69288Y-20711D01*
X69226Y-20670D01*
X69182Y-20636D01*
X68643Y-20366D01*
X68643Y-20056D01*
X68605Y-19964D01*
X68535Y-19894D01*
X68443Y-19856D01*
X68344Y-19856D01*
X67556Y-19856D01*
X67464Y-19894D01*
X67394Y-19964D01*
X67356Y-20056D01*
X67356Y-20155D01*
X67356Y-20943D01*
X67394Y-21035D01*
X67464Y-21105D01*
X67556Y-21143D01*
X67655Y-21143D01*
X68375Y-21143D01*
X68592Y-21252D01*
X68592Y-22000D01*
X68592Y-24500D01*
X68592Y-25675D01*
X68329Y-25733D01*
X68349Y-25711D01*
X68361Y-25678D01*
X68376Y-25655D01*
X68385Y-25611D01*
X68403Y-25561D01*
X68401Y-25528D01*
X68407Y-25500D01*
X68407Y-24500D01*
X68407Y-24497D01*
X68407Y-24494D01*
X68390Y-24412D01*
X68376Y-24344D01*
X68375Y-24342D01*
X68374Y-24339D01*
X66922Y-20952D01*
X67443Y-18084D01*
X67464Y-18105D01*
X67556Y-18143D01*
X67655Y-18143D01*
X67784Y-18143D01*
X67950Y-18643D01*
X67856Y-18871D01*
X67856Y-19127D01*
X67953Y-19364D01*
X68134Y-19545D01*
X68371Y-19643D01*
X68627Y-19643D01*
X68864Y-19546D01*
X69045Y-19365D01*
X69143Y-19128D01*
X69143Y-18872D01*
X69046Y-18635D01*
X68865Y-18454D01*
X68728Y-18397D01*
X68606Y-18032D01*
X68643Y-17943D01*
X68643Y-17844D01*
X68643Y-17056D01*
X68605Y-16964D01*
X68535Y-16894D01*
X68443Y-16856D01*
X68344Y-16856D01*
X67667Y-16856D01*
X67889Y-15631D01*
X68134Y-15143D01*
X68443Y-15143D01*
X68535Y-15105D01*
X68605Y-15035D01*
X68643Y-14943D01*
X68643Y-14844D01*
X68643Y-14056D01*
X68605Y-13964D01*
X68535Y-13894D01*
X68443Y-13856D01*
X68344Y-13856D01*
X67556Y-13856D01*
X67464Y-13894D01*
X67394Y-13964D01*
X67356Y-14056D01*
X67356Y-14155D01*
X67356Y-14877D01*
X67135Y-15317D01*
X67121Y-15369D01*
X67098Y-15427D01*
X66974Y-16109D01*
X66890Y-15906D01*
X66595Y-15610D01*
X66209Y-15450D01*
X65792Y-15449D01*
X65406Y-15609D01*
X65110Y-15904D01*
X64950Y-16290D01*
X64949Y-16707D01*
X65109Y-17094D01*
X65404Y-17389D01*
X65790Y-17549D01*
X66207Y-17550D01*
X66594Y-17390D01*
X66774Y-17210D01*
X66520Y-18609D01*
X66365Y-18454D01*
X66128Y-18356D01*
X65872Y-18356D01*
X65635Y-18453D01*
X65499Y-18589D01*
X65365Y-18454D01*
X65128Y-18356D01*
X64872Y-18356D01*
X64635Y-18453D01*
X64454Y-18634D01*
X64356Y-18871D01*
X64356Y-19127D01*
X64453Y-19364D01*
X64506Y-19417D01*
X64211Y-19711D01*
X64211Y-19711D01*
X63903Y-20020D01*
X63907Y-20000D01*
X63907Y-20000D01*
X63907Y-19999D01*
X63907Y-19500D01*
X63907Y-18168D01*
X63932Y-18143D01*
X64443Y-18143D01*
X64535Y-18105D01*
X64605Y-18035D01*
X64643Y-17943D01*
X64643Y-17844D01*
X64643Y-17056D01*
X64605Y-16964D01*
X64535Y-16894D01*
X64443Y-16856D01*
X64344Y-16856D01*
X63556Y-16856D01*
X63464Y-16894D01*
X63394Y-16964D01*
X63356Y-17056D01*
X63356Y-17155D01*
X63356Y-17567D01*
X63211Y-17711D01*
X63123Y-17844D01*
X63092Y-18000D01*
X63092Y-18000D01*
X63092Y-18748D01*
X63046Y-18635D01*
X62865Y-18454D01*
X62628Y-18356D01*
X62432Y-18356D01*
X62288Y-18211D01*
X62288Y-18211D01*
X61702Y-17626D01*
X62185Y-17405D01*
X62212Y-17386D01*
X62245Y-17372D01*
X62278Y-17338D01*
X62314Y-17312D01*
X62331Y-17284D01*
X62356Y-17258D01*
X62374Y-17214D01*
X62397Y-17176D01*
X62403Y-17143D01*
X62416Y-17111D01*
X62876Y-14699D01*
X63080Y-14495D01*
X63356Y-14634D01*
X63356Y-14943D01*
X63394Y-15035D01*
X63464Y-15105D01*
X63556Y-15143D01*
X63592Y-15143D01*
X63592Y-15497D01*
X63454Y-15634D01*
X63356Y-15871D01*
X63356Y-16127D01*
X63453Y-16364D01*
X63634Y-16545D01*
X63871Y-16643D01*
X64127Y-16643D01*
X64364Y-16546D01*
X64545Y-16365D01*
X64643Y-16128D01*
X64643Y-15872D01*
X64546Y-15635D01*
X64407Y-15497D01*
X64407Y-15143D01*
X64443Y-15143D01*
X64535Y-15105D01*
X64605Y-15035D01*
X64643Y-14943D01*
X64643Y-14844D01*
X64643Y-14056D01*
X64605Y-13964D01*
X64535Y-13894D01*
X64443Y-13856D01*
X64344Y-13856D01*
X63622Y-13856D01*
X63450Y-13769D01*
X69730Y-13769D01*
X69730Y-29230D01*
X69730Y-29230D01*
G37*
G54D18*
X69730Y-29230D02*
X43050Y-29230D01*
X43050Y-27792D01*
X42890Y-27406D01*
X42595Y-27110D01*
X42209Y-26950D01*
X41792Y-26949D01*
X41406Y-27109D01*
X41110Y-27404D01*
X40950Y-27790D01*
X40949Y-28207D01*
X41109Y-28594D01*
X41404Y-28889D01*
X41790Y-29049D01*
X42207Y-29050D01*
X42594Y-28890D01*
X42889Y-28595D01*
X43049Y-28209D01*
X43050Y-27792D01*
X43050Y-29230D01*
X38769Y-29230D01*
X38769Y-13769D01*
X62654Y-13769D01*
X62211Y-14211D01*
X62189Y-14245D01*
X62159Y-14276D01*
X62144Y-14313D01*
X62123Y-14344D01*
X62115Y-14383D01*
X62099Y-14423D01*
X61655Y-16751D01*
X61427Y-16856D01*
X61407Y-16856D01*
X61407Y-16000D01*
X61396Y-15944D01*
X61394Y-15903D01*
X61383Y-15880D01*
X61376Y-15844D01*
X61343Y-15794D01*
X61326Y-15759D01*
X61309Y-15743D01*
X61288Y-15711D01*
X61236Y-15677D01*
X61208Y-15652D01*
X60266Y-15086D01*
X60364Y-15046D01*
X60388Y-15021D01*
X60394Y-15035D01*
X60464Y-15105D01*
X60556Y-15143D01*
X60655Y-15143D01*
X61443Y-15143D01*
X61535Y-15105D01*
X61605Y-15035D01*
X61643Y-14943D01*
X61643Y-14844D01*
X61643Y-14056D01*
X61605Y-13964D01*
X61535Y-13894D01*
X61443Y-13856D01*
X61344Y-13856D01*
X60556Y-13856D01*
X60464Y-13894D01*
X60394Y-13964D01*
X60388Y-13978D01*
X60365Y-13954D01*
X60128Y-13856D01*
X59872Y-13856D01*
X59635Y-13953D01*
X59454Y-14134D01*
X59356Y-14371D01*
X59356Y-14539D01*
X58709Y-14150D01*
X58681Y-14140D01*
X58655Y-14123D01*
X58607Y-14113D01*
X58560Y-14096D01*
X58529Y-14098D01*
X58500Y-14092D01*
X57000Y-14092D01*
X55002Y-14092D01*
X54865Y-13954D01*
X54628Y-13856D01*
X54372Y-13856D01*
X54135Y-13953D01*
X53954Y-14134D01*
X53856Y-14371D01*
X53856Y-14627D01*
X53953Y-14864D01*
X54041Y-14951D01*
X53863Y-14960D01*
X53714Y-15022D01*
X53688Y-15117D01*
X54000Y-15429D01*
X54005Y-15423D01*
X54076Y-15494D01*
X54070Y-15500D01*
X54382Y-15811D01*
X54477Y-15785D01*
X54500Y-15719D01*
X54537Y-15808D01*
X54690Y-15961D01*
X54891Y-16045D01*
X55107Y-16045D01*
X55308Y-15962D01*
X55461Y-15809D01*
X55499Y-15717D01*
X55537Y-15808D01*
X55690Y-15961D01*
X55891Y-16045D01*
X56107Y-16045D01*
X56308Y-15962D01*
X56461Y-15809D01*
X56545Y-15608D01*
X56545Y-15392D01*
X56462Y-15191D01*
X56309Y-15038D01*
X56108Y-14954D01*
X55892Y-14954D01*
X55691Y-15037D01*
X55538Y-15190D01*
X55500Y-15282D01*
X55462Y-15191D01*
X55309Y-15038D01*
X55108Y-14954D01*
X54955Y-14954D01*
X55002Y-14907D01*
X57000Y-14907D01*
X58386Y-14907D01*
X60592Y-16232D01*
X60592Y-16856D01*
X60556Y-16856D01*
X60464Y-16894D01*
X60394Y-16964D01*
X60356Y-17056D01*
X60356Y-17155D01*
X60356Y-17943D01*
X60394Y-18035D01*
X60464Y-18105D01*
X60556Y-18143D01*
X60655Y-18143D01*
X61067Y-18143D01*
X61503Y-18579D01*
X60143Y-18240D01*
X60143Y-18056D01*
X60105Y-17964D01*
X60063Y-17922D01*
X60386Y-16628D01*
X60386Y-16627D01*
X60387Y-16626D01*
X60394Y-16598D01*
X60396Y-16553D01*
X60406Y-16469D01*
X60401Y-16449D01*
X60401Y-16439D01*
X60387Y-16399D01*
X60364Y-16316D01*
X60351Y-16299D01*
X60348Y-16289D01*
X60318Y-16257D01*
X60267Y-16191D01*
X60248Y-16180D01*
X60241Y-16172D01*
X60198Y-16151D01*
X60128Y-16112D01*
X58628Y-15613D01*
X58563Y-15605D01*
X58500Y-15592D01*
X58000Y-15592D01*
X57000Y-15592D01*
X57000Y-15592D01*
X56844Y-15623D01*
X56791Y-15658D01*
X56711Y-15711D01*
X56711Y-15711D01*
X56331Y-16092D01*
X55500Y-16092D01*
X54542Y-16092D01*
X54143Y-16035D01*
X54285Y-15977D01*
X54311Y-15882D01*
X54000Y-15570D01*
X53688Y-15882D01*
X53714Y-15974D01*
X53348Y-15922D01*
X53461Y-15809D01*
X53497Y-15724D01*
X53522Y-15785D01*
X53617Y-15811D01*
X53929Y-15500D01*
X53617Y-15188D01*
X53522Y-15214D01*
X53499Y-15280D01*
X53462Y-15191D01*
X53309Y-15038D01*
X53108Y-14954D01*
X52892Y-14954D01*
X52691Y-15037D01*
X52538Y-15190D01*
X52454Y-15391D01*
X52454Y-15607D01*
X52536Y-15807D01*
X51387Y-15643D01*
X51627Y-15643D01*
X51864Y-15546D01*
X52045Y-15365D01*
X52143Y-15128D01*
X52143Y-14872D01*
X52046Y-14635D01*
X51865Y-14454D01*
X51628Y-14356D01*
X51372Y-14356D01*
X51135Y-14453D01*
X50997Y-14592D01*
X48643Y-14592D01*
X48643Y-14556D01*
X48605Y-14464D01*
X48535Y-14394D01*
X48443Y-14356D01*
X48344Y-14356D01*
X47556Y-14356D01*
X47464Y-14394D01*
X47394Y-14464D01*
X47356Y-14556D01*
X47356Y-14655D01*
X47356Y-15067D01*
X46831Y-15592D01*
X45751Y-15592D01*
X45864Y-15546D01*
X46045Y-15365D01*
X46143Y-15128D01*
X46143Y-14872D01*
X46046Y-14635D01*
X45865Y-14454D01*
X45628Y-14356D01*
X45372Y-14356D01*
X45135Y-14453D01*
X45111Y-14478D01*
X45105Y-14464D01*
X45035Y-14394D01*
X44943Y-14356D01*
X44844Y-14356D01*
X44056Y-14356D01*
X43964Y-14394D01*
X43894Y-14464D01*
X43856Y-14556D01*
X43856Y-14655D01*
X43856Y-15443D01*
X43894Y-15535D01*
X43964Y-15605D01*
X44056Y-15643D01*
X44155Y-15643D01*
X44943Y-15643D01*
X45035Y-15605D01*
X45105Y-15535D01*
X45111Y-15521D01*
X45134Y-15545D01*
X45336Y-15628D01*
X45291Y-15658D01*
X45211Y-15711D01*
X45211Y-15711D01*
X44211Y-16711D01*
X44123Y-16844D01*
X44092Y-17000D01*
X44092Y-17000D01*
X44092Y-17356D01*
X44056Y-17356D01*
X43964Y-17394D01*
X43894Y-17464D01*
X43856Y-17556D01*
X43856Y-17655D01*
X43856Y-17865D01*
X43643Y-17971D01*
X43643Y-14872D01*
X43546Y-14635D01*
X43365Y-14454D01*
X43128Y-14356D01*
X42872Y-14356D01*
X42635Y-14453D01*
X42497Y-14592D01*
X41143Y-14592D01*
X41143Y-14556D01*
X41105Y-14464D01*
X41035Y-14394D01*
X40943Y-14356D01*
X40844Y-14356D01*
X40056Y-14356D01*
X39964Y-14394D01*
X39894Y-14464D01*
X39856Y-14556D01*
X39856Y-14655D01*
X39856Y-15443D01*
X39894Y-15535D01*
X39964Y-15605D01*
X40056Y-15643D01*
X40155Y-15643D01*
X40943Y-15643D01*
X41035Y-15605D01*
X41105Y-15535D01*
X41143Y-15443D01*
X41143Y-15407D01*
X42497Y-15407D01*
X42634Y-15545D01*
X42871Y-15643D01*
X43127Y-15643D01*
X43364Y-15546D01*
X43545Y-15365D01*
X43643Y-15128D01*
X43643Y-14872D01*
X43643Y-17971D01*
X43050Y-18268D01*
X43050Y-16292D01*
X42890Y-15906D01*
X42595Y-15610D01*
X42209Y-15450D01*
X41792Y-15449D01*
X41406Y-15609D01*
X41110Y-15904D01*
X40950Y-16290D01*
X40949Y-16707D01*
X41109Y-17094D01*
X41404Y-17389D01*
X41790Y-17549D01*
X42207Y-17550D01*
X42594Y-17390D01*
X42889Y-17095D01*
X43049Y-16709D01*
X43050Y-16292D01*
X43050Y-18268D01*
X42498Y-18545D01*
X41143Y-17866D01*
X41143Y-17556D01*
X41105Y-17464D01*
X41035Y-17394D01*
X40943Y-17356D01*
X40844Y-17356D01*
X40056Y-17356D01*
X39964Y-17394D01*
X39894Y-17464D01*
X39856Y-17556D01*
X39856Y-17655D01*
X39856Y-18443D01*
X39894Y-18535D01*
X39964Y-18605D01*
X40056Y-18643D01*
X40155Y-18643D01*
X40875Y-18643D01*
X42316Y-19365D01*
X42350Y-19374D01*
X42371Y-19386D01*
X42412Y-19391D01*
X42470Y-19407D01*
X42504Y-19403D01*
X42529Y-19406D01*
X42570Y-19395D01*
X42628Y-19387D01*
X42657Y-19371D01*
X42682Y-19364D01*
X43889Y-18760D01*
X43615Y-19856D01*
X43556Y-19856D01*
X43464Y-19894D01*
X43394Y-19964D01*
X43356Y-20056D01*
X43356Y-20155D01*
X43356Y-20943D01*
X43394Y-21035D01*
X43464Y-21105D01*
X43556Y-21143D01*
X43655Y-21143D01*
X44067Y-21143D01*
X44696Y-21772D01*
X44830Y-21940D01*
X44628Y-21856D01*
X44372Y-21856D01*
X44183Y-21934D01*
X42228Y-21152D01*
X41643Y-20567D01*
X41643Y-20056D01*
X41605Y-19964D01*
X41535Y-19894D01*
X41443Y-19856D01*
X41344Y-19856D01*
X40556Y-19856D01*
X40464Y-19894D01*
X40394Y-19964D01*
X40356Y-20056D01*
X40356Y-20155D01*
X40356Y-20943D01*
X40394Y-21035D01*
X40464Y-21105D01*
X40556Y-21143D01*
X40655Y-21143D01*
X41067Y-21143D01*
X41711Y-21788D01*
X41713Y-21789D01*
X41715Y-21791D01*
X41779Y-21833D01*
X41844Y-21876D01*
X41846Y-21876D01*
X41848Y-21878D01*
X43882Y-22691D01*
X43953Y-22864D01*
X44134Y-23045D01*
X44371Y-23143D01*
X44627Y-23143D01*
X44864Y-23046D01*
X45045Y-22865D01*
X45143Y-22628D01*
X45143Y-22372D01*
X45108Y-22287D01*
X46356Y-23844D01*
X46356Y-24443D01*
X46394Y-24535D01*
X46464Y-24605D01*
X46556Y-24643D01*
X46655Y-24643D01*
X47375Y-24643D01*
X47817Y-24864D01*
X47820Y-24865D01*
X49360Y-25636D01*
X49453Y-25864D01*
X49634Y-26045D01*
X49871Y-26143D01*
X50127Y-26143D01*
X50364Y-26046D01*
X50545Y-25865D01*
X50643Y-25628D01*
X50643Y-25372D01*
X50546Y-25135D01*
X50365Y-24954D01*
X50128Y-24856D01*
X49872Y-24856D01*
X49734Y-24913D01*
X48182Y-24135D01*
X48179Y-24134D01*
X47643Y-23866D01*
X47643Y-23556D01*
X47605Y-23464D01*
X47535Y-23394D01*
X47443Y-23356D01*
X47344Y-23356D01*
X47009Y-23356D01*
X45318Y-21245D01*
X45300Y-21230D01*
X45288Y-21211D01*
X44643Y-20567D01*
X44643Y-20056D01*
X44605Y-19964D01*
X44535Y-19894D01*
X44454Y-19860D01*
X44758Y-18643D01*
X44943Y-18643D01*
X45035Y-18605D01*
X45105Y-18535D01*
X45143Y-18443D01*
X45143Y-18344D01*
X45143Y-17556D01*
X45105Y-17464D01*
X45035Y-17394D01*
X44943Y-17356D01*
X44907Y-17356D01*
X44907Y-17168D01*
X45668Y-16407D01*
X45748Y-16407D01*
X45635Y-16453D01*
X45454Y-16634D01*
X45356Y-16871D01*
X45356Y-17127D01*
X45453Y-17364D01*
X45592Y-17502D01*
X45592Y-18997D01*
X45454Y-19134D01*
X45356Y-19371D01*
X45356Y-19627D01*
X45453Y-19864D01*
X45634Y-20045D01*
X45871Y-20143D01*
X46127Y-20143D01*
X46364Y-20046D01*
X46545Y-19865D01*
X46625Y-19672D01*
X47605Y-23112D01*
X47613Y-23127D01*
X47613Y-23128D01*
X47616Y-23133D01*
X47677Y-23253D01*
X47691Y-23265D01*
X47692Y-23266D01*
X47704Y-23276D01*
X47799Y-23356D01*
X47814Y-23361D01*
X47817Y-23364D01*
X48817Y-23864D01*
X48820Y-23865D01*
X49356Y-24134D01*
X49356Y-24443D01*
X49394Y-24535D01*
X49464Y-24605D01*
X49556Y-24643D01*
X49655Y-24643D01*
X50443Y-24643D01*
X50535Y-24605D01*
X50605Y-24535D01*
X50643Y-24443D01*
X50643Y-24344D01*
X50643Y-23556D01*
X50605Y-23464D01*
X50535Y-23394D01*
X50443Y-23356D01*
X50344Y-23356D01*
X49622Y-23356D01*
X49182Y-23135D01*
X49179Y-23134D01*
X48339Y-22714D01*
X48312Y-22618D01*
X48371Y-22643D01*
X48627Y-22643D01*
X48864Y-22546D01*
X49045Y-22365D01*
X49141Y-22134D01*
X50593Y-21407D01*
X51499Y-21407D01*
X51500Y-21407D01*
X51500Y-21407D01*
X51655Y-21376D01*
X51788Y-21288D01*
X52288Y-20788D01*
X52288Y-20788D01*
X52288Y-20788D01*
X52341Y-20708D01*
X52376Y-20655D01*
X52376Y-20655D01*
X52407Y-20500D01*
X52407Y-20500D01*
X52407Y-20499D01*
X52407Y-20000D01*
X52392Y-19923D01*
X52385Y-19871D01*
X51898Y-18407D01*
X51903Y-18407D01*
X52592Y-18752D01*
X52592Y-20427D01*
X51643Y-23279D01*
X51211Y-23711D01*
X51123Y-23844D01*
X51092Y-24000D01*
X51092Y-24000D01*
X51092Y-25405D01*
X50865Y-25859D01*
X50635Y-25953D01*
X50454Y-26134D01*
X50356Y-26371D01*
X50356Y-26627D01*
X50453Y-26864D01*
X50634Y-27045D01*
X50871Y-27143D01*
X51127Y-27143D01*
X51364Y-27046D01*
X51545Y-26865D01*
X51643Y-26628D01*
X51643Y-26372D01*
X51587Y-26236D01*
X51864Y-25682D01*
X51869Y-25666D01*
X51876Y-25655D01*
X51887Y-25601D01*
X51907Y-25529D01*
X51904Y-25512D01*
X51907Y-25500D01*
X51907Y-24168D01*
X52288Y-23788D01*
X52296Y-23775D01*
X52307Y-23766D01*
X52340Y-23710D01*
X52376Y-23655D01*
X52379Y-23641D01*
X52386Y-23628D01*
X53374Y-20658D01*
X53376Y-20655D01*
X53377Y-20648D01*
X53384Y-20628D01*
X53389Y-20589D01*
X53407Y-20500D01*
X53407Y-20048D01*
X53464Y-20105D01*
X53556Y-20143D01*
X53592Y-20143D01*
X53592Y-20497D01*
X53454Y-20634D01*
X53356Y-20871D01*
X53356Y-21127D01*
X53453Y-21364D01*
X53634Y-21545D01*
X53871Y-21643D01*
X54127Y-21643D01*
X54364Y-21546D01*
X54545Y-21365D01*
X54643Y-21128D01*
X54643Y-20872D01*
X54546Y-20635D01*
X54407Y-20497D01*
X54407Y-20143D01*
X54443Y-20143D01*
X54500Y-20120D01*
X54556Y-20143D01*
X54887Y-20143D01*
X54950Y-20081D01*
X54950Y-19550D01*
X54942Y-19550D01*
X54942Y-19450D01*
X54950Y-19450D01*
X54950Y-19442D01*
X55050Y-19442D01*
X55050Y-19450D01*
X55057Y-19450D01*
X55057Y-19550D01*
X55050Y-19550D01*
X55050Y-20081D01*
X55112Y-20143D01*
X55443Y-20143D01*
X55535Y-20105D01*
X55592Y-20048D01*
X55592Y-20500D01*
X55600Y-20539D01*
X55600Y-20579D01*
X55615Y-20616D01*
X55623Y-20655D01*
X55645Y-20689D01*
X55660Y-20726D01*
X55689Y-20754D01*
X55711Y-20788D01*
X55745Y-20810D01*
X55773Y-20838D01*
X55810Y-20854D01*
X55844Y-20876D01*
X55883Y-20884D01*
X55920Y-20899D01*
X56154Y-20946D01*
X56135Y-20953D01*
X55954Y-21134D01*
X55882Y-21308D01*
X54316Y-21934D01*
X54128Y-21856D01*
X53872Y-21856D01*
X53635Y-21953D01*
X53454Y-22134D01*
X53356Y-22371D01*
X53356Y-22627D01*
X53453Y-22864D01*
X53634Y-23045D01*
X53871Y-23143D01*
X54127Y-23143D01*
X54364Y-23046D01*
X54545Y-22865D01*
X54617Y-22691D01*
X56183Y-22065D01*
X56371Y-22143D01*
X56627Y-22143D01*
X56864Y-22046D01*
X57045Y-21865D01*
X57143Y-21628D01*
X57143Y-21372D01*
X57046Y-21135D01*
X57031Y-21121D01*
X57927Y-21300D01*
X57953Y-21364D01*
X58134Y-21545D01*
X58371Y-21643D01*
X58627Y-21643D01*
X58864Y-21546D01*
X59045Y-21365D01*
X59143Y-21128D01*
X59143Y-20872D01*
X59046Y-20635D01*
X58865Y-20454D01*
X58628Y-20356D01*
X58372Y-20356D01*
X58135Y-20453D01*
X58088Y-20501D01*
X56407Y-20165D01*
X56407Y-18500D01*
X56376Y-18344D01*
X56288Y-18211D01*
X56155Y-18123D01*
X56000Y-18092D01*
X55643Y-18092D01*
X55643Y-18056D01*
X55605Y-17964D01*
X55535Y-17894D01*
X55521Y-17888D01*
X55545Y-17865D01*
X55643Y-17628D01*
X55643Y-17372D01*
X55546Y-17135D01*
X55365Y-16954D01*
X55251Y-16907D01*
X55500Y-16907D01*
X56499Y-16907D01*
X56500Y-16907D01*
X56500Y-16907D01*
X56655Y-16876D01*
X56788Y-16788D01*
X57168Y-16407D01*
X58000Y-16407D01*
X58248Y-16407D01*
X58135Y-16453D01*
X57954Y-16634D01*
X57897Y-16771D01*
X56871Y-17113D01*
X56858Y-17120D01*
X56844Y-17123D01*
X56789Y-17159D01*
X56733Y-17192D01*
X56724Y-17203D01*
X56711Y-17211D01*
X56675Y-17266D01*
X56635Y-17317D01*
X56631Y-17331D01*
X56623Y-17344D01*
X56610Y-17407D01*
X56593Y-17470D01*
X56595Y-17485D01*
X56592Y-17500D01*
X56592Y-19500D01*
X56623Y-19655D01*
X56711Y-19788D01*
X56844Y-19876D01*
X57000Y-19907D01*
X57856Y-19907D01*
X57856Y-19943D01*
X57894Y-20035D01*
X57964Y-20105D01*
X58056Y-20143D01*
X58155Y-20143D01*
X58943Y-20143D01*
X59000Y-20120D01*
X59056Y-20143D01*
X59387Y-20143D01*
X59450Y-20081D01*
X59450Y-19550D01*
X59442Y-19550D01*
X59442Y-19450D01*
X59450Y-19450D01*
X59450Y-19442D01*
X59550Y-19442D01*
X59550Y-19450D01*
X60081Y-19450D01*
X60143Y-19387D01*
X60143Y-19155D01*
X60143Y-19080D01*
X61092Y-19317D01*
X61092Y-22497D01*
X60954Y-22634D01*
X60856Y-22871D01*
X60856Y-23127D01*
X60953Y-23364D01*
X61134Y-23545D01*
X61371Y-23643D01*
X61627Y-23643D01*
X61864Y-23546D01*
X62045Y-23365D01*
X62143Y-23128D01*
X62143Y-22872D01*
X62046Y-22635D01*
X61907Y-22497D01*
X61907Y-19251D01*
X61953Y-19364D01*
X62134Y-19545D01*
X62371Y-19643D01*
X62627Y-19643D01*
X62864Y-19546D01*
X63045Y-19365D01*
X63092Y-19251D01*
X63092Y-19500D01*
X63092Y-19831D01*
X62711Y-20211D01*
X62623Y-20344D01*
X62592Y-20500D01*
X62592Y-20500D01*
X62592Y-22500D01*
X62592Y-22866D01*
X61296Y-24592D01*
X60907Y-24592D01*
X60907Y-23500D01*
X60899Y-23458D01*
X60899Y-23420D01*
X60497Y-21412D01*
X60545Y-21365D01*
X60643Y-21128D01*
X60643Y-20872D01*
X60546Y-20635D01*
X60365Y-20454D01*
X60143Y-20362D01*
X60143Y-19844D01*
X60143Y-19612D01*
X60081Y-19550D01*
X59550Y-19550D01*
X59550Y-20081D01*
X59612Y-20143D01*
X59943Y-20143D01*
X60035Y-20105D01*
X60105Y-20035D01*
X60143Y-19943D01*
X60143Y-19844D01*
X60143Y-20362D01*
X60128Y-20356D01*
X59872Y-20356D01*
X59635Y-20453D01*
X59454Y-20634D01*
X59356Y-20871D01*
X59356Y-21127D01*
X59453Y-21364D01*
X59634Y-21545D01*
X59698Y-21571D01*
X59956Y-22861D01*
X59943Y-22856D01*
X59844Y-22856D01*
X59056Y-22856D01*
X59047Y-22860D01*
X59143Y-22628D01*
X59143Y-22372D01*
X59046Y-22135D01*
X58865Y-21954D01*
X58628Y-21856D01*
X58372Y-21856D01*
X58135Y-21953D01*
X57954Y-22134D01*
X57856Y-22371D01*
X57856Y-22627D01*
X57912Y-22764D01*
X57748Y-23092D01*
X57500Y-23092D01*
X57143Y-23092D01*
X57143Y-23056D01*
X57105Y-22964D01*
X57035Y-22894D01*
X56943Y-22856D01*
X56844Y-22856D01*
X56056Y-22856D01*
X55964Y-22894D01*
X55894Y-22964D01*
X55856Y-23056D01*
X55856Y-23155D01*
X55856Y-23943D01*
X55894Y-24035D01*
X55964Y-24105D01*
X56056Y-24143D01*
X56121Y-24143D01*
X56123Y-24155D01*
X56131Y-24168D01*
X56135Y-24182D01*
X56175Y-24233D01*
X56211Y-24288D01*
X56224Y-24296D01*
X56233Y-24307D01*
X56289Y-24340D01*
X56344Y-24376D01*
X56358Y-24379D01*
X56371Y-24386D01*
X56551Y-24446D01*
X56363Y-24456D01*
X56212Y-24518D01*
X56184Y-24614D01*
X56500Y-24929D01*
X56815Y-24614D01*
X56789Y-24525D01*
X57778Y-24854D01*
X58092Y-25168D01*
X58092Y-25781D01*
X57054Y-26473D01*
X57054Y-25081D01*
X57043Y-24863D01*
X56981Y-24712D01*
X56885Y-24684D01*
X56570Y-25000D01*
X56885Y-25315D01*
X56981Y-25287D01*
X57054Y-25081D01*
X57054Y-26473D01*
X56876Y-26592D01*
X54502Y-26592D01*
X54460Y-26549D01*
X54608Y-26550D01*
X54811Y-26466D01*
X54965Y-26311D01*
X54999Y-26230D01*
X55033Y-26311D01*
X55188Y-26465D01*
X55390Y-26549D01*
X55608Y-26550D01*
X55811Y-26466D01*
X55965Y-26311D01*
X55999Y-26230D01*
X56033Y-26311D01*
X56188Y-26465D01*
X56390Y-26549D01*
X56608Y-26550D01*
X56811Y-26466D01*
X56965Y-26311D01*
X57049Y-26109D01*
X57050Y-25891D01*
X56966Y-25688D01*
X56811Y-25534D01*
X56736Y-25502D01*
X56787Y-25481D01*
X56815Y-25385D01*
X56500Y-25070D01*
X56184Y-25385D01*
X56212Y-25481D01*
X56267Y-25500D01*
X56188Y-25533D01*
X56034Y-25688D01*
X56000Y-25769D01*
X55966Y-25688D01*
X55811Y-25534D01*
X55730Y-25500D01*
X55811Y-25466D01*
X55965Y-25311D01*
X55997Y-25236D01*
X56018Y-25287D01*
X56114Y-25315D01*
X56429Y-25000D01*
X56114Y-24684D01*
X56018Y-24712D01*
X55999Y-24767D01*
X55966Y-24688D01*
X55811Y-24534D01*
X55609Y-24450D01*
X55391Y-24449D01*
X55188Y-24533D01*
X55034Y-24688D01*
X55000Y-24769D01*
X54966Y-24688D01*
X54811Y-24534D01*
X54609Y-24450D01*
X54391Y-24449D01*
X54188Y-24533D01*
X54034Y-24688D01*
X54000Y-24769D01*
X53966Y-24688D01*
X53811Y-24534D01*
X53609Y-24450D01*
X53391Y-24449D01*
X53188Y-24533D01*
X53034Y-24688D01*
X53000Y-24769D01*
X52966Y-24688D01*
X52811Y-24534D01*
X52609Y-24450D01*
X52391Y-24449D01*
X52188Y-24533D01*
X52034Y-24688D01*
X51950Y-24890D01*
X51949Y-25108D01*
X52033Y-25311D01*
X52172Y-25449D01*
X52150Y-25449D01*
X52058Y-25487D01*
X51988Y-25558D01*
X51950Y-25650D01*
X51949Y-25749D01*
X51949Y-26349D01*
X51987Y-26441D01*
X52058Y-26511D01*
X52150Y-26549D01*
X52249Y-26550D01*
X52849Y-26550D01*
X52941Y-26512D01*
X53011Y-26441D01*
X53049Y-26349D01*
X53049Y-26327D01*
X53188Y-26465D01*
X53390Y-26549D01*
X53539Y-26550D01*
X53454Y-26634D01*
X53356Y-26871D01*
X53356Y-27127D01*
X53453Y-27364D01*
X53634Y-27545D01*
X53871Y-27643D01*
X54127Y-27643D01*
X54364Y-27546D01*
X54502Y-27407D01*
X56248Y-27407D01*
X56135Y-27453D01*
X55954Y-27634D01*
X55856Y-27871D01*
X55856Y-28067D01*
X55831Y-28092D01*
X55500Y-28092D01*
X54500Y-28092D01*
X53500Y-28092D01*
X52000Y-28092D01*
X50594Y-28092D01*
X49848Y-27718D01*
X49395Y-25901D01*
X49382Y-25873D01*
X49376Y-25844D01*
X49348Y-25802D01*
X49327Y-25757D01*
X49305Y-25737D01*
X49288Y-25711D01*
X49246Y-25684D01*
X49209Y-25650D01*
X49181Y-25640D01*
X49155Y-25623D01*
X49107Y-25613D01*
X49060Y-25596D01*
X49029Y-25598D01*
X49000Y-25592D01*
X48000Y-25592D01*
X47000Y-25592D01*
X45253Y-25592D01*
X44365Y-23820D01*
X44364Y-23816D01*
X44267Y-23691D01*
X44128Y-23612D01*
X43143Y-23284D01*
X43143Y-23056D01*
X43105Y-22964D01*
X43035Y-22894D01*
X42943Y-22856D01*
X42844Y-22856D01*
X42056Y-22856D01*
X42000Y-22879D01*
X41943Y-22856D01*
X41612Y-22856D01*
X41550Y-22918D01*
X41550Y-23450D01*
X41557Y-23450D01*
X41557Y-23550D01*
X41550Y-23550D01*
X41550Y-23557D01*
X41450Y-23557D01*
X41450Y-23550D01*
X41450Y-23450D01*
X41450Y-22918D01*
X41387Y-22856D01*
X41056Y-22856D01*
X40964Y-22894D01*
X40894Y-22964D01*
X40856Y-23056D01*
X40856Y-23155D01*
X40856Y-23387D01*
X40918Y-23450D01*
X41450Y-23450D01*
X41450Y-23550D01*
X40918Y-23550D01*
X40856Y-23612D01*
X40856Y-23844D01*
X40856Y-23943D01*
X40879Y-24000D01*
X40856Y-24056D01*
X40856Y-24155D01*
X40856Y-24943D01*
X40894Y-25035D01*
X40964Y-25105D01*
X41056Y-25143D01*
X41092Y-25143D01*
X41092Y-25499D01*
X41092Y-25500D01*
X41123Y-25655D01*
X41211Y-25788D01*
X41711Y-26288D01*
X41711Y-26288D01*
X41791Y-26341D01*
X41844Y-26376D01*
X41844Y-26376D01*
X42000Y-26407D01*
X42000Y-26407D01*
X42000Y-26407D01*
X42331Y-26407D01*
X43211Y-27288D01*
X43211Y-27288D01*
X43291Y-27341D01*
X43344Y-27376D01*
X43344Y-27376D01*
X43500Y-27407D01*
X44000Y-27407D01*
X44500Y-27407D01*
X47497Y-27407D01*
X47634Y-27545D01*
X47871Y-27643D01*
X48127Y-27643D01*
X48364Y-27546D01*
X48545Y-27365D01*
X48643Y-27128D01*
X48643Y-26872D01*
X48546Y-26635D01*
X48365Y-26454D01*
X48251Y-26407D01*
X48681Y-26407D01*
X49103Y-28098D01*
X49111Y-28116D01*
X49113Y-28128D01*
X49136Y-28169D01*
X49171Y-28242D01*
X49185Y-28256D01*
X49192Y-28266D01*
X49231Y-28297D01*
X49288Y-28349D01*
X49306Y-28356D01*
X49317Y-28364D01*
X50317Y-28864D01*
X50333Y-28869D01*
X50344Y-28876D01*
X50398Y-28887D01*
X50470Y-28907D01*
X50487Y-28904D01*
X50500Y-28907D01*
X52000Y-28907D01*
X53500Y-28907D01*
X54500Y-28907D01*
X55500Y-28907D01*
X55999Y-28907D01*
X56000Y-28907D01*
X56000Y-28907D01*
X56155Y-28876D01*
X56288Y-28788D01*
X56432Y-28643D01*
X56627Y-28643D01*
X56864Y-28546D01*
X57045Y-28365D01*
X57143Y-28128D01*
X57143Y-27872D01*
X57046Y-27635D01*
X56865Y-27454D01*
X56751Y-27407D01*
X57000Y-27407D01*
X57039Y-27399D01*
X57079Y-27399D01*
X57116Y-27384D01*
X57155Y-27376D01*
X57189Y-27354D01*
X57226Y-27339D01*
X58725Y-26338D01*
X58753Y-26311D01*
X58788Y-26288D01*
X58811Y-26253D01*
X58838Y-26226D01*
X58853Y-26190D01*
X58876Y-26155D01*
X58884Y-26115D01*
X58899Y-26079D01*
X58899Y-26040D01*
X58907Y-26000D01*
X58907Y-25000D01*
X58907Y-25000D01*
X58907Y-25000D01*
X58876Y-24844D01*
X58876Y-24844D01*
X58841Y-24791D01*
X58788Y-24711D01*
X58788Y-24711D01*
X58288Y-24211D01*
X58277Y-24205D01*
X58267Y-24191D01*
X58199Y-24152D01*
X58155Y-24123D01*
X58144Y-24121D01*
X58128Y-24112D01*
X57512Y-23907D01*
X58000Y-23907D01*
X58063Y-23894D01*
X58128Y-23886D01*
X58141Y-23879D01*
X58155Y-23876D01*
X58210Y-23840D01*
X58266Y-23807D01*
X58275Y-23796D01*
X58288Y-23788D01*
X58324Y-23733D01*
X58364Y-23682D01*
X58635Y-23140D01*
X58859Y-23047D01*
X58856Y-23056D01*
X58856Y-23155D01*
X58856Y-23943D01*
X58894Y-24035D01*
X58964Y-24105D01*
X59056Y-24143D01*
X59155Y-24143D01*
X59943Y-24143D01*
X60035Y-24105D01*
X60105Y-24035D01*
X60143Y-23943D01*
X60143Y-23907D01*
X60500Y-23907D01*
X60539Y-23899D01*
X60579Y-23899D01*
X60616Y-23884D01*
X60655Y-23876D01*
X60689Y-23853D01*
X60726Y-23838D01*
X60753Y-23811D01*
X60788Y-23788D01*
X60811Y-23753D01*
X60838Y-23726D01*
X60853Y-23690D01*
X60876Y-23655D01*
X60884Y-23614D01*
X60899Y-23579D01*
X60899Y-23541D01*
X60907Y-23500D01*
X60907Y-24592D01*
X60500Y-24592D01*
X60473Y-24597D01*
X60457Y-24596D01*
X60417Y-24609D01*
X60344Y-24623D01*
X60319Y-24639D01*
X60305Y-24644D01*
X60276Y-24668D01*
X60211Y-24711D01*
X60194Y-24737D01*
X60183Y-24746D01*
X58493Y-26856D01*
X58372Y-26856D01*
X58135Y-26953D01*
X57954Y-27134D01*
X57856Y-27371D01*
X57856Y-27627D01*
X57953Y-27864D01*
X58134Y-28045D01*
X58371Y-28143D01*
X58627Y-28143D01*
X58864Y-28046D01*
X59045Y-27865D01*
X59143Y-27628D01*
X59143Y-27372D01*
X59137Y-27356D01*
X60698Y-25407D01*
X61500Y-25407D01*
X61528Y-25401D01*
X61557Y-25403D01*
X61605Y-25386D01*
X61655Y-25376D01*
X61680Y-25360D01*
X61707Y-25350D01*
X61745Y-25316D01*
X61788Y-25288D01*
X61804Y-25264D01*
X61825Y-25244D01*
X63326Y-23245D01*
X63353Y-23190D01*
X63376Y-23155D01*
X63381Y-23132D01*
X63395Y-23102D01*
X63399Y-23042D01*
X63407Y-23000D01*
X63407Y-22500D01*
X63407Y-22251D01*
X63453Y-22364D01*
X63634Y-22545D01*
X63871Y-22643D01*
X64127Y-22643D01*
X64364Y-22546D01*
X64502Y-22407D01*
X65331Y-22407D01*
X65592Y-22668D01*
X65592Y-22856D01*
X65556Y-22856D01*
X65500Y-22879D01*
X65443Y-22856D01*
X65112Y-22856D01*
X65050Y-22918D01*
X65050Y-23450D01*
X65057Y-23450D01*
X65057Y-23550D01*
X65050Y-23550D01*
X65050Y-23557D01*
X64950Y-23557D01*
X64950Y-23550D01*
X64950Y-23450D01*
X64950Y-22918D01*
X64887Y-22856D01*
X64556Y-22856D01*
X64464Y-22894D01*
X64394Y-22964D01*
X64356Y-23056D01*
X64356Y-23155D01*
X64356Y-23387D01*
X64418Y-23450D01*
X64950Y-23450D01*
X64950Y-23550D01*
X64418Y-23550D01*
X64356Y-23612D01*
X64356Y-23844D01*
X64356Y-23943D01*
X64379Y-24000D01*
X64356Y-24056D01*
X64356Y-24155D01*
X64356Y-24943D01*
X64394Y-25035D01*
X64464Y-25105D01*
X64556Y-25143D01*
X64655Y-25143D01*
X64866Y-25143D01*
X65136Y-25682D01*
X65170Y-25726D01*
X65211Y-25788D01*
X65711Y-26288D01*
X65740Y-26307D01*
X64411Y-26602D01*
X64370Y-26620D01*
X64317Y-26635D01*
X63403Y-27092D01*
X60502Y-27092D01*
X60365Y-26954D01*
X60128Y-26856D01*
X59872Y-26856D01*
X59635Y-26953D01*
X59454Y-27134D01*
X59356Y-27371D01*
X59356Y-27627D01*
X59453Y-27864D01*
X59634Y-28045D01*
X59871Y-28143D01*
X60127Y-28143D01*
X60364Y-28046D01*
X60502Y-27907D01*
X63500Y-27907D01*
X63514Y-27904D01*
X63529Y-27906D01*
X63592Y-27889D01*
X63655Y-27876D01*
X63668Y-27868D01*
X63682Y-27864D01*
X64634Y-27387D01*
X65925Y-27101D01*
X65906Y-27109D01*
X65610Y-27404D01*
X65450Y-27790D01*
X65449Y-28207D01*
X65609Y-28594D01*
X65904Y-28889D01*
X66290Y-29049D01*
X66707Y-29050D01*
X67094Y-28890D01*
X67389Y-28595D01*
X67549Y-28209D01*
X67550Y-27792D01*
X67390Y-27406D01*
X67095Y-27110D01*
X66709Y-26950D01*
X66607Y-26950D01*
X69088Y-26400D01*
X69131Y-26381D01*
X69155Y-26376D01*
X69182Y-26358D01*
X69234Y-26336D01*
X69265Y-26303D01*
X69288Y-26288D01*
X69306Y-26260D01*
X69344Y-26221D01*
X69359Y-26180D01*
X69376Y-26155D01*
X69383Y-26119D01*
X69401Y-26073D01*
X69400Y-26032D01*
X69407Y-26000D01*
X69407Y-24500D01*
X69407Y-22000D01*
X69407Y-21000D01*
X69393Y-20930D01*
X69386Y-20871D01*
X69379Y-20860D01*
X69376Y-20844D01*
X69335Y-20783D01*
X69307Y-20733D01*
X69297Y-20725D01*
X69288Y-20711D01*
X69226Y-20670D01*
X69182Y-20636D01*
X68643Y-20366D01*
X68643Y-20056D01*
X68605Y-19964D01*
X68535Y-19894D01*
X68443Y-19856D01*
X68344Y-19856D01*
X67556Y-19856D01*
X67464Y-19894D01*
X67394Y-19964D01*
X67356Y-20056D01*
X67356Y-20155D01*
X67356Y-20943D01*
X67394Y-21035D01*
X67464Y-21105D01*
X67556Y-21143D01*
X67655Y-21143D01*
X68375Y-21143D01*
X68592Y-21252D01*
X68592Y-22000D01*
X68592Y-24500D01*
X68592Y-25675D01*
X68329Y-25733D01*
X68349Y-25711D01*
X68361Y-25678D01*
X68376Y-25655D01*
X68385Y-25611D01*
X68403Y-25561D01*
X68401Y-25528D01*
X68407Y-25500D01*
X68407Y-24500D01*
X68407Y-24497D01*
X68407Y-24494D01*
X68390Y-24412D01*
X68376Y-24344D01*
X68375Y-24342D01*
X68374Y-24339D01*
X66922Y-20952D01*
X67443Y-18084D01*
X67464Y-18105D01*
X67556Y-18143D01*
X67655Y-18143D01*
X67784Y-18143D01*
X67950Y-18643D01*
X67856Y-18871D01*
X67856Y-19127D01*
X67953Y-19364D01*
X68134Y-19545D01*
X68371Y-19643D01*
X68627Y-19643D01*
X68864Y-19546D01*
X69045Y-19365D01*
X69143Y-19128D01*
X69143Y-18872D01*
X69046Y-18635D01*
X68865Y-18454D01*
X68728Y-18397D01*
X68606Y-18032D01*
X68643Y-17943D01*
X68643Y-17844D01*
X68643Y-17056D01*
X68605Y-16964D01*
X68535Y-16894D01*
X68443Y-16856D01*
X68344Y-16856D01*
X67667Y-16856D01*
X67889Y-15631D01*
X68134Y-15143D01*
X68443Y-15143D01*
X68535Y-15105D01*
X68605Y-15035D01*
X68643Y-14943D01*
X68643Y-14844D01*
X68643Y-14056D01*
X68605Y-13964D01*
X68535Y-13894D01*
X68443Y-13856D01*
X68344Y-13856D01*
X67556Y-13856D01*
X67464Y-13894D01*
X67394Y-13964D01*
X67356Y-14056D01*
X67356Y-14155D01*
X67356Y-14877D01*
X67135Y-15317D01*
X67121Y-15369D01*
X67098Y-15427D01*
X66974Y-16109D01*
X66890Y-15906D01*
X66595Y-15610D01*
X66209Y-15450D01*
X65792Y-15449D01*
X65406Y-15609D01*
X65110Y-15904D01*
X64950Y-16290D01*
X64949Y-16707D01*
X65109Y-17094D01*
X65404Y-17389D01*
X65790Y-17549D01*
X66207Y-17550D01*
X66594Y-17390D01*
X66774Y-17210D01*
X66520Y-18609D01*
X66365Y-18454D01*
X66128Y-18356D01*
X65872Y-18356D01*
X65635Y-18453D01*
X65499Y-18589D01*
X65365Y-18454D01*
X65128Y-18356D01*
X64872Y-18356D01*
X64635Y-18453D01*
X64454Y-18634D01*
X64356Y-18871D01*
X64356Y-19127D01*
X64453Y-19364D01*
X64506Y-19417D01*
X64211Y-19711D01*
X64211Y-19711D01*
X63903Y-20020D01*
X63907Y-20000D01*
X63907Y-20000D01*
X63907Y-19999D01*
X63907Y-19500D01*
X63907Y-18168D01*
X63932Y-18143D01*
X64443Y-18143D01*
X64535Y-18105D01*
X64605Y-18035D01*
X64643Y-17943D01*
X64643Y-17844D01*
X64643Y-17056D01*
X64605Y-16964D01*
X64535Y-16894D01*
X64443Y-16856D01*
X64344Y-16856D01*
X63556Y-16856D01*
X63464Y-16894D01*
X63394Y-16964D01*
X63356Y-17056D01*
X63356Y-17155D01*
X63356Y-17567D01*
X63211Y-17711D01*
X63123Y-17844D01*
X63092Y-18000D01*
X63092Y-18000D01*
X63092Y-18748D01*
X63046Y-18635D01*
X62865Y-18454D01*
X62628Y-18356D01*
X62432Y-18356D01*
X62288Y-18211D01*
X62288Y-18211D01*
X61702Y-17626D01*
X62185Y-17405D01*
X62212Y-17386D01*
X62245Y-17372D01*
X62278Y-17338D01*
X62314Y-17312D01*
X62331Y-17284D01*
X62356Y-17258D01*
X62374Y-17214D01*
X62397Y-17176D01*
X62403Y-17143D01*
X62416Y-17111D01*
X62876Y-14699D01*
X63080Y-14495D01*
X63356Y-14634D01*
X63356Y-14943D01*
X63394Y-15035D01*
X63464Y-15105D01*
X63556Y-15143D01*
X63592Y-15143D01*
X63592Y-15497D01*
X63454Y-15634D01*
X63356Y-15871D01*
X63356Y-16127D01*
X63453Y-16364D01*
X63634Y-16545D01*
X63871Y-16643D01*
X64127Y-16643D01*
X64364Y-16546D01*
X64545Y-16365D01*
X64643Y-16128D01*
X64643Y-15872D01*
X64546Y-15635D01*
X64407Y-15497D01*
X64407Y-15143D01*
X64443Y-15143D01*
X64535Y-15105D01*
X64605Y-15035D01*
X64643Y-14943D01*
X64643Y-14844D01*
X64643Y-14056D01*
X64605Y-13964D01*
X64535Y-13894D01*
X64443Y-13856D01*
X64344Y-13856D01*
X63622Y-13856D01*
X63450Y-13769D01*
X69730Y-13769D01*
X69730Y-29230D01*
M02*
