G04 (created by PCBNEW (2013-07-07 BZR 4022)-stable) date 15/10/2017 18:41:22*
%MOIN*%
G04 Gerber Fmt 3.4, Leading zero omitted, Abs format*
%FSLAX34Y34*%
G01*
G70*
G90*
G04 APERTURE LIST*
%ADD10C,0.00590551*%
%ADD11R,0.0787402X0.0787402*%
%ADD12R,0.06X0.06*%
%ADD13C,0.06*%
%ADD14C,0.0590551*%
%ADD15C,0.16*%
G04 APERTURE END LIST*
G54D10*
G54D11*
X47000Y-24000D03*
X50000Y-24000D03*
X48000Y-18000D03*
X48000Y-15000D03*
X64000Y-17500D03*
X64000Y-14500D03*
X68000Y-17500D03*
X68000Y-14500D03*
X41000Y-20500D03*
X44000Y-20500D03*
X44500Y-18000D03*
X44500Y-15000D03*
X61000Y-17500D03*
X61000Y-14500D03*
X56500Y-23500D03*
X59500Y-23500D03*
X65000Y-20500D03*
X68000Y-20500D03*
X40500Y-15000D03*
X40500Y-18000D03*
G54D12*
X52500Y-26000D03*
G54D13*
X52500Y-25000D03*
X53500Y-26000D03*
X53500Y-25000D03*
X54500Y-26000D03*
X54500Y-25000D03*
X55500Y-26000D03*
X55500Y-25000D03*
X56500Y-26000D03*
X56500Y-25000D03*
G54D14*
X53000Y-15500D03*
X54000Y-15500D03*
X55000Y-15500D03*
X56000Y-15500D03*
G54D11*
X49500Y-19500D03*
X49500Y-18500D03*
X50500Y-18500D03*
X50500Y-19500D03*
X41500Y-24500D03*
X41500Y-23500D03*
X42500Y-23500D03*
X42500Y-24500D03*
X58500Y-19500D03*
X58500Y-18500D03*
X59500Y-18500D03*
X59500Y-19500D03*
X65000Y-24500D03*
X65000Y-23500D03*
X66000Y-23500D03*
X66000Y-24500D03*
X54000Y-19500D03*
X54000Y-18500D03*
X55000Y-18500D03*
X55000Y-19500D03*
G54D15*
X42000Y-28000D03*
X66500Y-28000D03*
X66000Y-16500D03*
X42000Y-16500D03*
M02*
