G04 (created by PCBNEW (2013-07-07 BZR 4022)-stable) date 15/10/2017 18:41:22*
%MOIN*%
G04 Gerber Fmt 3.4, Leading zero omitted, Abs format*
%FSLAX34Y34*%
G01*
G70*
G90*
G04 APERTURE LIST*
%ADD10C,0.00590551*%
%ADD11C,0.011811*%
%ADD12R,0.0787402X0.0787402*%
%ADD13R,0.06X0.06*%
%ADD14C,0.06*%
%ADD15C,0.0590551*%
%ADD16C,0.16*%
%ADD17C,0.0787402*%
%ADD18C,0.0314961*%
%ADD19C,0.01*%
G04 APERTURE END LIST*
G54D10*
G54D11*
X45740Y-28514D02*
X46190Y-28514D01*
X45965Y-28739D02*
X45965Y-28289D01*
X46753Y-28148D02*
X46471Y-28148D01*
X46443Y-28429D01*
X46471Y-28401D01*
X46528Y-28373D01*
X46668Y-28373D01*
X46724Y-28401D01*
X46753Y-28429D01*
X46781Y-28485D01*
X46781Y-28626D01*
X46753Y-28682D01*
X46724Y-28710D01*
X46668Y-28739D01*
X46528Y-28739D01*
X46471Y-28710D01*
X46443Y-28682D01*
X46949Y-28148D02*
X47146Y-28739D01*
X47343Y-28148D01*
X53550Y-15676D02*
X53493Y-15648D01*
X53409Y-15648D01*
X53325Y-15676D01*
X53268Y-15732D01*
X53240Y-15789D01*
X53212Y-15901D01*
X53212Y-15985D01*
X53240Y-16098D01*
X53268Y-16154D01*
X53325Y-16210D01*
X53409Y-16239D01*
X53465Y-16239D01*
X53550Y-16210D01*
X53578Y-16182D01*
X53578Y-15985D01*
X53465Y-15985D01*
X53831Y-16239D02*
X53831Y-15648D01*
X54168Y-16239D01*
X54168Y-15648D01*
X54449Y-16239D02*
X54449Y-15648D01*
X54590Y-15648D01*
X54674Y-15676D01*
X54731Y-15732D01*
X54759Y-15789D01*
X54787Y-15901D01*
X54787Y-15985D01*
X54759Y-16098D01*
X54731Y-16154D01*
X54674Y-16210D01*
X54590Y-16239D01*
X54449Y-16239D01*
X57550Y-24676D02*
X57493Y-24648D01*
X57409Y-24648D01*
X57325Y-24676D01*
X57268Y-24732D01*
X57240Y-24789D01*
X57212Y-24901D01*
X57212Y-24985D01*
X57240Y-25098D01*
X57268Y-25154D01*
X57325Y-25210D01*
X57409Y-25239D01*
X57465Y-25239D01*
X57550Y-25210D01*
X57578Y-25182D01*
X57578Y-24985D01*
X57465Y-24985D01*
X57831Y-25239D02*
X57831Y-24648D01*
X58168Y-25239D01*
X58168Y-24648D01*
X58449Y-25239D02*
X58449Y-24648D01*
X58590Y-24648D01*
X58674Y-24676D01*
X58731Y-24732D01*
X58759Y-24789D01*
X58787Y-24901D01*
X58787Y-24985D01*
X58759Y-25098D01*
X58731Y-25154D01*
X58674Y-25210D01*
X58590Y-25239D01*
X58449Y-25239D01*
X51240Y-14014D02*
X51690Y-14014D01*
X51465Y-14239D02*
X51465Y-13789D01*
X52253Y-13648D02*
X51971Y-13648D01*
X51943Y-13929D01*
X51971Y-13901D01*
X52028Y-13873D01*
X52168Y-13873D01*
X52224Y-13901D01*
X52253Y-13929D01*
X52281Y-13985D01*
X52281Y-14126D01*
X52253Y-14182D01*
X52224Y-14210D01*
X52168Y-14239D01*
X52028Y-14239D01*
X51971Y-14210D01*
X51943Y-14182D01*
X52449Y-13648D02*
X52646Y-14239D01*
X52843Y-13648D01*
X60398Y-28148D02*
X60736Y-28148D01*
X60567Y-28739D02*
X60567Y-28148D01*
X60933Y-28739D02*
X60933Y-28148D01*
X61186Y-28739D02*
X61186Y-28429D01*
X61158Y-28373D01*
X61101Y-28345D01*
X61017Y-28345D01*
X60961Y-28373D01*
X60933Y-28401D01*
X61692Y-28710D02*
X61636Y-28739D01*
X61523Y-28739D01*
X61467Y-28710D01*
X61439Y-28654D01*
X61439Y-28429D01*
X61467Y-28373D01*
X61523Y-28345D01*
X61636Y-28345D01*
X61692Y-28373D01*
X61720Y-28429D01*
X61720Y-28485D01*
X61439Y-28542D01*
X61636Y-28120D02*
X61551Y-28204D01*
X62057Y-28739D02*
X62001Y-28710D01*
X61973Y-28682D01*
X61945Y-28626D01*
X61945Y-28457D01*
X61973Y-28401D01*
X62001Y-28373D01*
X62057Y-28345D01*
X62142Y-28345D01*
X62198Y-28373D01*
X62226Y-28401D01*
X62254Y-28457D01*
X62254Y-28626D01*
X62226Y-28682D01*
X62198Y-28710D01*
X62142Y-28739D01*
X62057Y-28739D01*
X62957Y-28739D02*
X62957Y-28148D01*
X63154Y-28570D01*
X63351Y-28148D01*
X63351Y-28739D01*
X63857Y-28710D02*
X63801Y-28739D01*
X63688Y-28739D01*
X63632Y-28710D01*
X63604Y-28654D01*
X63604Y-28429D01*
X63632Y-28373D01*
X63688Y-28345D01*
X63801Y-28345D01*
X63857Y-28373D01*
X63885Y-28429D01*
X63885Y-28485D01*
X63604Y-28542D01*
X64138Y-28739D02*
X64138Y-28345D01*
X64138Y-28457D02*
X64167Y-28401D01*
X64195Y-28373D01*
X64251Y-28345D01*
X64307Y-28345D01*
X64588Y-28739D02*
X64532Y-28710D01*
X64504Y-28654D01*
X64504Y-28148D01*
X65066Y-28739D02*
X65066Y-28429D01*
X65038Y-28373D01*
X64982Y-28345D01*
X64870Y-28345D01*
X64813Y-28373D01*
X65066Y-28710D02*
X65010Y-28739D01*
X64870Y-28739D01*
X64813Y-28710D01*
X64785Y-28654D01*
X64785Y-28598D01*
X64813Y-28542D01*
X64870Y-28514D01*
X65010Y-28514D01*
X65066Y-28485D01*
X65291Y-28345D02*
X65432Y-28739D01*
X65573Y-28345D02*
X65432Y-28739D01*
X65376Y-28879D01*
X65348Y-28907D01*
X65291Y-28935D01*
G54D12*
X47000Y-24000D03*
X50000Y-24000D03*
X48000Y-18000D03*
X48000Y-15000D03*
X64000Y-17500D03*
X64000Y-14500D03*
X68000Y-17500D03*
X68000Y-14500D03*
X41000Y-20500D03*
X44000Y-20500D03*
X44500Y-18000D03*
X44500Y-15000D03*
X61000Y-17500D03*
X61000Y-14500D03*
X56500Y-23500D03*
X59500Y-23500D03*
X65000Y-20500D03*
X68000Y-20500D03*
X40500Y-15000D03*
X40500Y-18000D03*
G54D13*
X52500Y-26000D03*
G54D14*
X52500Y-25000D03*
X53500Y-26000D03*
X53500Y-25000D03*
X54500Y-26000D03*
X54500Y-25000D03*
X55500Y-26000D03*
X55500Y-25000D03*
X56500Y-26000D03*
X56500Y-25000D03*
G54D15*
X53000Y-15500D03*
X54000Y-15500D03*
X55000Y-15500D03*
X56000Y-15500D03*
G54D12*
X49500Y-19500D03*
X49500Y-18500D03*
X50500Y-18500D03*
X50500Y-19500D03*
X41500Y-24500D03*
X41500Y-23500D03*
X42500Y-23500D03*
X42500Y-24500D03*
X58500Y-19500D03*
X58500Y-18500D03*
X59500Y-18500D03*
X59500Y-19500D03*
X65000Y-24500D03*
X65000Y-23500D03*
X66000Y-23500D03*
X66000Y-24500D03*
X54000Y-19500D03*
X54000Y-18500D03*
X55000Y-18500D03*
X55000Y-19500D03*
G54D16*
X42000Y-28000D03*
X66500Y-28000D03*
X66000Y-16500D03*
X42000Y-16500D03*
G54D17*
X60000Y-21000D03*
X64000Y-16000D03*
X65000Y-19000D03*
X64000Y-21000D03*
X62500Y-19000D03*
X54500Y-14500D03*
X66000Y-19000D03*
X68500Y-19000D03*
X50000Y-25500D03*
X51500Y-15000D03*
X54000Y-27000D03*
X64000Y-22000D03*
X58500Y-22500D03*
X51000Y-26500D03*
X44500Y-22500D03*
X48500Y-22000D03*
X58500Y-27500D03*
X56500Y-28000D03*
X61500Y-23000D03*
X58500Y-21000D03*
X55000Y-17500D03*
X43000Y-15000D03*
X48000Y-27000D03*
X60000Y-27500D03*
X56500Y-21500D03*
X54000Y-22500D03*
X58500Y-17000D03*
X60000Y-14500D03*
X45500Y-15000D03*
X46000Y-17000D03*
X46000Y-19500D03*
X54000Y-21000D03*
G54D18*
X60000Y-21000D02*
X62500Y-21000D01*
X63000Y-17000D02*
X64000Y-16000D01*
X63000Y-18000D02*
X63000Y-17000D01*
X63500Y-18500D02*
X63000Y-18000D01*
X64000Y-18500D02*
X63500Y-18500D01*
X65000Y-19000D02*
X64000Y-18500D01*
X63000Y-21000D02*
X64000Y-21000D01*
X62500Y-19000D02*
X62500Y-21000D01*
X62500Y-21000D02*
X63000Y-21000D01*
X63000Y-21000D02*
X63000Y-21000D01*
X63000Y-21000D02*
X63000Y-21000D01*
X52500Y-26000D02*
X52500Y-26000D01*
X53000Y-15500D02*
X53000Y-14500D01*
X53000Y-14500D02*
X54500Y-14500D01*
X53000Y-14500D02*
X53000Y-14500D01*
X68500Y-19000D02*
X66000Y-19000D01*
X52500Y-26000D02*
X52500Y-26000D01*
X52500Y-26000D02*
X50000Y-25500D01*
X51500Y-15000D02*
X53000Y-15500D01*
X54000Y-27000D02*
X53500Y-26000D01*
X64000Y-22000D02*
X58500Y-22500D01*
X55500Y-28000D02*
X55488Y-27988D01*
X55000Y-26500D02*
X55000Y-27000D01*
X55000Y-27000D02*
X55000Y-27500D01*
X55000Y-27500D02*
X55500Y-28000D01*
X54500Y-26000D02*
X55000Y-26500D01*
X51000Y-26500D02*
X51000Y-26500D01*
X51000Y-27000D02*
X51000Y-26500D01*
X51500Y-27500D02*
X51000Y-27000D01*
X52988Y-27988D02*
X51500Y-27500D01*
X55488Y-27988D02*
X52988Y-27988D01*
X51000Y-26500D02*
X51000Y-26500D01*
X44500Y-22500D02*
X48500Y-22000D01*
X57500Y-27500D02*
X56500Y-28000D01*
X58500Y-27500D02*
X57500Y-27500D01*
X56500Y-28000D02*
X56500Y-27500D01*
X55500Y-26000D02*
X56500Y-27500D01*
X63000Y-26000D02*
X56500Y-26000D01*
X62000Y-23500D02*
X63000Y-26000D01*
X61500Y-23000D02*
X62000Y-23500D01*
X57500Y-22000D02*
X56000Y-22500D01*
X55000Y-24000D02*
X54500Y-25000D01*
X55000Y-24000D02*
X55000Y-24000D01*
X55500Y-23500D02*
X55000Y-24000D01*
X56000Y-22500D02*
X55500Y-23500D01*
X56000Y-22500D02*
X56000Y-22500D01*
X57500Y-22000D02*
X57500Y-22000D01*
X58000Y-21500D02*
X57500Y-22000D01*
X57500Y-22000D02*
X57500Y-22000D01*
X58000Y-21500D02*
X58000Y-21500D01*
X58000Y-21500D02*
X58000Y-21500D01*
X58000Y-21500D02*
X58000Y-21500D01*
X58500Y-21000D02*
X58500Y-21000D01*
X58500Y-21000D02*
X58000Y-21500D01*
X58000Y-21500D02*
X58000Y-21500D01*
X58000Y-21500D02*
X58000Y-21500D01*
X58000Y-21500D02*
X58000Y-21500D01*
X58000Y-21500D02*
X58000Y-21500D01*
X58000Y-21500D02*
X58000Y-21500D01*
X43000Y-15000D02*
X43500Y-19500D01*
X43500Y-19500D02*
X46500Y-18500D01*
X46500Y-18500D02*
X47000Y-17000D01*
X47000Y-17000D02*
X48000Y-16500D01*
X48000Y-16500D02*
X49000Y-16500D01*
X49000Y-16500D02*
X55000Y-17500D01*
X59500Y-28000D02*
X59500Y-28000D01*
X49500Y-29000D02*
X48000Y-27000D01*
X52500Y-29000D02*
X49500Y-29000D01*
X53500Y-29000D02*
X52500Y-29000D01*
X55000Y-29000D02*
X53500Y-29000D01*
X55000Y-29000D02*
X55000Y-29000D01*
X57000Y-29000D02*
X55000Y-29000D01*
X58500Y-28500D02*
X57000Y-29000D01*
X59500Y-28000D02*
X58500Y-28500D01*
X60000Y-27500D02*
X59500Y-28000D01*
X59500Y-28000D02*
X59500Y-28000D01*
X60000Y-27500D02*
X60000Y-27500D01*
X60000Y-27500D02*
X60000Y-27500D01*
X55000Y-15500D02*
X56000Y-14500D01*
X56000Y-14500D02*
X57000Y-14500D01*
X57500Y-15500D02*
X57500Y-15500D01*
X57000Y-14500D02*
X57500Y-15500D01*
X53500Y-23000D02*
X53500Y-23000D01*
X57000Y-21500D02*
X56500Y-21500D01*
X57500Y-21000D02*
X57000Y-21500D01*
X57500Y-17500D02*
X57500Y-21000D01*
X57500Y-15500D02*
X57500Y-17500D01*
X54000Y-22500D02*
X53500Y-23000D01*
X53000Y-23500D02*
X52500Y-25000D01*
X53500Y-23000D02*
X53000Y-23500D01*
X55000Y-15500D02*
X55000Y-15500D01*
X53750Y-24250D02*
X54000Y-23500D01*
X54000Y-23500D02*
X54000Y-23500D01*
X54000Y-23500D02*
X53750Y-24250D01*
X56000Y-15500D02*
X56500Y-17000D01*
X56000Y-15500D02*
X56000Y-15500D01*
X56500Y-17000D02*
X56500Y-20500D01*
X56500Y-20500D02*
X55500Y-21000D01*
X55500Y-21000D02*
X55084Y-23023D01*
X55084Y-23023D02*
X54000Y-23500D01*
X54000Y-23500D02*
X54000Y-23500D01*
X54000Y-23500D02*
X53500Y-25000D01*
X59000Y-16500D02*
X58500Y-17000D01*
X59500Y-15000D02*
X59000Y-16500D01*
X60000Y-14500D02*
X59500Y-15000D01*
X46000Y-17000D02*
X45500Y-15000D01*
X47000Y-20500D02*
X46000Y-19500D01*
X49500Y-21000D02*
X47000Y-20500D01*
X50000Y-22000D02*
X49500Y-21000D01*
X50500Y-22000D02*
X50000Y-22000D01*
X51500Y-22000D02*
X50500Y-22000D01*
X53000Y-21500D02*
X51500Y-22000D01*
X53500Y-21000D02*
X53000Y-21500D01*
X54000Y-21000D02*
X53500Y-21000D01*
G54D10*
G36*
X56248Y-28592D02*
X55000Y-28592D01*
X53500Y-28592D01*
X52500Y-28592D01*
X49705Y-28592D01*
X49143Y-27844D01*
X49143Y-21872D01*
X49046Y-21635D01*
X48865Y-21454D01*
X48628Y-21356D01*
X48372Y-21356D01*
X48135Y-21453D01*
X47954Y-21634D01*
X47944Y-21660D01*
X44944Y-22034D01*
X44865Y-21954D01*
X44628Y-21856D01*
X44372Y-21856D01*
X44135Y-21953D01*
X43954Y-22134D01*
X43856Y-22371D01*
X43856Y-22627D01*
X43953Y-22864D01*
X44134Y-23045D01*
X44371Y-23143D01*
X44627Y-23143D01*
X44864Y-23046D01*
X45045Y-22865D01*
X45055Y-22841D01*
X48057Y-22467D01*
X48134Y-22545D01*
X48371Y-22643D01*
X48627Y-22643D01*
X48864Y-22546D01*
X49045Y-22365D01*
X49143Y-22128D01*
X49143Y-21872D01*
X49143Y-27844D01*
X48630Y-27160D01*
X48643Y-27128D01*
X48643Y-26872D01*
X48546Y-26635D01*
X48365Y-26454D01*
X48128Y-26356D01*
X47872Y-26356D01*
X47643Y-26450D01*
X47643Y-24344D01*
X47643Y-23556D01*
X47605Y-23464D01*
X47535Y-23394D01*
X47443Y-23356D01*
X47344Y-23356D01*
X46556Y-23356D01*
X46464Y-23394D01*
X46394Y-23464D01*
X46356Y-23556D01*
X46356Y-23655D01*
X46356Y-24443D01*
X46394Y-24535D01*
X46464Y-24605D01*
X46556Y-24643D01*
X46655Y-24643D01*
X47443Y-24643D01*
X47535Y-24605D01*
X47605Y-24535D01*
X47643Y-24443D01*
X47643Y-24344D01*
X47643Y-26450D01*
X47635Y-26453D01*
X47454Y-26634D01*
X47356Y-26871D01*
X47356Y-27127D01*
X47453Y-27364D01*
X47634Y-27545D01*
X47871Y-27643D01*
X47973Y-27643D01*
X49165Y-29230D01*
X47708Y-29230D01*
X47708Y-29222D01*
X47708Y-27659D01*
X45291Y-27659D01*
X45291Y-29222D01*
X47708Y-29222D01*
X47708Y-29230D01*
X43143Y-29230D01*
X43143Y-24844D01*
X43143Y-24155D01*
X43143Y-24056D01*
X43120Y-24000D01*
X43143Y-23943D01*
X43143Y-23844D01*
X43143Y-23056D01*
X43105Y-22964D01*
X43035Y-22894D01*
X42943Y-22856D01*
X42844Y-22856D01*
X42056Y-22856D01*
X42000Y-22879D01*
X41943Y-22856D01*
X41643Y-22856D01*
X41643Y-20844D01*
X41643Y-20056D01*
X41605Y-19964D01*
X41535Y-19894D01*
X41443Y-19856D01*
X41344Y-19856D01*
X41143Y-19856D01*
X41143Y-18344D01*
X41143Y-17556D01*
X41105Y-17464D01*
X41035Y-17394D01*
X40943Y-17356D01*
X40844Y-17356D01*
X40056Y-17356D01*
X39964Y-17394D01*
X39894Y-17464D01*
X39856Y-17556D01*
X39856Y-17655D01*
X39856Y-18443D01*
X39894Y-18535D01*
X39964Y-18605D01*
X40056Y-18643D01*
X40155Y-18643D01*
X40943Y-18643D01*
X41035Y-18605D01*
X41105Y-18535D01*
X41143Y-18443D01*
X41143Y-18344D01*
X41143Y-19856D01*
X40556Y-19856D01*
X40464Y-19894D01*
X40394Y-19964D01*
X40356Y-20056D01*
X40356Y-20155D01*
X40356Y-20943D01*
X40394Y-21035D01*
X40464Y-21105D01*
X40556Y-21143D01*
X40655Y-21143D01*
X41443Y-21143D01*
X41535Y-21105D01*
X41605Y-21035D01*
X41643Y-20943D01*
X41643Y-20844D01*
X41643Y-22856D01*
X41612Y-22856D01*
X41550Y-22918D01*
X41550Y-23450D01*
X41557Y-23450D01*
X41557Y-23550D01*
X41550Y-23550D01*
X41550Y-23557D01*
X41450Y-23557D01*
X41450Y-23550D01*
X41450Y-23450D01*
X41450Y-22918D01*
X41387Y-22856D01*
X41056Y-22856D01*
X40964Y-22894D01*
X40894Y-22964D01*
X40856Y-23056D01*
X40856Y-23155D01*
X40856Y-23387D01*
X40918Y-23450D01*
X41450Y-23450D01*
X41450Y-23550D01*
X40918Y-23550D01*
X40856Y-23612D01*
X40856Y-23844D01*
X40856Y-23943D01*
X40879Y-24000D01*
X40856Y-24056D01*
X40856Y-24155D01*
X40856Y-24943D01*
X40894Y-25035D01*
X40964Y-25105D01*
X41056Y-25143D01*
X41155Y-25143D01*
X41943Y-25143D01*
X42000Y-25120D01*
X42056Y-25143D01*
X42387Y-25143D01*
X42450Y-25081D01*
X42450Y-24550D01*
X42442Y-24550D01*
X42442Y-24450D01*
X42450Y-24450D01*
X42450Y-24442D01*
X42550Y-24442D01*
X42550Y-24450D01*
X43081Y-24450D01*
X43143Y-24387D01*
X43143Y-24155D01*
X43143Y-24844D01*
X43143Y-24612D01*
X43081Y-24550D01*
X42550Y-24550D01*
X42550Y-25081D01*
X42612Y-25143D01*
X42943Y-25143D01*
X43035Y-25105D01*
X43105Y-25035D01*
X43143Y-24943D01*
X43143Y-24844D01*
X43143Y-29230D01*
X43050Y-29230D01*
X43050Y-27792D01*
X42890Y-27406D01*
X42595Y-27110D01*
X42209Y-26950D01*
X41792Y-26949D01*
X41406Y-27109D01*
X41110Y-27404D01*
X40950Y-27790D01*
X40949Y-28207D01*
X41109Y-28594D01*
X41404Y-28889D01*
X41790Y-29049D01*
X42207Y-29050D01*
X42594Y-28890D01*
X42889Y-28595D01*
X43049Y-28209D01*
X43050Y-27792D01*
X43050Y-29230D01*
X38769Y-29230D01*
X38769Y-13769D01*
X50791Y-13769D01*
X50791Y-14722D01*
X50918Y-14722D01*
X50856Y-14871D01*
X50856Y-15127D01*
X50953Y-15364D01*
X51134Y-15545D01*
X51371Y-15643D01*
X51627Y-15643D01*
X51858Y-15548D01*
X52521Y-15769D01*
X52537Y-15808D01*
X52690Y-15961D01*
X52791Y-16003D01*
X52791Y-16721D01*
X49067Y-16098D01*
X49033Y-16099D01*
X49000Y-16092D01*
X48643Y-16092D01*
X48643Y-15344D01*
X48643Y-14556D01*
X48605Y-14464D01*
X48535Y-14394D01*
X48443Y-14356D01*
X48344Y-14356D01*
X47556Y-14356D01*
X47464Y-14394D01*
X47394Y-14464D01*
X47356Y-14556D01*
X47356Y-14655D01*
X47356Y-15443D01*
X47394Y-15535D01*
X47464Y-15605D01*
X47556Y-15643D01*
X47655Y-15643D01*
X48443Y-15643D01*
X48535Y-15605D01*
X48605Y-15535D01*
X48643Y-15443D01*
X48643Y-15344D01*
X48643Y-16092D01*
X48000Y-16092D01*
X47987Y-16095D01*
X47970Y-16092D01*
X47898Y-16112D01*
X47844Y-16123D01*
X47833Y-16130D01*
X47817Y-16135D01*
X46820Y-16634D01*
X46816Y-16635D01*
X46691Y-16732D01*
X46630Y-16839D01*
X46546Y-16635D01*
X46365Y-16454D01*
X46273Y-16416D01*
X46017Y-15392D01*
X46045Y-15365D01*
X46143Y-15128D01*
X46143Y-14872D01*
X46046Y-14635D01*
X45865Y-14454D01*
X45628Y-14356D01*
X45372Y-14356D01*
X45135Y-14453D01*
X45111Y-14478D01*
X45105Y-14464D01*
X45035Y-14394D01*
X44943Y-14356D01*
X44844Y-14356D01*
X44056Y-14356D01*
X43964Y-14394D01*
X43894Y-14464D01*
X43856Y-14556D01*
X43856Y-14655D01*
X43856Y-15443D01*
X43894Y-15535D01*
X43964Y-15605D01*
X44056Y-15643D01*
X44155Y-15643D01*
X44943Y-15643D01*
X45035Y-15605D01*
X45105Y-15535D01*
X45111Y-15521D01*
X45134Y-15545D01*
X45225Y-15582D01*
X45481Y-16608D01*
X45454Y-16634D01*
X45356Y-16871D01*
X45356Y-17127D01*
X45453Y-17364D01*
X45634Y-17545D01*
X45871Y-17643D01*
X46127Y-17643D01*
X46364Y-17546D01*
X46399Y-17510D01*
X46176Y-18180D01*
X45104Y-18536D01*
X45105Y-18535D01*
X45143Y-18443D01*
X45143Y-18344D01*
X45143Y-17556D01*
X45105Y-17464D01*
X45035Y-17394D01*
X44943Y-17356D01*
X44844Y-17356D01*
X44056Y-17356D01*
X43964Y-17394D01*
X43894Y-17464D01*
X43856Y-17556D01*
X43856Y-17655D01*
X43856Y-18443D01*
X43894Y-18535D01*
X43964Y-18605D01*
X44056Y-18643D01*
X44155Y-18643D01*
X44783Y-18643D01*
X43846Y-18955D01*
X43459Y-15450D01*
X43545Y-15365D01*
X43643Y-15128D01*
X43643Y-14872D01*
X43546Y-14635D01*
X43365Y-14454D01*
X43128Y-14356D01*
X42872Y-14356D01*
X42635Y-14453D01*
X42454Y-14634D01*
X42356Y-14871D01*
X42356Y-15127D01*
X42453Y-15364D01*
X42634Y-15545D01*
X42650Y-15552D01*
X42665Y-15680D01*
X42595Y-15610D01*
X42209Y-15450D01*
X41792Y-15449D01*
X41406Y-15609D01*
X41143Y-15871D01*
X41143Y-15344D01*
X41143Y-14556D01*
X41105Y-14464D01*
X41035Y-14394D01*
X40943Y-14356D01*
X40844Y-14356D01*
X40056Y-14356D01*
X39964Y-14394D01*
X39894Y-14464D01*
X39856Y-14556D01*
X39856Y-14655D01*
X39856Y-15443D01*
X39894Y-15535D01*
X39964Y-15605D01*
X40056Y-15643D01*
X40155Y-15643D01*
X40943Y-15643D01*
X41035Y-15605D01*
X41105Y-15535D01*
X41143Y-15443D01*
X41143Y-15344D01*
X41143Y-15871D01*
X41110Y-15904D01*
X40950Y-16290D01*
X40949Y-16707D01*
X41109Y-17094D01*
X41404Y-17389D01*
X41790Y-17549D01*
X42207Y-17550D01*
X42594Y-17390D01*
X42828Y-17156D01*
X43091Y-19545D01*
X43110Y-19602D01*
X43113Y-19628D01*
X43124Y-19647D01*
X43139Y-19696D01*
X43177Y-19742D01*
X43192Y-19766D01*
X43211Y-19781D01*
X43242Y-19818D01*
X43291Y-19843D01*
X43317Y-19864D01*
X43345Y-19871D01*
X43383Y-19891D01*
X43432Y-19895D01*
X43456Y-19902D01*
X43394Y-19964D01*
X43356Y-20056D01*
X43356Y-20155D01*
X43356Y-20943D01*
X43394Y-21035D01*
X43464Y-21105D01*
X43556Y-21143D01*
X43655Y-21143D01*
X44443Y-21143D01*
X44535Y-21105D01*
X44605Y-21035D01*
X44643Y-20943D01*
X44643Y-20844D01*
X44643Y-20056D01*
X44605Y-19964D01*
X44535Y-19894D01*
X44443Y-19856D01*
X44344Y-19856D01*
X43719Y-19856D01*
X45385Y-19302D01*
X45356Y-19371D01*
X45356Y-19627D01*
X45453Y-19864D01*
X45634Y-20045D01*
X45871Y-20143D01*
X46067Y-20143D01*
X46711Y-20788D01*
X46745Y-20810D01*
X46773Y-20838D01*
X46810Y-20854D01*
X46844Y-20876D01*
X46883Y-20884D01*
X46920Y-20899D01*
X49224Y-21360D01*
X49636Y-22182D01*
X49670Y-22226D01*
X49711Y-22288D01*
X49725Y-22297D01*
X49733Y-22307D01*
X49783Y-22335D01*
X49844Y-22376D01*
X49860Y-22379D01*
X49871Y-22386D01*
X49930Y-22393D01*
X50000Y-22407D01*
X50500Y-22407D01*
X51500Y-22407D01*
X51563Y-22394D01*
X51628Y-22386D01*
X53128Y-21887D01*
X53144Y-21878D01*
X53155Y-21876D01*
X53199Y-21847D01*
X53267Y-21808D01*
X53277Y-21794D01*
X53288Y-21788D01*
X53582Y-21493D01*
X53634Y-21545D01*
X53871Y-21643D01*
X54127Y-21643D01*
X54364Y-21546D01*
X54545Y-21365D01*
X54643Y-21128D01*
X54643Y-20872D01*
X54546Y-20635D01*
X54365Y-20454D01*
X54128Y-20356D01*
X53872Y-20356D01*
X53635Y-20453D01*
X53496Y-20593D01*
X53344Y-20623D01*
X53291Y-20658D01*
X53211Y-20711D01*
X53211Y-20711D01*
X52778Y-21145D01*
X51434Y-21592D01*
X51143Y-21592D01*
X51143Y-19844D01*
X51143Y-19155D01*
X51143Y-19056D01*
X51120Y-19000D01*
X51143Y-18943D01*
X51143Y-18844D01*
X51143Y-18056D01*
X51105Y-17964D01*
X51035Y-17894D01*
X50943Y-17856D01*
X50844Y-17856D01*
X50056Y-17856D01*
X50000Y-17879D01*
X49943Y-17856D01*
X49612Y-17856D01*
X49550Y-17918D01*
X49550Y-18450D01*
X49557Y-18450D01*
X49557Y-18550D01*
X49550Y-18550D01*
X49550Y-18557D01*
X49450Y-18557D01*
X49450Y-18550D01*
X49450Y-18450D01*
X49450Y-17918D01*
X49387Y-17856D01*
X49056Y-17856D01*
X48964Y-17894D01*
X48894Y-17964D01*
X48856Y-18056D01*
X48856Y-18155D01*
X48856Y-18387D01*
X48918Y-18450D01*
X49450Y-18450D01*
X49450Y-18550D01*
X48918Y-18550D01*
X48856Y-18612D01*
X48856Y-18844D01*
X48856Y-18943D01*
X48879Y-19000D01*
X48856Y-19056D01*
X48856Y-19155D01*
X48856Y-19943D01*
X48894Y-20035D01*
X48964Y-20105D01*
X49056Y-20143D01*
X49155Y-20143D01*
X49943Y-20143D01*
X50000Y-20120D01*
X50056Y-20143D01*
X50387Y-20143D01*
X50450Y-20081D01*
X50450Y-19550D01*
X50442Y-19550D01*
X50442Y-19450D01*
X50450Y-19450D01*
X50450Y-19442D01*
X50550Y-19442D01*
X50550Y-19450D01*
X51081Y-19450D01*
X51143Y-19387D01*
X51143Y-19155D01*
X51143Y-19844D01*
X51143Y-19612D01*
X51081Y-19550D01*
X50550Y-19550D01*
X50550Y-20081D01*
X50612Y-20143D01*
X50943Y-20143D01*
X51035Y-20105D01*
X51105Y-20035D01*
X51143Y-19943D01*
X51143Y-19844D01*
X51143Y-21592D01*
X50500Y-21592D01*
X50252Y-21592D01*
X49864Y-20817D01*
X49849Y-20798D01*
X49839Y-20773D01*
X49798Y-20732D01*
X49766Y-20692D01*
X49745Y-20680D01*
X49726Y-20660D01*
X49673Y-20638D01*
X49628Y-20613D01*
X49604Y-20610D01*
X49579Y-20599D01*
X48643Y-20412D01*
X48643Y-18344D01*
X48643Y-17556D01*
X48605Y-17464D01*
X48535Y-17394D01*
X48443Y-17356D01*
X48344Y-17356D01*
X47556Y-17356D01*
X47464Y-17394D01*
X47394Y-17464D01*
X47356Y-17556D01*
X47356Y-17655D01*
X47356Y-18443D01*
X47394Y-18535D01*
X47464Y-18605D01*
X47556Y-18643D01*
X47655Y-18643D01*
X48443Y-18643D01*
X48535Y-18605D01*
X48605Y-18535D01*
X48643Y-18443D01*
X48643Y-18344D01*
X48643Y-20412D01*
X47200Y-20124D01*
X46643Y-19567D01*
X46643Y-19372D01*
X46546Y-19135D01*
X46381Y-18970D01*
X46629Y-18888D01*
X46661Y-18870D01*
X46682Y-18864D01*
X46712Y-18841D01*
X46767Y-18809D01*
X46789Y-18780D01*
X46807Y-18766D01*
X46827Y-18732D01*
X46864Y-18684D01*
X46874Y-18650D01*
X46886Y-18628D01*
X47332Y-17289D01*
X48094Y-16907D01*
X48966Y-16907D01*
X54436Y-17822D01*
X54452Y-17859D01*
X54443Y-17856D01*
X54112Y-17856D01*
X54050Y-17918D01*
X54050Y-18450D01*
X54057Y-18450D01*
X54057Y-18550D01*
X54050Y-18550D01*
X54050Y-18557D01*
X53950Y-18557D01*
X53950Y-18550D01*
X53950Y-18450D01*
X53950Y-17918D01*
X53887Y-17856D01*
X53556Y-17856D01*
X53464Y-17894D01*
X53394Y-17964D01*
X53356Y-18056D01*
X53356Y-18155D01*
X53356Y-18387D01*
X53418Y-18450D01*
X53950Y-18450D01*
X53950Y-18550D01*
X53418Y-18550D01*
X53356Y-18612D01*
X53356Y-18844D01*
X53356Y-18943D01*
X53379Y-19000D01*
X53356Y-19056D01*
X53356Y-19155D01*
X53356Y-19943D01*
X53394Y-20035D01*
X53464Y-20105D01*
X53556Y-20143D01*
X53655Y-20143D01*
X54443Y-20143D01*
X54500Y-20120D01*
X54556Y-20143D01*
X54887Y-20143D01*
X54950Y-20081D01*
X54950Y-19550D01*
X54942Y-19550D01*
X54942Y-19450D01*
X54950Y-19450D01*
X54950Y-19442D01*
X55050Y-19442D01*
X55050Y-19450D01*
X55581Y-19450D01*
X55643Y-19387D01*
X55643Y-19155D01*
X55643Y-19056D01*
X55620Y-19000D01*
X55643Y-18943D01*
X55643Y-18844D01*
X55643Y-18056D01*
X55605Y-17964D01*
X55535Y-17894D01*
X55521Y-17888D01*
X55545Y-17865D01*
X55643Y-17628D01*
X55643Y-17372D01*
X55546Y-17135D01*
X55365Y-16954D01*
X55128Y-16856D01*
X54872Y-16856D01*
X54635Y-16953D01*
X54570Y-17019D01*
X52798Y-16722D01*
X55208Y-16722D01*
X55208Y-16003D01*
X55308Y-15962D01*
X55461Y-15809D01*
X55499Y-15717D01*
X55537Y-15808D01*
X55690Y-15961D01*
X55729Y-15978D01*
X56092Y-17069D01*
X56092Y-20247D01*
X55643Y-20472D01*
X55643Y-19844D01*
X55643Y-19612D01*
X55581Y-19550D01*
X55050Y-19550D01*
X55050Y-20081D01*
X55112Y-20143D01*
X55443Y-20143D01*
X55535Y-20105D01*
X55605Y-20035D01*
X55643Y-19943D01*
X55643Y-19844D01*
X55643Y-20472D01*
X55317Y-20635D01*
X55298Y-20650D01*
X55275Y-20659D01*
X55235Y-20699D01*
X55192Y-20733D01*
X55180Y-20754D01*
X55162Y-20771D01*
X55140Y-20823D01*
X55113Y-20871D01*
X55110Y-20895D01*
X55100Y-20918D01*
X54727Y-22735D01*
X54570Y-22804D01*
X54643Y-22628D01*
X54643Y-22372D01*
X54546Y-22135D01*
X54365Y-21954D01*
X54128Y-21856D01*
X53872Y-21856D01*
X53635Y-21953D01*
X53454Y-22134D01*
X53356Y-22371D01*
X53356Y-22567D01*
X53211Y-22711D01*
X53211Y-22711D01*
X52711Y-23211D01*
X52705Y-23222D01*
X52691Y-23232D01*
X52652Y-23300D01*
X52623Y-23344D01*
X52621Y-23355D01*
X52612Y-23371D01*
X52231Y-24515D01*
X52188Y-24533D01*
X52034Y-24688D01*
X51950Y-24890D01*
X51949Y-25108D01*
X52033Y-25311D01*
X52172Y-25449D01*
X52150Y-25449D01*
X52058Y-25487D01*
X52052Y-25494D01*
X50643Y-25213D01*
X50643Y-24344D01*
X50643Y-23556D01*
X50605Y-23464D01*
X50535Y-23394D01*
X50443Y-23356D01*
X50344Y-23356D01*
X49556Y-23356D01*
X49464Y-23394D01*
X49394Y-23464D01*
X49356Y-23556D01*
X49356Y-23655D01*
X49356Y-24443D01*
X49394Y-24535D01*
X49464Y-24605D01*
X49556Y-24643D01*
X49655Y-24643D01*
X50443Y-24643D01*
X50535Y-24605D01*
X50605Y-24535D01*
X50643Y-24443D01*
X50643Y-24344D01*
X50643Y-25213D01*
X50572Y-25198D01*
X50546Y-25135D01*
X50365Y-24954D01*
X50128Y-24856D01*
X49872Y-24856D01*
X49635Y-24953D01*
X49454Y-25134D01*
X49356Y-25371D01*
X49356Y-25627D01*
X49453Y-25864D01*
X49634Y-26045D01*
X49871Y-26143D01*
X50127Y-26143D01*
X50364Y-26046D01*
X50412Y-25997D01*
X50561Y-26027D01*
X50454Y-26134D01*
X50356Y-26371D01*
X50356Y-26627D01*
X50453Y-26864D01*
X50593Y-27003D01*
X50623Y-27155D01*
X50711Y-27288D01*
X51211Y-27788D01*
X51224Y-27796D01*
X51234Y-27808D01*
X51290Y-27840D01*
X51344Y-27876D01*
X51359Y-27879D01*
X51372Y-27887D01*
X52860Y-28376D01*
X52938Y-28385D01*
X52988Y-28395D01*
X55440Y-28395D01*
X55500Y-28407D01*
X55655Y-28376D01*
X55788Y-28288D01*
X55871Y-28163D01*
X55953Y-28364D01*
X56134Y-28545D01*
X56248Y-28592D01*
X56248Y-28592D01*
G37*
G54D19*
X56248Y-28592D02*
X55000Y-28592D01*
X53500Y-28592D01*
X52500Y-28592D01*
X49705Y-28592D01*
X49143Y-27844D01*
X49143Y-21872D01*
X49046Y-21635D01*
X48865Y-21454D01*
X48628Y-21356D01*
X48372Y-21356D01*
X48135Y-21453D01*
X47954Y-21634D01*
X47944Y-21660D01*
X44944Y-22034D01*
X44865Y-21954D01*
X44628Y-21856D01*
X44372Y-21856D01*
X44135Y-21953D01*
X43954Y-22134D01*
X43856Y-22371D01*
X43856Y-22627D01*
X43953Y-22864D01*
X44134Y-23045D01*
X44371Y-23143D01*
X44627Y-23143D01*
X44864Y-23046D01*
X45045Y-22865D01*
X45055Y-22841D01*
X48057Y-22467D01*
X48134Y-22545D01*
X48371Y-22643D01*
X48627Y-22643D01*
X48864Y-22546D01*
X49045Y-22365D01*
X49143Y-22128D01*
X49143Y-21872D01*
X49143Y-27844D01*
X48630Y-27160D01*
X48643Y-27128D01*
X48643Y-26872D01*
X48546Y-26635D01*
X48365Y-26454D01*
X48128Y-26356D01*
X47872Y-26356D01*
X47643Y-26450D01*
X47643Y-24344D01*
X47643Y-23556D01*
X47605Y-23464D01*
X47535Y-23394D01*
X47443Y-23356D01*
X47344Y-23356D01*
X46556Y-23356D01*
X46464Y-23394D01*
X46394Y-23464D01*
X46356Y-23556D01*
X46356Y-23655D01*
X46356Y-24443D01*
X46394Y-24535D01*
X46464Y-24605D01*
X46556Y-24643D01*
X46655Y-24643D01*
X47443Y-24643D01*
X47535Y-24605D01*
X47605Y-24535D01*
X47643Y-24443D01*
X47643Y-24344D01*
X47643Y-26450D01*
X47635Y-26453D01*
X47454Y-26634D01*
X47356Y-26871D01*
X47356Y-27127D01*
X47453Y-27364D01*
X47634Y-27545D01*
X47871Y-27643D01*
X47973Y-27643D01*
X49165Y-29230D01*
X47708Y-29230D01*
X47708Y-29222D01*
X47708Y-27659D01*
X45291Y-27659D01*
X45291Y-29222D01*
X47708Y-29222D01*
X47708Y-29230D01*
X43143Y-29230D01*
X43143Y-24844D01*
X43143Y-24155D01*
X43143Y-24056D01*
X43120Y-24000D01*
X43143Y-23943D01*
X43143Y-23844D01*
X43143Y-23056D01*
X43105Y-22964D01*
X43035Y-22894D01*
X42943Y-22856D01*
X42844Y-22856D01*
X42056Y-22856D01*
X42000Y-22879D01*
X41943Y-22856D01*
X41643Y-22856D01*
X41643Y-20844D01*
X41643Y-20056D01*
X41605Y-19964D01*
X41535Y-19894D01*
X41443Y-19856D01*
X41344Y-19856D01*
X41143Y-19856D01*
X41143Y-18344D01*
X41143Y-17556D01*
X41105Y-17464D01*
X41035Y-17394D01*
X40943Y-17356D01*
X40844Y-17356D01*
X40056Y-17356D01*
X39964Y-17394D01*
X39894Y-17464D01*
X39856Y-17556D01*
X39856Y-17655D01*
X39856Y-18443D01*
X39894Y-18535D01*
X39964Y-18605D01*
X40056Y-18643D01*
X40155Y-18643D01*
X40943Y-18643D01*
X41035Y-18605D01*
X41105Y-18535D01*
X41143Y-18443D01*
X41143Y-18344D01*
X41143Y-19856D01*
X40556Y-19856D01*
X40464Y-19894D01*
X40394Y-19964D01*
X40356Y-20056D01*
X40356Y-20155D01*
X40356Y-20943D01*
X40394Y-21035D01*
X40464Y-21105D01*
X40556Y-21143D01*
X40655Y-21143D01*
X41443Y-21143D01*
X41535Y-21105D01*
X41605Y-21035D01*
X41643Y-20943D01*
X41643Y-20844D01*
X41643Y-22856D01*
X41612Y-22856D01*
X41550Y-22918D01*
X41550Y-23450D01*
X41557Y-23450D01*
X41557Y-23550D01*
X41550Y-23550D01*
X41550Y-23557D01*
X41450Y-23557D01*
X41450Y-23550D01*
X41450Y-23450D01*
X41450Y-22918D01*
X41387Y-22856D01*
X41056Y-22856D01*
X40964Y-22894D01*
X40894Y-22964D01*
X40856Y-23056D01*
X40856Y-23155D01*
X40856Y-23387D01*
X40918Y-23450D01*
X41450Y-23450D01*
X41450Y-23550D01*
X40918Y-23550D01*
X40856Y-23612D01*
X40856Y-23844D01*
X40856Y-23943D01*
X40879Y-24000D01*
X40856Y-24056D01*
X40856Y-24155D01*
X40856Y-24943D01*
X40894Y-25035D01*
X40964Y-25105D01*
X41056Y-25143D01*
X41155Y-25143D01*
X41943Y-25143D01*
X42000Y-25120D01*
X42056Y-25143D01*
X42387Y-25143D01*
X42450Y-25081D01*
X42450Y-24550D01*
X42442Y-24550D01*
X42442Y-24450D01*
X42450Y-24450D01*
X42450Y-24442D01*
X42550Y-24442D01*
X42550Y-24450D01*
X43081Y-24450D01*
X43143Y-24387D01*
X43143Y-24155D01*
X43143Y-24844D01*
X43143Y-24612D01*
X43081Y-24550D01*
X42550Y-24550D01*
X42550Y-25081D01*
X42612Y-25143D01*
X42943Y-25143D01*
X43035Y-25105D01*
X43105Y-25035D01*
X43143Y-24943D01*
X43143Y-24844D01*
X43143Y-29230D01*
X43050Y-29230D01*
X43050Y-27792D01*
X42890Y-27406D01*
X42595Y-27110D01*
X42209Y-26950D01*
X41792Y-26949D01*
X41406Y-27109D01*
X41110Y-27404D01*
X40950Y-27790D01*
X40949Y-28207D01*
X41109Y-28594D01*
X41404Y-28889D01*
X41790Y-29049D01*
X42207Y-29050D01*
X42594Y-28890D01*
X42889Y-28595D01*
X43049Y-28209D01*
X43050Y-27792D01*
X43050Y-29230D01*
X38769Y-29230D01*
X38769Y-13769D01*
X50791Y-13769D01*
X50791Y-14722D01*
X50918Y-14722D01*
X50856Y-14871D01*
X50856Y-15127D01*
X50953Y-15364D01*
X51134Y-15545D01*
X51371Y-15643D01*
X51627Y-15643D01*
X51858Y-15548D01*
X52521Y-15769D01*
X52537Y-15808D01*
X52690Y-15961D01*
X52791Y-16003D01*
X52791Y-16721D01*
X49067Y-16098D01*
X49033Y-16099D01*
X49000Y-16092D01*
X48643Y-16092D01*
X48643Y-15344D01*
X48643Y-14556D01*
X48605Y-14464D01*
X48535Y-14394D01*
X48443Y-14356D01*
X48344Y-14356D01*
X47556Y-14356D01*
X47464Y-14394D01*
X47394Y-14464D01*
X47356Y-14556D01*
X47356Y-14655D01*
X47356Y-15443D01*
X47394Y-15535D01*
X47464Y-15605D01*
X47556Y-15643D01*
X47655Y-15643D01*
X48443Y-15643D01*
X48535Y-15605D01*
X48605Y-15535D01*
X48643Y-15443D01*
X48643Y-15344D01*
X48643Y-16092D01*
X48000Y-16092D01*
X47987Y-16095D01*
X47970Y-16092D01*
X47898Y-16112D01*
X47844Y-16123D01*
X47833Y-16130D01*
X47817Y-16135D01*
X46820Y-16634D01*
X46816Y-16635D01*
X46691Y-16732D01*
X46630Y-16839D01*
X46546Y-16635D01*
X46365Y-16454D01*
X46273Y-16416D01*
X46017Y-15392D01*
X46045Y-15365D01*
X46143Y-15128D01*
X46143Y-14872D01*
X46046Y-14635D01*
X45865Y-14454D01*
X45628Y-14356D01*
X45372Y-14356D01*
X45135Y-14453D01*
X45111Y-14478D01*
X45105Y-14464D01*
X45035Y-14394D01*
X44943Y-14356D01*
X44844Y-14356D01*
X44056Y-14356D01*
X43964Y-14394D01*
X43894Y-14464D01*
X43856Y-14556D01*
X43856Y-14655D01*
X43856Y-15443D01*
X43894Y-15535D01*
X43964Y-15605D01*
X44056Y-15643D01*
X44155Y-15643D01*
X44943Y-15643D01*
X45035Y-15605D01*
X45105Y-15535D01*
X45111Y-15521D01*
X45134Y-15545D01*
X45225Y-15582D01*
X45481Y-16608D01*
X45454Y-16634D01*
X45356Y-16871D01*
X45356Y-17127D01*
X45453Y-17364D01*
X45634Y-17545D01*
X45871Y-17643D01*
X46127Y-17643D01*
X46364Y-17546D01*
X46399Y-17510D01*
X46176Y-18180D01*
X45104Y-18536D01*
X45105Y-18535D01*
X45143Y-18443D01*
X45143Y-18344D01*
X45143Y-17556D01*
X45105Y-17464D01*
X45035Y-17394D01*
X44943Y-17356D01*
X44844Y-17356D01*
X44056Y-17356D01*
X43964Y-17394D01*
X43894Y-17464D01*
X43856Y-17556D01*
X43856Y-17655D01*
X43856Y-18443D01*
X43894Y-18535D01*
X43964Y-18605D01*
X44056Y-18643D01*
X44155Y-18643D01*
X44783Y-18643D01*
X43846Y-18955D01*
X43459Y-15450D01*
X43545Y-15365D01*
X43643Y-15128D01*
X43643Y-14872D01*
X43546Y-14635D01*
X43365Y-14454D01*
X43128Y-14356D01*
X42872Y-14356D01*
X42635Y-14453D01*
X42454Y-14634D01*
X42356Y-14871D01*
X42356Y-15127D01*
X42453Y-15364D01*
X42634Y-15545D01*
X42650Y-15552D01*
X42665Y-15680D01*
X42595Y-15610D01*
X42209Y-15450D01*
X41792Y-15449D01*
X41406Y-15609D01*
X41143Y-15871D01*
X41143Y-15344D01*
X41143Y-14556D01*
X41105Y-14464D01*
X41035Y-14394D01*
X40943Y-14356D01*
X40844Y-14356D01*
X40056Y-14356D01*
X39964Y-14394D01*
X39894Y-14464D01*
X39856Y-14556D01*
X39856Y-14655D01*
X39856Y-15443D01*
X39894Y-15535D01*
X39964Y-15605D01*
X40056Y-15643D01*
X40155Y-15643D01*
X40943Y-15643D01*
X41035Y-15605D01*
X41105Y-15535D01*
X41143Y-15443D01*
X41143Y-15344D01*
X41143Y-15871D01*
X41110Y-15904D01*
X40950Y-16290D01*
X40949Y-16707D01*
X41109Y-17094D01*
X41404Y-17389D01*
X41790Y-17549D01*
X42207Y-17550D01*
X42594Y-17390D01*
X42828Y-17156D01*
X43091Y-19545D01*
X43110Y-19602D01*
X43113Y-19628D01*
X43124Y-19647D01*
X43139Y-19696D01*
X43177Y-19742D01*
X43192Y-19766D01*
X43211Y-19781D01*
X43242Y-19818D01*
X43291Y-19843D01*
X43317Y-19864D01*
X43345Y-19871D01*
X43383Y-19891D01*
X43432Y-19895D01*
X43456Y-19902D01*
X43394Y-19964D01*
X43356Y-20056D01*
X43356Y-20155D01*
X43356Y-20943D01*
X43394Y-21035D01*
X43464Y-21105D01*
X43556Y-21143D01*
X43655Y-21143D01*
X44443Y-21143D01*
X44535Y-21105D01*
X44605Y-21035D01*
X44643Y-20943D01*
X44643Y-20844D01*
X44643Y-20056D01*
X44605Y-19964D01*
X44535Y-19894D01*
X44443Y-19856D01*
X44344Y-19856D01*
X43719Y-19856D01*
X45385Y-19302D01*
X45356Y-19371D01*
X45356Y-19627D01*
X45453Y-19864D01*
X45634Y-20045D01*
X45871Y-20143D01*
X46067Y-20143D01*
X46711Y-20788D01*
X46745Y-20810D01*
X46773Y-20838D01*
X46810Y-20854D01*
X46844Y-20876D01*
X46883Y-20884D01*
X46920Y-20899D01*
X49224Y-21360D01*
X49636Y-22182D01*
X49670Y-22226D01*
X49711Y-22288D01*
X49725Y-22297D01*
X49733Y-22307D01*
X49783Y-22335D01*
X49844Y-22376D01*
X49860Y-22379D01*
X49871Y-22386D01*
X49930Y-22393D01*
X50000Y-22407D01*
X50500Y-22407D01*
X51500Y-22407D01*
X51563Y-22394D01*
X51628Y-22386D01*
X53128Y-21887D01*
X53144Y-21878D01*
X53155Y-21876D01*
X53199Y-21847D01*
X53267Y-21808D01*
X53277Y-21794D01*
X53288Y-21788D01*
X53582Y-21493D01*
X53634Y-21545D01*
X53871Y-21643D01*
X54127Y-21643D01*
X54364Y-21546D01*
X54545Y-21365D01*
X54643Y-21128D01*
X54643Y-20872D01*
X54546Y-20635D01*
X54365Y-20454D01*
X54128Y-20356D01*
X53872Y-20356D01*
X53635Y-20453D01*
X53496Y-20593D01*
X53344Y-20623D01*
X53291Y-20658D01*
X53211Y-20711D01*
X53211Y-20711D01*
X52778Y-21145D01*
X51434Y-21592D01*
X51143Y-21592D01*
X51143Y-19844D01*
X51143Y-19155D01*
X51143Y-19056D01*
X51120Y-19000D01*
X51143Y-18943D01*
X51143Y-18844D01*
X51143Y-18056D01*
X51105Y-17964D01*
X51035Y-17894D01*
X50943Y-17856D01*
X50844Y-17856D01*
X50056Y-17856D01*
X50000Y-17879D01*
X49943Y-17856D01*
X49612Y-17856D01*
X49550Y-17918D01*
X49550Y-18450D01*
X49557Y-18450D01*
X49557Y-18550D01*
X49550Y-18550D01*
X49550Y-18557D01*
X49450Y-18557D01*
X49450Y-18550D01*
X49450Y-18450D01*
X49450Y-17918D01*
X49387Y-17856D01*
X49056Y-17856D01*
X48964Y-17894D01*
X48894Y-17964D01*
X48856Y-18056D01*
X48856Y-18155D01*
X48856Y-18387D01*
X48918Y-18450D01*
X49450Y-18450D01*
X49450Y-18550D01*
X48918Y-18550D01*
X48856Y-18612D01*
X48856Y-18844D01*
X48856Y-18943D01*
X48879Y-19000D01*
X48856Y-19056D01*
X48856Y-19155D01*
X48856Y-19943D01*
X48894Y-20035D01*
X48964Y-20105D01*
X49056Y-20143D01*
X49155Y-20143D01*
X49943Y-20143D01*
X50000Y-20120D01*
X50056Y-20143D01*
X50387Y-20143D01*
X50450Y-20081D01*
X50450Y-19550D01*
X50442Y-19550D01*
X50442Y-19450D01*
X50450Y-19450D01*
X50450Y-19442D01*
X50550Y-19442D01*
X50550Y-19450D01*
X51081Y-19450D01*
X51143Y-19387D01*
X51143Y-19155D01*
X51143Y-19844D01*
X51143Y-19612D01*
X51081Y-19550D01*
X50550Y-19550D01*
X50550Y-20081D01*
X50612Y-20143D01*
X50943Y-20143D01*
X51035Y-20105D01*
X51105Y-20035D01*
X51143Y-19943D01*
X51143Y-19844D01*
X51143Y-21592D01*
X50500Y-21592D01*
X50252Y-21592D01*
X49864Y-20817D01*
X49849Y-20798D01*
X49839Y-20773D01*
X49798Y-20732D01*
X49766Y-20692D01*
X49745Y-20680D01*
X49726Y-20660D01*
X49673Y-20638D01*
X49628Y-20613D01*
X49604Y-20610D01*
X49579Y-20599D01*
X48643Y-20412D01*
X48643Y-18344D01*
X48643Y-17556D01*
X48605Y-17464D01*
X48535Y-17394D01*
X48443Y-17356D01*
X48344Y-17356D01*
X47556Y-17356D01*
X47464Y-17394D01*
X47394Y-17464D01*
X47356Y-17556D01*
X47356Y-17655D01*
X47356Y-18443D01*
X47394Y-18535D01*
X47464Y-18605D01*
X47556Y-18643D01*
X47655Y-18643D01*
X48443Y-18643D01*
X48535Y-18605D01*
X48605Y-18535D01*
X48643Y-18443D01*
X48643Y-18344D01*
X48643Y-20412D01*
X47200Y-20124D01*
X46643Y-19567D01*
X46643Y-19372D01*
X46546Y-19135D01*
X46381Y-18970D01*
X46629Y-18888D01*
X46661Y-18870D01*
X46682Y-18864D01*
X46712Y-18841D01*
X46767Y-18809D01*
X46789Y-18780D01*
X46807Y-18766D01*
X46827Y-18732D01*
X46864Y-18684D01*
X46874Y-18650D01*
X46886Y-18628D01*
X47332Y-17289D01*
X48094Y-16907D01*
X48966Y-16907D01*
X54436Y-17822D01*
X54452Y-17859D01*
X54443Y-17856D01*
X54112Y-17856D01*
X54050Y-17918D01*
X54050Y-18450D01*
X54057Y-18450D01*
X54057Y-18550D01*
X54050Y-18550D01*
X54050Y-18557D01*
X53950Y-18557D01*
X53950Y-18550D01*
X53950Y-18450D01*
X53950Y-17918D01*
X53887Y-17856D01*
X53556Y-17856D01*
X53464Y-17894D01*
X53394Y-17964D01*
X53356Y-18056D01*
X53356Y-18155D01*
X53356Y-18387D01*
X53418Y-18450D01*
X53950Y-18450D01*
X53950Y-18550D01*
X53418Y-18550D01*
X53356Y-18612D01*
X53356Y-18844D01*
X53356Y-18943D01*
X53379Y-19000D01*
X53356Y-19056D01*
X53356Y-19155D01*
X53356Y-19943D01*
X53394Y-20035D01*
X53464Y-20105D01*
X53556Y-20143D01*
X53655Y-20143D01*
X54443Y-20143D01*
X54500Y-20120D01*
X54556Y-20143D01*
X54887Y-20143D01*
X54950Y-20081D01*
X54950Y-19550D01*
X54942Y-19550D01*
X54942Y-19450D01*
X54950Y-19450D01*
X54950Y-19442D01*
X55050Y-19442D01*
X55050Y-19450D01*
X55581Y-19450D01*
X55643Y-19387D01*
X55643Y-19155D01*
X55643Y-19056D01*
X55620Y-19000D01*
X55643Y-18943D01*
X55643Y-18844D01*
X55643Y-18056D01*
X55605Y-17964D01*
X55535Y-17894D01*
X55521Y-17888D01*
X55545Y-17865D01*
X55643Y-17628D01*
X55643Y-17372D01*
X55546Y-17135D01*
X55365Y-16954D01*
X55128Y-16856D01*
X54872Y-16856D01*
X54635Y-16953D01*
X54570Y-17019D01*
X52798Y-16722D01*
X55208Y-16722D01*
X55208Y-16003D01*
X55308Y-15962D01*
X55461Y-15809D01*
X55499Y-15717D01*
X55537Y-15808D01*
X55690Y-15961D01*
X55729Y-15978D01*
X56092Y-17069D01*
X56092Y-20247D01*
X55643Y-20472D01*
X55643Y-19844D01*
X55643Y-19612D01*
X55581Y-19550D01*
X55050Y-19550D01*
X55050Y-20081D01*
X55112Y-20143D01*
X55443Y-20143D01*
X55535Y-20105D01*
X55605Y-20035D01*
X55643Y-19943D01*
X55643Y-19844D01*
X55643Y-20472D01*
X55317Y-20635D01*
X55298Y-20650D01*
X55275Y-20659D01*
X55235Y-20699D01*
X55192Y-20733D01*
X55180Y-20754D01*
X55162Y-20771D01*
X55140Y-20823D01*
X55113Y-20871D01*
X55110Y-20895D01*
X55100Y-20918D01*
X54727Y-22735D01*
X54570Y-22804D01*
X54643Y-22628D01*
X54643Y-22372D01*
X54546Y-22135D01*
X54365Y-21954D01*
X54128Y-21856D01*
X53872Y-21856D01*
X53635Y-21953D01*
X53454Y-22134D01*
X53356Y-22371D01*
X53356Y-22567D01*
X53211Y-22711D01*
X53211Y-22711D01*
X52711Y-23211D01*
X52705Y-23222D01*
X52691Y-23232D01*
X52652Y-23300D01*
X52623Y-23344D01*
X52621Y-23355D01*
X52612Y-23371D01*
X52231Y-24515D01*
X52188Y-24533D01*
X52034Y-24688D01*
X51950Y-24890D01*
X51949Y-25108D01*
X52033Y-25311D01*
X52172Y-25449D01*
X52150Y-25449D01*
X52058Y-25487D01*
X52052Y-25494D01*
X50643Y-25213D01*
X50643Y-24344D01*
X50643Y-23556D01*
X50605Y-23464D01*
X50535Y-23394D01*
X50443Y-23356D01*
X50344Y-23356D01*
X49556Y-23356D01*
X49464Y-23394D01*
X49394Y-23464D01*
X49356Y-23556D01*
X49356Y-23655D01*
X49356Y-24443D01*
X49394Y-24535D01*
X49464Y-24605D01*
X49556Y-24643D01*
X49655Y-24643D01*
X50443Y-24643D01*
X50535Y-24605D01*
X50605Y-24535D01*
X50643Y-24443D01*
X50643Y-24344D01*
X50643Y-25213D01*
X50572Y-25198D01*
X50546Y-25135D01*
X50365Y-24954D01*
X50128Y-24856D01*
X49872Y-24856D01*
X49635Y-24953D01*
X49454Y-25134D01*
X49356Y-25371D01*
X49356Y-25627D01*
X49453Y-25864D01*
X49634Y-26045D01*
X49871Y-26143D01*
X50127Y-26143D01*
X50364Y-26046D01*
X50412Y-25997D01*
X50561Y-26027D01*
X50454Y-26134D01*
X50356Y-26371D01*
X50356Y-26627D01*
X50453Y-26864D01*
X50593Y-27003D01*
X50623Y-27155D01*
X50711Y-27288D01*
X51211Y-27788D01*
X51224Y-27796D01*
X51234Y-27808D01*
X51290Y-27840D01*
X51344Y-27876D01*
X51359Y-27879D01*
X51372Y-27887D01*
X52860Y-28376D01*
X52938Y-28385D01*
X52988Y-28395D01*
X55440Y-28395D01*
X55500Y-28407D01*
X55655Y-28376D01*
X55788Y-28288D01*
X55871Y-28163D01*
X55953Y-28364D01*
X56134Y-28545D01*
X56248Y-28592D01*
G54D10*
G36*
X69730Y-29230D02*
X69143Y-29230D01*
X69143Y-18872D01*
X69046Y-18635D01*
X68865Y-18454D01*
X68643Y-18362D01*
X68643Y-17844D01*
X68643Y-17056D01*
X68643Y-14844D01*
X68643Y-14056D01*
X68605Y-13964D01*
X68535Y-13894D01*
X68443Y-13856D01*
X68344Y-13856D01*
X67556Y-13856D01*
X67464Y-13894D01*
X67394Y-13964D01*
X67356Y-14056D01*
X67356Y-14155D01*
X67356Y-14943D01*
X67394Y-15035D01*
X67464Y-15105D01*
X67556Y-15143D01*
X67655Y-15143D01*
X68443Y-15143D01*
X68535Y-15105D01*
X68605Y-15035D01*
X68643Y-14943D01*
X68643Y-14844D01*
X68643Y-17056D01*
X68605Y-16964D01*
X68535Y-16894D01*
X68443Y-16856D01*
X68344Y-16856D01*
X67556Y-16856D01*
X67464Y-16894D01*
X67394Y-16964D01*
X67356Y-17056D01*
X67356Y-17155D01*
X67356Y-17943D01*
X67394Y-18035D01*
X67464Y-18105D01*
X67556Y-18143D01*
X67655Y-18143D01*
X68443Y-18143D01*
X68535Y-18105D01*
X68605Y-18035D01*
X68643Y-17943D01*
X68643Y-17844D01*
X68643Y-18362D01*
X68628Y-18356D01*
X68372Y-18356D01*
X68135Y-18453D01*
X67997Y-18592D01*
X67050Y-18592D01*
X67050Y-16292D01*
X66890Y-15906D01*
X66595Y-15610D01*
X66209Y-15450D01*
X65792Y-15449D01*
X65406Y-15609D01*
X65110Y-15904D01*
X64950Y-16290D01*
X64949Y-16707D01*
X65109Y-17094D01*
X65404Y-17389D01*
X65790Y-17549D01*
X66207Y-17550D01*
X66594Y-17390D01*
X66889Y-17095D01*
X67049Y-16709D01*
X67050Y-16292D01*
X67050Y-18592D01*
X66502Y-18592D01*
X66365Y-18454D01*
X66128Y-18356D01*
X65872Y-18356D01*
X65635Y-18453D01*
X65499Y-18589D01*
X65365Y-18454D01*
X65128Y-18356D01*
X64872Y-18356D01*
X64735Y-18412D01*
X64198Y-18143D01*
X64443Y-18143D01*
X64535Y-18105D01*
X64605Y-18035D01*
X64643Y-17943D01*
X64643Y-17844D01*
X64643Y-17056D01*
X64605Y-16964D01*
X64535Y-16894D01*
X64443Y-16856D01*
X64344Y-16856D01*
X63720Y-16856D01*
X63932Y-16643D01*
X64127Y-16643D01*
X64364Y-16546D01*
X64545Y-16365D01*
X64643Y-16128D01*
X64643Y-15872D01*
X64643Y-15872D01*
X64643Y-14844D01*
X64643Y-14056D01*
X64605Y-13964D01*
X64535Y-13894D01*
X64443Y-13856D01*
X64344Y-13856D01*
X63556Y-13856D01*
X63464Y-13894D01*
X63394Y-13964D01*
X63356Y-14056D01*
X63356Y-14155D01*
X63356Y-14943D01*
X63394Y-15035D01*
X63464Y-15105D01*
X63556Y-15143D01*
X63655Y-15143D01*
X64443Y-15143D01*
X64535Y-15105D01*
X64605Y-15035D01*
X64643Y-14943D01*
X64643Y-14844D01*
X64643Y-15872D01*
X64546Y-15635D01*
X64365Y-15454D01*
X64128Y-15356D01*
X63872Y-15356D01*
X63635Y-15453D01*
X63454Y-15634D01*
X63356Y-15871D01*
X63356Y-16067D01*
X62711Y-16711D01*
X62623Y-16844D01*
X62592Y-17000D01*
X62592Y-17000D01*
X62592Y-17999D01*
X62592Y-18000D01*
X62623Y-18155D01*
X62711Y-18288D01*
X63211Y-18788D01*
X63211Y-18788D01*
X63291Y-18841D01*
X63344Y-18876D01*
X63344Y-18876D01*
X63500Y-18907D01*
X63500Y-18907D01*
X63500Y-18907D01*
X63903Y-18907D01*
X64359Y-19135D01*
X64453Y-19364D01*
X64634Y-19545D01*
X64871Y-19643D01*
X65127Y-19643D01*
X65364Y-19546D01*
X65500Y-19410D01*
X65634Y-19545D01*
X65871Y-19643D01*
X66127Y-19643D01*
X66364Y-19546D01*
X66502Y-19407D01*
X67997Y-19407D01*
X68134Y-19545D01*
X68371Y-19643D01*
X68627Y-19643D01*
X68864Y-19546D01*
X69045Y-19365D01*
X69143Y-19128D01*
X69143Y-18872D01*
X69143Y-29230D01*
X68643Y-29230D01*
X68643Y-20844D01*
X68643Y-20056D01*
X68605Y-19964D01*
X68535Y-19894D01*
X68443Y-19856D01*
X68344Y-19856D01*
X67556Y-19856D01*
X67464Y-19894D01*
X67394Y-19964D01*
X67356Y-20056D01*
X67356Y-20155D01*
X67356Y-20943D01*
X67394Y-21035D01*
X67464Y-21105D01*
X67556Y-21143D01*
X67655Y-21143D01*
X68443Y-21143D01*
X68535Y-21105D01*
X68605Y-21035D01*
X68643Y-20943D01*
X68643Y-20844D01*
X68643Y-29230D01*
X57598Y-29230D01*
X58628Y-28887D01*
X58657Y-28871D01*
X58682Y-28864D01*
X59682Y-28363D01*
X59726Y-28329D01*
X59788Y-28288D01*
X59932Y-28143D01*
X60033Y-28143D01*
X60033Y-29222D01*
X65966Y-29222D01*
X65966Y-28915D01*
X66290Y-29049D01*
X66707Y-29050D01*
X67094Y-28890D01*
X67389Y-28595D01*
X67549Y-28209D01*
X67550Y-27792D01*
X67390Y-27406D01*
X67095Y-27110D01*
X66709Y-26950D01*
X66643Y-26950D01*
X66643Y-24844D01*
X66643Y-24155D01*
X66643Y-24056D01*
X66620Y-24000D01*
X66643Y-23943D01*
X66643Y-23844D01*
X66643Y-23056D01*
X66605Y-22964D01*
X66535Y-22894D01*
X66443Y-22856D01*
X66344Y-22856D01*
X65556Y-22856D01*
X65500Y-22879D01*
X65443Y-22856D01*
X65112Y-22856D01*
X65050Y-22918D01*
X65050Y-23450D01*
X65057Y-23450D01*
X65057Y-23550D01*
X65050Y-23550D01*
X65050Y-23557D01*
X64950Y-23557D01*
X64950Y-23550D01*
X64950Y-23450D01*
X64950Y-22918D01*
X64887Y-22856D01*
X64556Y-22856D01*
X64464Y-22894D01*
X64394Y-22964D01*
X64356Y-23056D01*
X64356Y-23155D01*
X64356Y-23387D01*
X64418Y-23450D01*
X64950Y-23450D01*
X64950Y-23550D01*
X64418Y-23550D01*
X64356Y-23612D01*
X64356Y-23844D01*
X64356Y-23943D01*
X64379Y-24000D01*
X64356Y-24056D01*
X64356Y-24155D01*
X64356Y-24943D01*
X64394Y-25035D01*
X64464Y-25105D01*
X64556Y-25143D01*
X64655Y-25143D01*
X65443Y-25143D01*
X65500Y-25120D01*
X65556Y-25143D01*
X65887Y-25143D01*
X65950Y-25081D01*
X65950Y-24550D01*
X65942Y-24550D01*
X65942Y-24450D01*
X65950Y-24450D01*
X65950Y-24442D01*
X66050Y-24442D01*
X66050Y-24450D01*
X66581Y-24450D01*
X66643Y-24387D01*
X66643Y-24155D01*
X66643Y-24844D01*
X66643Y-24612D01*
X66581Y-24550D01*
X66050Y-24550D01*
X66050Y-25081D01*
X66112Y-25143D01*
X66443Y-25143D01*
X66535Y-25105D01*
X66605Y-25035D01*
X66643Y-24943D01*
X66643Y-24844D01*
X66643Y-26950D01*
X66292Y-26949D01*
X65906Y-27109D01*
X65610Y-27404D01*
X65504Y-27659D01*
X60630Y-27659D01*
X60643Y-27628D01*
X60643Y-27372D01*
X60546Y-27135D01*
X60365Y-26954D01*
X60128Y-26856D01*
X59872Y-26856D01*
X59635Y-26953D01*
X59454Y-27134D01*
X59356Y-27371D01*
X59356Y-27567D01*
X59260Y-27663D01*
X59094Y-27746D01*
X59143Y-27628D01*
X59143Y-27372D01*
X59046Y-27135D01*
X58865Y-26954D01*
X58628Y-26856D01*
X58372Y-26856D01*
X58135Y-26953D01*
X57997Y-27092D01*
X57500Y-27092D01*
X57487Y-27095D01*
X57470Y-27092D01*
X57398Y-27112D01*
X57344Y-27123D01*
X57333Y-27130D01*
X57317Y-27135D01*
X56878Y-27354D01*
X56876Y-27344D01*
X56855Y-27312D01*
X56839Y-27273D01*
X56343Y-26530D01*
X56390Y-26549D01*
X56608Y-26550D01*
X56811Y-26466D01*
X56870Y-26407D01*
X63000Y-26407D01*
X63074Y-26392D01*
X63151Y-26378D01*
X63153Y-26376D01*
X63155Y-26376D01*
X63220Y-26333D01*
X63284Y-26291D01*
X63285Y-26289D01*
X63288Y-26288D01*
X63332Y-26221D01*
X63374Y-26160D01*
X63374Y-26158D01*
X63376Y-26155D01*
X63392Y-26075D01*
X63407Y-26005D01*
X63406Y-26002D01*
X63407Y-26000D01*
X63391Y-25919D01*
X63378Y-25848D01*
X63376Y-25844D01*
X63376Y-25844D01*
X63376Y-25843D01*
X62378Y-23348D01*
X62376Y-23346D01*
X62376Y-23344D01*
X62333Y-23279D01*
X62291Y-23215D01*
X62289Y-23213D01*
X62288Y-23211D01*
X62143Y-23067D01*
X62143Y-22872D01*
X62046Y-22635D01*
X62000Y-22590D01*
X63540Y-22450D01*
X63634Y-22545D01*
X63871Y-22643D01*
X64127Y-22643D01*
X64364Y-22546D01*
X64545Y-22365D01*
X64643Y-22128D01*
X64643Y-21872D01*
X64546Y-21635D01*
X64410Y-21499D01*
X64545Y-21365D01*
X64637Y-21143D01*
X64655Y-21143D01*
X65443Y-21143D01*
X65535Y-21105D01*
X65605Y-21035D01*
X65643Y-20943D01*
X65643Y-20844D01*
X65643Y-20056D01*
X65605Y-19964D01*
X65535Y-19894D01*
X65443Y-19856D01*
X65344Y-19856D01*
X64556Y-19856D01*
X64464Y-19894D01*
X64394Y-19964D01*
X64356Y-20056D01*
X64356Y-20155D01*
X64356Y-20450D01*
X64128Y-20356D01*
X63872Y-20356D01*
X63635Y-20453D01*
X63497Y-20592D01*
X63000Y-20592D01*
X62907Y-20592D01*
X62907Y-19502D01*
X63045Y-19365D01*
X63143Y-19128D01*
X63143Y-18872D01*
X63046Y-18635D01*
X62865Y-18454D01*
X62628Y-18356D01*
X62372Y-18356D01*
X62135Y-18453D01*
X61954Y-18634D01*
X61856Y-18871D01*
X61856Y-19127D01*
X61953Y-19364D01*
X62092Y-19502D01*
X62092Y-20592D01*
X61643Y-20592D01*
X61643Y-17844D01*
X61643Y-17056D01*
X61605Y-16964D01*
X61535Y-16894D01*
X61443Y-16856D01*
X61344Y-16856D01*
X60556Y-16856D01*
X60464Y-16894D01*
X60394Y-16964D01*
X60356Y-17056D01*
X60356Y-17155D01*
X60356Y-17943D01*
X60394Y-18035D01*
X60464Y-18105D01*
X60556Y-18143D01*
X60655Y-18143D01*
X61443Y-18143D01*
X61535Y-18105D01*
X61605Y-18035D01*
X61643Y-17943D01*
X61643Y-17844D01*
X61643Y-20592D01*
X60502Y-20592D01*
X60365Y-20454D01*
X60143Y-20362D01*
X60143Y-19844D01*
X60143Y-19612D01*
X60081Y-19550D01*
X59550Y-19550D01*
X59550Y-20081D01*
X59612Y-20143D01*
X59943Y-20143D01*
X60035Y-20105D01*
X60105Y-20035D01*
X60143Y-19943D01*
X60143Y-19844D01*
X60143Y-20362D01*
X60128Y-20356D01*
X59872Y-20356D01*
X59635Y-20453D01*
X59454Y-20634D01*
X59356Y-20871D01*
X59356Y-21127D01*
X59453Y-21364D01*
X59634Y-21545D01*
X59871Y-21643D01*
X60127Y-21643D01*
X60364Y-21546D01*
X60502Y-21407D01*
X62500Y-21407D01*
X63000Y-21407D01*
X63497Y-21407D01*
X63589Y-21500D01*
X63454Y-21634D01*
X63452Y-21640D01*
X58959Y-22049D01*
X58865Y-21954D01*
X58628Y-21856D01*
X58372Y-21856D01*
X58135Y-21953D01*
X57954Y-22134D01*
X57856Y-22371D01*
X57856Y-22627D01*
X57953Y-22864D01*
X58134Y-23045D01*
X58371Y-23143D01*
X58627Y-23143D01*
X58859Y-23047D01*
X58856Y-23056D01*
X58856Y-23155D01*
X58856Y-23943D01*
X58894Y-24035D01*
X58964Y-24105D01*
X59056Y-24143D01*
X59155Y-24143D01*
X59943Y-24143D01*
X60035Y-24105D01*
X60105Y-24035D01*
X60143Y-23943D01*
X60143Y-23844D01*
X60143Y-23056D01*
X60105Y-22964D01*
X60035Y-22894D01*
X59943Y-22856D01*
X59844Y-22856D01*
X59081Y-22856D01*
X60932Y-22687D01*
X60856Y-22871D01*
X60856Y-23127D01*
X60953Y-23364D01*
X61134Y-23545D01*
X61371Y-23643D01*
X61567Y-23643D01*
X61652Y-23728D01*
X62398Y-25592D01*
X59208Y-25592D01*
X59208Y-24159D01*
X56791Y-24159D01*
X56791Y-24529D01*
X56787Y-24518D01*
X56581Y-24445D01*
X56363Y-24456D01*
X56212Y-24518D01*
X56184Y-24614D01*
X56500Y-24929D01*
X56505Y-24923D01*
X56576Y-24994D01*
X56570Y-25000D01*
X56576Y-25005D01*
X56505Y-25076D01*
X56500Y-25070D01*
X56184Y-25385D01*
X56212Y-25481D01*
X56267Y-25500D01*
X56188Y-25533D01*
X56034Y-25688D01*
X56000Y-25769D01*
X55966Y-25688D01*
X55811Y-25534D01*
X55730Y-25500D01*
X55811Y-25466D01*
X55965Y-25311D01*
X55997Y-25236D01*
X56018Y-25287D01*
X56114Y-25315D01*
X56429Y-25000D01*
X56114Y-24684D01*
X56018Y-24712D01*
X55999Y-24767D01*
X55966Y-24688D01*
X55811Y-24534D01*
X55609Y-24450D01*
X55391Y-24449D01*
X55189Y-24533D01*
X55336Y-24239D01*
X55788Y-23788D01*
X55824Y-23733D01*
X55856Y-23692D01*
X55856Y-23943D01*
X55894Y-24035D01*
X55964Y-24105D01*
X56056Y-24143D01*
X56155Y-24143D01*
X56943Y-24143D01*
X57035Y-24105D01*
X57105Y-24035D01*
X57143Y-23943D01*
X57143Y-23844D01*
X57143Y-23056D01*
X57105Y-22964D01*
X57035Y-22894D01*
X56943Y-22856D01*
X56844Y-22856D01*
X56278Y-22856D01*
X56289Y-22833D01*
X57628Y-22387D01*
X57644Y-22378D01*
X57644Y-22378D01*
X57655Y-22376D01*
X57699Y-22347D01*
X57767Y-22308D01*
X57777Y-22294D01*
X57788Y-22288D01*
X58288Y-21788D01*
X58288Y-21788D01*
X58288Y-21788D01*
X58432Y-21643D01*
X58627Y-21643D01*
X58864Y-21546D01*
X59045Y-21365D01*
X59143Y-21128D01*
X59143Y-20872D01*
X59046Y-20635D01*
X58865Y-20454D01*
X58628Y-20356D01*
X58372Y-20356D01*
X58135Y-20453D01*
X57954Y-20634D01*
X57907Y-20748D01*
X57907Y-20048D01*
X57964Y-20105D01*
X58056Y-20143D01*
X58155Y-20143D01*
X58943Y-20143D01*
X59000Y-20120D01*
X59056Y-20143D01*
X59387Y-20143D01*
X59450Y-20081D01*
X59450Y-19550D01*
X59442Y-19550D01*
X59442Y-19450D01*
X59450Y-19450D01*
X59450Y-19442D01*
X59550Y-19442D01*
X59550Y-19450D01*
X60081Y-19450D01*
X60143Y-19387D01*
X60143Y-19155D01*
X60143Y-19056D01*
X60120Y-19000D01*
X60143Y-18943D01*
X60143Y-18844D01*
X60143Y-18056D01*
X60105Y-17964D01*
X60035Y-17894D01*
X59943Y-17856D01*
X59844Y-17856D01*
X59056Y-17856D01*
X59000Y-17879D01*
X58943Y-17856D01*
X58612Y-17856D01*
X58550Y-17918D01*
X58550Y-18450D01*
X58557Y-18450D01*
X58557Y-18550D01*
X58550Y-18550D01*
X58550Y-18557D01*
X58450Y-18557D01*
X58450Y-18550D01*
X58442Y-18550D01*
X58442Y-18450D01*
X58450Y-18450D01*
X58450Y-17918D01*
X58387Y-17856D01*
X58056Y-17856D01*
X57964Y-17894D01*
X57907Y-17951D01*
X57907Y-17500D01*
X57907Y-17251D01*
X57953Y-17364D01*
X58134Y-17545D01*
X58371Y-17643D01*
X58627Y-17643D01*
X58864Y-17546D01*
X59045Y-17365D01*
X59143Y-17128D01*
X59143Y-16932D01*
X59288Y-16788D01*
X59296Y-16775D01*
X59307Y-16766D01*
X59340Y-16710D01*
X59376Y-16655D01*
X59379Y-16641D01*
X59386Y-16628D01*
X59854Y-15221D01*
X59932Y-15143D01*
X60127Y-15143D01*
X60364Y-15046D01*
X60388Y-15021D01*
X60394Y-15035D01*
X60464Y-15105D01*
X60556Y-15143D01*
X60655Y-15143D01*
X61443Y-15143D01*
X61535Y-15105D01*
X61605Y-15035D01*
X61643Y-14943D01*
X61643Y-14844D01*
X61643Y-14056D01*
X61605Y-13964D01*
X61535Y-13894D01*
X61443Y-13856D01*
X61344Y-13856D01*
X60556Y-13856D01*
X60464Y-13894D01*
X60394Y-13964D01*
X60388Y-13978D01*
X60365Y-13954D01*
X60128Y-13856D01*
X59872Y-13856D01*
X59635Y-13953D01*
X59454Y-14134D01*
X59356Y-14371D01*
X59356Y-14567D01*
X59211Y-14711D01*
X59205Y-14722D01*
X59191Y-14732D01*
X59152Y-14800D01*
X59123Y-14844D01*
X59121Y-14855D01*
X59112Y-14871D01*
X58643Y-16279D01*
X58567Y-16356D01*
X58372Y-16356D01*
X58135Y-16453D01*
X57954Y-16634D01*
X57907Y-16748D01*
X57907Y-15500D01*
X57904Y-15487D01*
X57907Y-15470D01*
X57887Y-15398D01*
X57876Y-15344D01*
X57869Y-15333D01*
X57864Y-15317D01*
X57364Y-14317D01*
X57324Y-14266D01*
X57288Y-14211D01*
X57275Y-14203D01*
X57266Y-14192D01*
X57210Y-14159D01*
X57155Y-14123D01*
X57141Y-14120D01*
X57128Y-14113D01*
X57063Y-14105D01*
X57000Y-14092D01*
X56000Y-14092D01*
X55844Y-14123D01*
X55791Y-14158D01*
X55711Y-14211D01*
X55711Y-14211D01*
X54969Y-14954D01*
X54955Y-14954D01*
X55045Y-14865D01*
X55143Y-14628D01*
X55143Y-14372D01*
X55046Y-14135D01*
X54865Y-13954D01*
X54628Y-13856D01*
X54372Y-13856D01*
X54135Y-13953D01*
X53997Y-14092D01*
X53208Y-14092D01*
X53208Y-13769D01*
X69730Y-13769D01*
X69730Y-29230D01*
X69730Y-29230D01*
G37*
G54D19*
X69730Y-29230D02*
X69143Y-29230D01*
X69143Y-18872D01*
X69046Y-18635D01*
X68865Y-18454D01*
X68643Y-18362D01*
X68643Y-17844D01*
X68643Y-17056D01*
X68643Y-14844D01*
X68643Y-14056D01*
X68605Y-13964D01*
X68535Y-13894D01*
X68443Y-13856D01*
X68344Y-13856D01*
X67556Y-13856D01*
X67464Y-13894D01*
X67394Y-13964D01*
X67356Y-14056D01*
X67356Y-14155D01*
X67356Y-14943D01*
X67394Y-15035D01*
X67464Y-15105D01*
X67556Y-15143D01*
X67655Y-15143D01*
X68443Y-15143D01*
X68535Y-15105D01*
X68605Y-15035D01*
X68643Y-14943D01*
X68643Y-14844D01*
X68643Y-17056D01*
X68605Y-16964D01*
X68535Y-16894D01*
X68443Y-16856D01*
X68344Y-16856D01*
X67556Y-16856D01*
X67464Y-16894D01*
X67394Y-16964D01*
X67356Y-17056D01*
X67356Y-17155D01*
X67356Y-17943D01*
X67394Y-18035D01*
X67464Y-18105D01*
X67556Y-18143D01*
X67655Y-18143D01*
X68443Y-18143D01*
X68535Y-18105D01*
X68605Y-18035D01*
X68643Y-17943D01*
X68643Y-17844D01*
X68643Y-18362D01*
X68628Y-18356D01*
X68372Y-18356D01*
X68135Y-18453D01*
X67997Y-18592D01*
X67050Y-18592D01*
X67050Y-16292D01*
X66890Y-15906D01*
X66595Y-15610D01*
X66209Y-15450D01*
X65792Y-15449D01*
X65406Y-15609D01*
X65110Y-15904D01*
X64950Y-16290D01*
X64949Y-16707D01*
X65109Y-17094D01*
X65404Y-17389D01*
X65790Y-17549D01*
X66207Y-17550D01*
X66594Y-17390D01*
X66889Y-17095D01*
X67049Y-16709D01*
X67050Y-16292D01*
X67050Y-18592D01*
X66502Y-18592D01*
X66365Y-18454D01*
X66128Y-18356D01*
X65872Y-18356D01*
X65635Y-18453D01*
X65499Y-18589D01*
X65365Y-18454D01*
X65128Y-18356D01*
X64872Y-18356D01*
X64735Y-18412D01*
X64198Y-18143D01*
X64443Y-18143D01*
X64535Y-18105D01*
X64605Y-18035D01*
X64643Y-17943D01*
X64643Y-17844D01*
X64643Y-17056D01*
X64605Y-16964D01*
X64535Y-16894D01*
X64443Y-16856D01*
X64344Y-16856D01*
X63720Y-16856D01*
X63932Y-16643D01*
X64127Y-16643D01*
X64364Y-16546D01*
X64545Y-16365D01*
X64643Y-16128D01*
X64643Y-15872D01*
X64643Y-15872D01*
X64643Y-14844D01*
X64643Y-14056D01*
X64605Y-13964D01*
X64535Y-13894D01*
X64443Y-13856D01*
X64344Y-13856D01*
X63556Y-13856D01*
X63464Y-13894D01*
X63394Y-13964D01*
X63356Y-14056D01*
X63356Y-14155D01*
X63356Y-14943D01*
X63394Y-15035D01*
X63464Y-15105D01*
X63556Y-15143D01*
X63655Y-15143D01*
X64443Y-15143D01*
X64535Y-15105D01*
X64605Y-15035D01*
X64643Y-14943D01*
X64643Y-14844D01*
X64643Y-15872D01*
X64546Y-15635D01*
X64365Y-15454D01*
X64128Y-15356D01*
X63872Y-15356D01*
X63635Y-15453D01*
X63454Y-15634D01*
X63356Y-15871D01*
X63356Y-16067D01*
X62711Y-16711D01*
X62623Y-16844D01*
X62592Y-17000D01*
X62592Y-17000D01*
X62592Y-17999D01*
X62592Y-18000D01*
X62623Y-18155D01*
X62711Y-18288D01*
X63211Y-18788D01*
X63211Y-18788D01*
X63291Y-18841D01*
X63344Y-18876D01*
X63344Y-18876D01*
X63500Y-18907D01*
X63500Y-18907D01*
X63500Y-18907D01*
X63903Y-18907D01*
X64359Y-19135D01*
X64453Y-19364D01*
X64634Y-19545D01*
X64871Y-19643D01*
X65127Y-19643D01*
X65364Y-19546D01*
X65500Y-19410D01*
X65634Y-19545D01*
X65871Y-19643D01*
X66127Y-19643D01*
X66364Y-19546D01*
X66502Y-19407D01*
X67997Y-19407D01*
X68134Y-19545D01*
X68371Y-19643D01*
X68627Y-19643D01*
X68864Y-19546D01*
X69045Y-19365D01*
X69143Y-19128D01*
X69143Y-18872D01*
X69143Y-29230D01*
X68643Y-29230D01*
X68643Y-20844D01*
X68643Y-20056D01*
X68605Y-19964D01*
X68535Y-19894D01*
X68443Y-19856D01*
X68344Y-19856D01*
X67556Y-19856D01*
X67464Y-19894D01*
X67394Y-19964D01*
X67356Y-20056D01*
X67356Y-20155D01*
X67356Y-20943D01*
X67394Y-21035D01*
X67464Y-21105D01*
X67556Y-21143D01*
X67655Y-21143D01*
X68443Y-21143D01*
X68535Y-21105D01*
X68605Y-21035D01*
X68643Y-20943D01*
X68643Y-20844D01*
X68643Y-29230D01*
X57598Y-29230D01*
X58628Y-28887D01*
X58657Y-28871D01*
X58682Y-28864D01*
X59682Y-28363D01*
X59726Y-28329D01*
X59788Y-28288D01*
X59932Y-28143D01*
X60033Y-28143D01*
X60033Y-29222D01*
X65966Y-29222D01*
X65966Y-28915D01*
X66290Y-29049D01*
X66707Y-29050D01*
X67094Y-28890D01*
X67389Y-28595D01*
X67549Y-28209D01*
X67550Y-27792D01*
X67390Y-27406D01*
X67095Y-27110D01*
X66709Y-26950D01*
X66643Y-26950D01*
X66643Y-24844D01*
X66643Y-24155D01*
X66643Y-24056D01*
X66620Y-24000D01*
X66643Y-23943D01*
X66643Y-23844D01*
X66643Y-23056D01*
X66605Y-22964D01*
X66535Y-22894D01*
X66443Y-22856D01*
X66344Y-22856D01*
X65556Y-22856D01*
X65500Y-22879D01*
X65443Y-22856D01*
X65112Y-22856D01*
X65050Y-22918D01*
X65050Y-23450D01*
X65057Y-23450D01*
X65057Y-23550D01*
X65050Y-23550D01*
X65050Y-23557D01*
X64950Y-23557D01*
X64950Y-23550D01*
X64950Y-23450D01*
X64950Y-22918D01*
X64887Y-22856D01*
X64556Y-22856D01*
X64464Y-22894D01*
X64394Y-22964D01*
X64356Y-23056D01*
X64356Y-23155D01*
X64356Y-23387D01*
X64418Y-23450D01*
X64950Y-23450D01*
X64950Y-23550D01*
X64418Y-23550D01*
X64356Y-23612D01*
X64356Y-23844D01*
X64356Y-23943D01*
X64379Y-24000D01*
X64356Y-24056D01*
X64356Y-24155D01*
X64356Y-24943D01*
X64394Y-25035D01*
X64464Y-25105D01*
X64556Y-25143D01*
X64655Y-25143D01*
X65443Y-25143D01*
X65500Y-25120D01*
X65556Y-25143D01*
X65887Y-25143D01*
X65950Y-25081D01*
X65950Y-24550D01*
X65942Y-24550D01*
X65942Y-24450D01*
X65950Y-24450D01*
X65950Y-24442D01*
X66050Y-24442D01*
X66050Y-24450D01*
X66581Y-24450D01*
X66643Y-24387D01*
X66643Y-24155D01*
X66643Y-24844D01*
X66643Y-24612D01*
X66581Y-24550D01*
X66050Y-24550D01*
X66050Y-25081D01*
X66112Y-25143D01*
X66443Y-25143D01*
X66535Y-25105D01*
X66605Y-25035D01*
X66643Y-24943D01*
X66643Y-24844D01*
X66643Y-26950D01*
X66292Y-26949D01*
X65906Y-27109D01*
X65610Y-27404D01*
X65504Y-27659D01*
X60630Y-27659D01*
X60643Y-27628D01*
X60643Y-27372D01*
X60546Y-27135D01*
X60365Y-26954D01*
X60128Y-26856D01*
X59872Y-26856D01*
X59635Y-26953D01*
X59454Y-27134D01*
X59356Y-27371D01*
X59356Y-27567D01*
X59260Y-27663D01*
X59094Y-27746D01*
X59143Y-27628D01*
X59143Y-27372D01*
X59046Y-27135D01*
X58865Y-26954D01*
X58628Y-26856D01*
X58372Y-26856D01*
X58135Y-26953D01*
X57997Y-27092D01*
X57500Y-27092D01*
X57487Y-27095D01*
X57470Y-27092D01*
X57398Y-27112D01*
X57344Y-27123D01*
X57333Y-27130D01*
X57317Y-27135D01*
X56878Y-27354D01*
X56876Y-27344D01*
X56855Y-27312D01*
X56839Y-27273D01*
X56343Y-26530D01*
X56390Y-26549D01*
X56608Y-26550D01*
X56811Y-26466D01*
X56870Y-26407D01*
X63000Y-26407D01*
X63074Y-26392D01*
X63151Y-26378D01*
X63153Y-26376D01*
X63155Y-26376D01*
X63220Y-26333D01*
X63284Y-26291D01*
X63285Y-26289D01*
X63288Y-26288D01*
X63332Y-26221D01*
X63374Y-26160D01*
X63374Y-26158D01*
X63376Y-26155D01*
X63392Y-26075D01*
X63407Y-26005D01*
X63406Y-26002D01*
X63407Y-26000D01*
X63391Y-25919D01*
X63378Y-25848D01*
X63376Y-25844D01*
X63376Y-25844D01*
X63376Y-25843D01*
X62378Y-23348D01*
X62376Y-23346D01*
X62376Y-23344D01*
X62333Y-23279D01*
X62291Y-23215D01*
X62289Y-23213D01*
X62288Y-23211D01*
X62143Y-23067D01*
X62143Y-22872D01*
X62046Y-22635D01*
X62000Y-22590D01*
X63540Y-22450D01*
X63634Y-22545D01*
X63871Y-22643D01*
X64127Y-22643D01*
X64364Y-22546D01*
X64545Y-22365D01*
X64643Y-22128D01*
X64643Y-21872D01*
X64546Y-21635D01*
X64410Y-21499D01*
X64545Y-21365D01*
X64637Y-21143D01*
X64655Y-21143D01*
X65443Y-21143D01*
X65535Y-21105D01*
X65605Y-21035D01*
X65643Y-20943D01*
X65643Y-20844D01*
X65643Y-20056D01*
X65605Y-19964D01*
X65535Y-19894D01*
X65443Y-19856D01*
X65344Y-19856D01*
X64556Y-19856D01*
X64464Y-19894D01*
X64394Y-19964D01*
X64356Y-20056D01*
X64356Y-20155D01*
X64356Y-20450D01*
X64128Y-20356D01*
X63872Y-20356D01*
X63635Y-20453D01*
X63497Y-20592D01*
X63000Y-20592D01*
X62907Y-20592D01*
X62907Y-19502D01*
X63045Y-19365D01*
X63143Y-19128D01*
X63143Y-18872D01*
X63046Y-18635D01*
X62865Y-18454D01*
X62628Y-18356D01*
X62372Y-18356D01*
X62135Y-18453D01*
X61954Y-18634D01*
X61856Y-18871D01*
X61856Y-19127D01*
X61953Y-19364D01*
X62092Y-19502D01*
X62092Y-20592D01*
X61643Y-20592D01*
X61643Y-17844D01*
X61643Y-17056D01*
X61605Y-16964D01*
X61535Y-16894D01*
X61443Y-16856D01*
X61344Y-16856D01*
X60556Y-16856D01*
X60464Y-16894D01*
X60394Y-16964D01*
X60356Y-17056D01*
X60356Y-17155D01*
X60356Y-17943D01*
X60394Y-18035D01*
X60464Y-18105D01*
X60556Y-18143D01*
X60655Y-18143D01*
X61443Y-18143D01*
X61535Y-18105D01*
X61605Y-18035D01*
X61643Y-17943D01*
X61643Y-17844D01*
X61643Y-20592D01*
X60502Y-20592D01*
X60365Y-20454D01*
X60143Y-20362D01*
X60143Y-19844D01*
X60143Y-19612D01*
X60081Y-19550D01*
X59550Y-19550D01*
X59550Y-20081D01*
X59612Y-20143D01*
X59943Y-20143D01*
X60035Y-20105D01*
X60105Y-20035D01*
X60143Y-19943D01*
X60143Y-19844D01*
X60143Y-20362D01*
X60128Y-20356D01*
X59872Y-20356D01*
X59635Y-20453D01*
X59454Y-20634D01*
X59356Y-20871D01*
X59356Y-21127D01*
X59453Y-21364D01*
X59634Y-21545D01*
X59871Y-21643D01*
X60127Y-21643D01*
X60364Y-21546D01*
X60502Y-21407D01*
X62500Y-21407D01*
X63000Y-21407D01*
X63497Y-21407D01*
X63589Y-21500D01*
X63454Y-21634D01*
X63452Y-21640D01*
X58959Y-22049D01*
X58865Y-21954D01*
X58628Y-21856D01*
X58372Y-21856D01*
X58135Y-21953D01*
X57954Y-22134D01*
X57856Y-22371D01*
X57856Y-22627D01*
X57953Y-22864D01*
X58134Y-23045D01*
X58371Y-23143D01*
X58627Y-23143D01*
X58859Y-23047D01*
X58856Y-23056D01*
X58856Y-23155D01*
X58856Y-23943D01*
X58894Y-24035D01*
X58964Y-24105D01*
X59056Y-24143D01*
X59155Y-24143D01*
X59943Y-24143D01*
X60035Y-24105D01*
X60105Y-24035D01*
X60143Y-23943D01*
X60143Y-23844D01*
X60143Y-23056D01*
X60105Y-22964D01*
X60035Y-22894D01*
X59943Y-22856D01*
X59844Y-22856D01*
X59081Y-22856D01*
X60932Y-22687D01*
X60856Y-22871D01*
X60856Y-23127D01*
X60953Y-23364D01*
X61134Y-23545D01*
X61371Y-23643D01*
X61567Y-23643D01*
X61652Y-23728D01*
X62398Y-25592D01*
X59208Y-25592D01*
X59208Y-24159D01*
X56791Y-24159D01*
X56791Y-24529D01*
X56787Y-24518D01*
X56581Y-24445D01*
X56363Y-24456D01*
X56212Y-24518D01*
X56184Y-24614D01*
X56500Y-24929D01*
X56505Y-24923D01*
X56576Y-24994D01*
X56570Y-25000D01*
X56576Y-25005D01*
X56505Y-25076D01*
X56500Y-25070D01*
X56184Y-25385D01*
X56212Y-25481D01*
X56267Y-25500D01*
X56188Y-25533D01*
X56034Y-25688D01*
X56000Y-25769D01*
X55966Y-25688D01*
X55811Y-25534D01*
X55730Y-25500D01*
X55811Y-25466D01*
X55965Y-25311D01*
X55997Y-25236D01*
X56018Y-25287D01*
X56114Y-25315D01*
X56429Y-25000D01*
X56114Y-24684D01*
X56018Y-24712D01*
X55999Y-24767D01*
X55966Y-24688D01*
X55811Y-24534D01*
X55609Y-24450D01*
X55391Y-24449D01*
X55189Y-24533D01*
X55336Y-24239D01*
X55788Y-23788D01*
X55824Y-23733D01*
X55856Y-23692D01*
X55856Y-23943D01*
X55894Y-24035D01*
X55964Y-24105D01*
X56056Y-24143D01*
X56155Y-24143D01*
X56943Y-24143D01*
X57035Y-24105D01*
X57105Y-24035D01*
X57143Y-23943D01*
X57143Y-23844D01*
X57143Y-23056D01*
X57105Y-22964D01*
X57035Y-22894D01*
X56943Y-22856D01*
X56844Y-22856D01*
X56278Y-22856D01*
X56289Y-22833D01*
X57628Y-22387D01*
X57644Y-22378D01*
X57644Y-22378D01*
X57655Y-22376D01*
X57699Y-22347D01*
X57767Y-22308D01*
X57777Y-22294D01*
X57788Y-22288D01*
X58288Y-21788D01*
X58288Y-21788D01*
X58288Y-21788D01*
X58432Y-21643D01*
X58627Y-21643D01*
X58864Y-21546D01*
X59045Y-21365D01*
X59143Y-21128D01*
X59143Y-20872D01*
X59046Y-20635D01*
X58865Y-20454D01*
X58628Y-20356D01*
X58372Y-20356D01*
X58135Y-20453D01*
X57954Y-20634D01*
X57907Y-20748D01*
X57907Y-20048D01*
X57964Y-20105D01*
X58056Y-20143D01*
X58155Y-20143D01*
X58943Y-20143D01*
X59000Y-20120D01*
X59056Y-20143D01*
X59387Y-20143D01*
X59450Y-20081D01*
X59450Y-19550D01*
X59442Y-19550D01*
X59442Y-19450D01*
X59450Y-19450D01*
X59450Y-19442D01*
X59550Y-19442D01*
X59550Y-19450D01*
X60081Y-19450D01*
X60143Y-19387D01*
X60143Y-19155D01*
X60143Y-19056D01*
X60120Y-19000D01*
X60143Y-18943D01*
X60143Y-18844D01*
X60143Y-18056D01*
X60105Y-17964D01*
X60035Y-17894D01*
X59943Y-17856D01*
X59844Y-17856D01*
X59056Y-17856D01*
X59000Y-17879D01*
X58943Y-17856D01*
X58612Y-17856D01*
X58550Y-17918D01*
X58550Y-18450D01*
X58557Y-18450D01*
X58557Y-18550D01*
X58550Y-18550D01*
X58550Y-18557D01*
X58450Y-18557D01*
X58450Y-18550D01*
X58442Y-18550D01*
X58442Y-18450D01*
X58450Y-18450D01*
X58450Y-17918D01*
X58387Y-17856D01*
X58056Y-17856D01*
X57964Y-17894D01*
X57907Y-17951D01*
X57907Y-17500D01*
X57907Y-17251D01*
X57953Y-17364D01*
X58134Y-17545D01*
X58371Y-17643D01*
X58627Y-17643D01*
X58864Y-17546D01*
X59045Y-17365D01*
X59143Y-17128D01*
X59143Y-16932D01*
X59288Y-16788D01*
X59296Y-16775D01*
X59307Y-16766D01*
X59340Y-16710D01*
X59376Y-16655D01*
X59379Y-16641D01*
X59386Y-16628D01*
X59854Y-15221D01*
X59932Y-15143D01*
X60127Y-15143D01*
X60364Y-15046D01*
X60388Y-15021D01*
X60394Y-15035D01*
X60464Y-15105D01*
X60556Y-15143D01*
X60655Y-15143D01*
X61443Y-15143D01*
X61535Y-15105D01*
X61605Y-15035D01*
X61643Y-14943D01*
X61643Y-14844D01*
X61643Y-14056D01*
X61605Y-13964D01*
X61535Y-13894D01*
X61443Y-13856D01*
X61344Y-13856D01*
X60556Y-13856D01*
X60464Y-13894D01*
X60394Y-13964D01*
X60388Y-13978D01*
X60365Y-13954D01*
X60128Y-13856D01*
X59872Y-13856D01*
X59635Y-13953D01*
X59454Y-14134D01*
X59356Y-14371D01*
X59356Y-14567D01*
X59211Y-14711D01*
X59205Y-14722D01*
X59191Y-14732D01*
X59152Y-14800D01*
X59123Y-14844D01*
X59121Y-14855D01*
X59112Y-14871D01*
X58643Y-16279D01*
X58567Y-16356D01*
X58372Y-16356D01*
X58135Y-16453D01*
X57954Y-16634D01*
X57907Y-16748D01*
X57907Y-15500D01*
X57904Y-15487D01*
X57907Y-15470D01*
X57887Y-15398D01*
X57876Y-15344D01*
X57869Y-15333D01*
X57864Y-15317D01*
X57364Y-14317D01*
X57324Y-14266D01*
X57288Y-14211D01*
X57275Y-14203D01*
X57266Y-14192D01*
X57210Y-14159D01*
X57155Y-14123D01*
X57141Y-14120D01*
X57128Y-14113D01*
X57063Y-14105D01*
X57000Y-14092D01*
X56000Y-14092D01*
X55844Y-14123D01*
X55791Y-14158D01*
X55711Y-14211D01*
X55711Y-14211D01*
X54969Y-14954D01*
X54955Y-14954D01*
X55045Y-14865D01*
X55143Y-14628D01*
X55143Y-14372D01*
X55046Y-14135D01*
X54865Y-13954D01*
X54628Y-13856D01*
X54372Y-13856D01*
X54135Y-13953D01*
X53997Y-14092D01*
X53208Y-14092D01*
X53208Y-13769D01*
X69730Y-13769D01*
X69730Y-29230D01*
M02*
